<svg width="200" height="200" viewBox="0 0 200 200" fill="none" xmlns="http://www.w3.org/2000/svg">
<g clip-path="url(#clip0_48_118)">
<path d="M84.8809 179.082C85.7553 179.25 86.6354 179.4 87.5208 179.533C88.7116 179.749 89.756 179.563 90.7225 179.285C93.4667 178.497 95.6643 176.187 96.1112 173.189C96.756 169.087 93.8376 165.249 89.7743 164.711C88.117 164.461 86.4845 164.134 84.8809 163.731V81.0483C88.8174 81.1474 92.8864 80.9005 97.0893 80.5799C98.0647 80.5055 98.9316 80.2983 99.6967 79.9724C100.462 80.2983 101.329 80.5055 102.304 80.5799C106.99 80.9373 111.509 81.2031 115.863 81L115.863 129.54C115.863 129.54 115.863 130.54 115.363 132.039C115.062 132.943 113.852 133.484 112.72 133.989C111.974 134.322 111.263 134.64 110.866 135.037C109.867 136.037 109.867 139.035 110.866 140.034C111.125 140.294 111.728 140.612 112.408 140.97C113.288 141.435 114.3 141.969 114.864 142.533C115.026 142.695 115.162 142.858 115.276 143.016C115.164 143.177 115.058 143.344 114.958 143.516L114.953 143.525L101.634 166.702L101.632 166.706L101.63 166.708C99.5361 170.317 100.863 174.87 104.421 176.946L104.432 176.952L115.863 183.521V185.508C115.863 185.508 115.863 186.508 114.364 188.007C112.865 189.506 101.371 200 100.872 200C100.372 200 87.8792 189.506 86.38 188.007C84.8809 186.508 84.8809 185.508 84.8809 185.508L84.8809 179.082Z" fill="white"/>
<path d="M84.8809 163.731V81.0483C86.8332 81.0974 88.8181 81.0615 90.8357 80.9736C90.8178 82.4583 90.7942 84.3285 90.7665 86.5158L90.7647 86.6611L90.7647 86.6625L90.7646 86.6661C90.5423 104.242 90.0658 141.919 90.2099 164.782C90.0662 164.754 89.921 164.731 89.7743 164.711C88.117 164.461 86.4844 164.134 84.8809 163.731Z" fill="#DCDCDC"/>
<path d="M90.4785 179.353C90.5797 181.659 90.7108 183.12 90.8774 183.509C92.2575 186.73 94.4673 189.753 96.6745 192.772C98.3461 195.059 100.016 197.343 101.323 199.71C101.078 199.897 100.921 200 100.872 200C100.372 200 87.8791 189.506 86.38 188.007C84.8809 186.508 84.8809 185.508 84.8809 185.508V179.082C85.7553 179.25 86.6354 179.4 87.5208 179.533C88.612 179.731 89.5803 179.591 90.4785 179.353Z" fill="#DCDCDC"/>
<path d="M89.4873 179.56C89.5302 180.507 89.5786 181.313 89.6332 181.961C89.6702 182.4 89.711 182.777 89.757 183.082C89.7983 183.355 89.8563 183.664 89.9588 183.903C91.2204 186.847 93.1356 189.605 95.0638 192.26C95.3335 192.631 95.6032 193 95.8718 193.368L95.8725 193.369C97.3618 195.406 98.8144 197.394 100.014 199.432C100.494 199.793 100.801 200 100.872 200C100.921 200 101.078 199.897 101.323 199.71C100.016 197.343 98.3461 195.059 96.6745 192.772C94.4674 189.753 92.2576 186.73 90.8774 183.509C90.7108 183.12 90.5797 181.659 90.4785 179.353C90.1578 179.438 89.8282 179.51 89.4873 179.56Z" fill="#F1F1F1"/>
<path d="M90.2099 164.782C90.0659 141.919 90.5424 104.242 90.7646 86.6658C90.7931 84.414 90.8174 82.4921 90.8357 80.9736C90.5015 80.9882 90.1682 81.0013 89.8358 81.0129C89.8176 82.5204 89.7935 84.4209 89.7654 86.6435L89.7654 86.6445C89.6285 97.4715 89.3949 115.942 89.2695 133.868C89.1918 144.968 89.1556 155.866 89.2094 164.623C89.3974 164.653 89.5857 164.683 89.7743 164.711C89.921 164.731 90.0662 164.754 90.2099 164.782Z" fill="#F1F1F1"/>
<g filter="url(#filter0_d_48_118)">
<path d="M63.9824 23.4031C67.7672 20.2142 71.029 18.7479 74.8018 19.4817C78.7768 -0.8932 99.1945 -0.742722 108.749 0.420267C118.219 1.57284 121.68 5.66302 121.674 20.4413C126.778 18.1263 130.687 19.4232 135.411 23.4031C143.054 29.8427 157.877 45.5986 143.066 63.1777C131.217 77.2411 117.654 77.0526 102.304 75.8819C101.329 75.8075 100.462 75.6002 99.6967 75.2743C98.9315 75.6002 98.0647 75.8075 97.0893 75.8819C81.7398 77.0526 68.1765 77.2411 56.3276 63.1777C41.5165 45.5986 56.3393 29.8427 63.9824 23.4031Z" fill="white"/>
<path d="M74.8197 19.3907C75.1576 20.5093 75.0024 22.579 72.8877 25.5999C69.3897 30.5971 64.3926 40.5913 67.8906 45.0888C71.3886 49.5862 88.8786 61.0796 102.871 53.0842C113.583 46.9628 134.547 44.9422 149.393 47.4709C149.426 52.3766 147.691 57.6883 143.066 63.1778C131.217 77.2411 117.654 77.0526 102.304 75.8819C101.329 75.8075 100.462 75.6003 99.6967 75.2744C98.9315 75.6003 98.0647 75.8075 97.0893 75.8819C81.7398 77.0526 68.1765 77.2411 56.3276 63.1778C41.5165 45.5986 56.3393 29.8427 63.9824 23.4031C67.7672 20.2143 71.029 18.7479 74.8018 19.4817L74.8197 19.3907Z" fill="#DCDCDC"/>
<path d="M75.2499 17.5239L75.3389 18.1846C76.324 19.5347 76.378 22.3565 73.7065 26.173C71.9968 28.6154 69.9236 32.2787 68.7122 35.8525C68.1064 37.6395 67.7316 39.3594 67.703 40.8679C67.6744 42.3771 67.9924 43.5917 68.6795 44.4751C69.4621 45.4813 71.1144 46.974 73.4231 48.5311C75.7152 50.0769 78.5963 51.6469 81.7933 52.8343C88.2073 55.2166 95.7377 56.0089 102.375 52.2164C109.577 48.1006 121.136 45.841 132.383 45.464C138.271 45.2666 144.157 45.5825 149.361 46.4518C149.398 47.1206 149.404 47.7974 149.375 48.4817C144.292 47.603 138.424 47.2615 132.45 47.4618C121.334 47.8343 110.156 50.0721 103.366 53.9518C96.0114 58.1547 87.8009 57.198 81.0973 54.7081C77.7356 53.4594 74.7139 51.8125 72.3055 50.1883C69.9138 48.5753 68.0681 46.9448 67.1017 45.7023C66.0398 44.337 65.6707 42.6158 65.7045 40.83C65.7384 39.0435 66.1756 37.1092 66.8191 35.2108C68.1063 31.4138 70.2807 27.5814 72.069 25.0267C74.6987 21.2699 73.8668 19.5505 73.6951 19.3279C74.0596 19.3579 74.4282 19.409 74.8018 19.4816C74.9335 18.8068 75.0832 18.1545 75.2499 17.5239Z" fill="#F1F1F1"/>
</g>
<path d="M149.607 99.2181C147.071 90.3878 142.363 82.4999 136.113 76.1382C138.351 74.9076 140.542 73.3898 142.686 71.528C149.368 78.6425 154.407 87.3137 157.173 96.9411C165.785 126.924 150.857 158.139 123.478 170.943L120.005 172.568L133.3 180.253L133.303 180.254C135.256 181.393 135.914 183.824 134.839 185.697C134.232 186.679 133.358 187.328 132.437 187.592C131.412 187.887 130.356 187.788 129.341 187.229L106.187 173.924L106.184 173.922C104.225 172.779 103.569 170.336 104.66 168.461L117.979 145.284L117.981 145.28C119.123 143.321 121.567 142.665 123.442 143.756C125.403 144.897 126.061 147.343 124.969 149.219L115.263 166.089L121.119 163.241C144.435 151.899 157.003 124.965 149.607 99.2181Z" fill="white"/>
<path d="M53.8001 69.1625C37.6567 84.6839 30.4219 108.441 37.0302 131.449C43.7967 155.007 63.8272 172.448 88.0636 176.075L88.0986 176.08L88.1334 176.087C88.5829 176.171 89.0378 176.128 89.7563 175.921C91.2583 175.49 92.4178 174.238 92.65 172.668L92.6515 172.659L92.6531 172.649C92.9928 170.502 91.4425 168.457 89.3065 168.18L89.2865 168.177L89.2666 168.174C68.0568 164.983 50.6243 149.799 44.7193 129.24C38.8801 108.91 45.4754 87.8883 59.9632 74.3445C57.866 72.9181 55.8117 71.2073 53.8001 69.1625Z" fill="white"/>
<path d="M72.4093 79.7389C72.5661 80.9166 73.2417 82.0079 74.3391 82.654C75.3966 83.2334 76.5747 83.3635 77.5528 83.0825C78.3792 82.8451 79.2291 82.2032 79.7305 81.2978L79.7446 81.2724L80.0027 80.8366C77.4191 80.6558 74.8881 80.3116 72.4093 79.7389Z" fill="white"/>
</g>
<defs>
<filter id="filter0_d_48_118" x="46" y="0" width="107.393" height="84.3724" filterUnits="userSpaceOnUse" color-interpolation-filters="sRGB">
<feFlood flood-opacity="0" result="BackgroundImageFix"/>
<feColorMatrix in="SourceAlpha" type="matrix" values="0 0 0 0 0 0 0 0 0 0 0 0 0 0 0 0 0 0 127 0" result="hardAlpha"/>
<feOffset dy="4"/>
<feGaussianBlur stdDeviation="2"/>
<feComposite in2="hardAlpha" operator="out"/>
<feColorMatrix type="matrix" values="0 0 0 0 0 0 0 0 0 0 0 0 0 0 0 0 0 0 0.25 0"/>
<feBlend mode="normal" in2="BackgroundImageFix" result="effect1_dropShadow_48_118"/>
<feBlend mode="normal" in="SourceGraphic" in2="effect1_dropShadow_48_118" result="shape"/>
</filter>
<clipPath id="clip0_48_118">
<rect width="200" height="200" fill="white"/>
</clipPath>
</defs>
</svg>
