<svg width="200" height="200" viewBox="0 0 200 200" fill="none" xmlns="http://www.w3.org/2000/svg">
<g clip-path="url(#clip0_48_118)">
<g filter="url(#filter0_d_48_118)">
<path d="M150.264 99.2572C147.855 90.8684 143.382 83.3749 137.445 77.3313C139.571 76.1622 141.652 74.7203 143.689 72.9515C150.037 79.7104 154.824 87.948 157.451 97.094C165.633 125.578 151.452 155.232 125.442 167.396L122.142 168.939L134.772 176.24L134.775 176.242C136.63 177.323 137.256 179.633 136.234 181.412C135.657 182.345 134.827 182.962 133.952 183.213C132.979 183.492 131.976 183.398 131.011 182.868L109.015 170.228L109.012 170.226C107.151 169.14 106.528 166.819 107.564 165.038L120.217 143.019L120.219 143.016C121.305 141.155 123.626 140.532 125.407 141.568C127.27 142.652 127.895 144.976 126.858 146.758L117.637 162.785L123.2 160.079C145.35 149.304 157.29 123.717 150.264 99.2572Z" fill="white"/>
</g>
<g filter="url(#filter1_d_48_118)">
<path d="M59.2473 70.7043C43.911 85.4497 37.038 108.019 43.3159 129.876C49.7441 152.257 68.773 168.825 91.7976 172.271L91.8309 172.276L91.8639 172.283C92.291 172.362 92.7231 172.321 93.4057 172.125C94.8326 171.715 95.9341 170.526 96.1547 169.035L96.1561 169.026L96.1576 169.016C96.4803 166.977 95.0076 165.034 92.9783 164.771L92.9594 164.768L92.9405 164.765C72.7912 161.734 56.2303 147.309 50.6205 127.778C45.0733 108.465 51.3389 88.4939 65.1022 75.6272C63.1099 74.2722 61.1583 72.6469 59.2473 70.7043Z" fill="white"/>
<path d="M76.926 80.752C77.075 81.8707 77.7168 82.9075 78.7593 83.5213C79.764 84.0718 80.8832 84.1953 81.8124 83.9284C82.5975 83.7029 83.4049 83.0931 83.8812 82.2329L83.8945 82.2088L84.1397 81.7948C81.6854 81.623 79.2809 81.2961 76.926 80.752Z" fill="white"/>
</g>
<g filter="url(#filter2_d_48_118)">
<path d="M88.774 175.128C89.6047 175.287 90.4408 175.43 91.282 175.556C92.4132 175.761 93.4054 175.585 94.3236 175.321C96.9306 174.572 99.0183 172.378 99.4428 169.529C100.055 165.633 97.2829 161.986 93.4228 161.476C91.8483 161.238 90.2974 160.927 88.774 160.544V81.9958C92.5138 82.09 96.3793 81.8554 100.372 81.5509C101.299 81.4802 102.122 81.2833 102.849 80.9738C103.576 81.2833 104.4 81.4802 105.326 81.5509C109.777 81.8904 114.07 82.1429 118.207 81.95L118.207 128.063C118.207 128.063 118.207 129.013 117.732 130.437C117.446 131.296 116.297 131.809 115.221 132.29C114.513 132.606 113.837 132.908 113.46 133.285C112.51 134.235 112.51 137.083 113.46 138.033C113.706 138.279 114.278 138.581 114.924 138.922C115.761 139.363 116.722 139.87 117.258 140.406C117.412 140.56 117.541 140.715 117.649 140.865C117.543 141.018 117.443 141.177 117.347 141.341L117.342 141.349L104.69 163.366L104.688 163.37L104.686 163.373C102.697 166.801 103.957 171.127 107.337 173.098L107.348 173.105L118.207 179.345V181.233C118.207 181.233 118.207 182.182 116.783 183.607C115.359 185.031 104.44 195 103.965 195C103.491 195 91.6224 185.031 90.1982 183.607C88.774 182.182 88.774 181.233 88.774 181.233L88.774 175.128Z" fill="white"/>
</g>
<path d="M88.774 160.544V81.9958C90.6287 82.0425 92.5143 82.0084 94.4311 81.9249C94.4141 83.3353 94.3917 85.1121 94.3654 87.19L94.3636 87.328L94.3636 87.3294L94.3636 87.3328C94.1524 104.03 93.6997 139.823 93.8365 161.543C93.7001 161.517 93.5621 161.494 93.4227 161.476C91.8483 161.238 90.2974 160.927 88.774 160.544Z" fill="#DCDCDC"/>
<path d="M94.0917 175.385C94.1879 177.576 94.3124 178.964 94.4707 179.334C95.7818 182.393 97.8812 185.265 99.978 188.133C101.566 190.306 103.153 192.476 104.394 194.725C104.162 194.902 104.012 195 103.965 195C103.491 195 91.6224 185.031 90.1982 183.606C88.774 182.182 88.774 181.233 88.774 181.233V175.128C89.6047 175.287 90.4408 175.43 91.282 175.556C92.3186 175.744 93.2385 175.612 94.0917 175.385Z" fill="#DCDCDC"/>
<path d="M93.1501 175.582C93.1908 176.481 93.2368 177.248 93.2887 177.863C93.3239 178.28 93.3627 178.638 93.4063 178.927C93.4456 179.187 93.5007 179.481 93.5981 179.708C94.7966 182.504 96.616 185.124 98.4478 187.647C98.704 187.999 98.9602 188.35 99.2154 188.699L99.2161 188.7C100.631 190.636 102.011 192.524 103.15 194.46C103.607 194.803 103.899 195 103.965 195C104.012 195 104.162 194.902 104.394 194.725C103.153 192.476 101.566 190.306 99.978 188.133C97.8812 185.265 95.7819 182.393 94.4708 179.334C94.3124 178.964 94.1879 177.576 94.0918 175.385C93.7871 175.466 93.474 175.535 93.1501 175.582Z" fill="#F1F1F1"/>
<path d="M93.8366 161.543C93.6997 139.823 94.1524 104.03 94.3636 87.3325C94.3907 85.1932 94.4138 83.3675 94.4311 81.9249C94.1136 81.9387 93.797 81.9512 93.4811 81.9622C93.4639 83.3943 93.441 85.1999 93.4143 87.3113L93.4143 87.3123C93.2842 97.5979 93.0623 115.145 92.9432 132.174C92.8694 142.719 92.835 153.073 92.8861 161.392C93.0647 161.421 93.2436 161.449 93.4227 161.476C93.5621 161.494 93.7001 161.517 93.8366 161.543Z" fill="#F1F1F1"/>
<g filter="url(#filter3_d_48_118)">
<path d="M68.9205 27.2329C72.516 24.2035 75.6148 22.8105 79.1989 23.5076C82.9752 4.15146 102.372 4.29441 111.449 5.39925C120.445 6.4942 123.733 10.3799 123.727 24.4192C128.576 22.22 132.29 23.452 136.778 27.2329C144.039 33.3505 158.12 48.3186 144.05 65.0188C132.793 78.379 119.908 78.1999 105.326 77.0878C104.399 77.0171 103.576 76.8202 102.849 76.5106C102.122 76.8202 101.299 77.0171 100.372 77.0878C85.79 78.1999 72.9048 78.379 61.6484 65.0188C47.5779 48.3186 61.6595 33.3505 68.9205 27.2329Z" fill="white"/>
<path d="M79.2159 23.4211C79.5369 24.4838 79.3894 26.45 77.3805 29.3199C74.0574 34.0671 69.3102 43.5617 72.6333 47.8343C75.9563 52.1068 92.5718 63.0256 105.864 55.4299C116.041 49.6146 135.957 47.695 150.06 50.0973C150.092 54.7577 148.444 59.8038 144.05 65.0189C132.793 78.379 119.908 78.1999 105.326 77.0878C104.399 77.0171 103.576 76.8202 102.849 76.5106C102.122 76.8202 101.299 77.0171 100.372 77.0878C85.79 78.1999 72.9048 78.379 61.6484 65.0189C47.5779 48.3187 61.6595 33.3505 68.9205 27.2329C72.516 24.2035 75.6148 22.8105 79.1989 23.5076L79.2159 23.4211Z" fill="#DCDCDC"/>
<path d="M79.6246 21.6477L79.7091 22.2754C80.645 23.558 80.6963 26.2387 78.1584 29.8643C76.5341 32.1846 74.5646 35.6647 73.4138 39.0599C72.8383 40.7575 72.4822 42.3914 72.4551 43.8244C72.4279 45.2582 72.73 46.4121 73.3827 47.2513C74.1262 48.2072 75.6959 49.6253 77.8892 51.1045C80.0666 52.573 82.8037 54.0645 85.8408 55.1926C91.9341 57.4558 99.088 58.2085 105.393 54.6055C112.236 50.6956 123.217 48.5489 133.901 48.1908C139.495 48.0033 145.087 48.3034 150.03 49.1292C150.066 49.7645 150.071 50.4075 150.043 51.0575C145.214 50.2228 139.64 49.8984 133.964 50.0886C123.404 50.4426 112.785 52.5685 106.335 56.2542C99.3481 60.2469 91.548 59.338 85.1797 56.9727C81.986 55.7864 79.1154 54.2219 76.8274 52.6788C74.5553 51.1465 72.8019 49.5975 71.8838 48.4171C70.875 47.1201 70.5243 45.4849 70.5565 43.7884C70.5887 42.0913 71.004 40.2537 71.6154 38.4502C72.8381 34.8431 74.9038 31.2023 76.6027 28.7753C79.101 25.2064 78.3107 23.573 78.1475 23.3615C78.4938 23.39 78.844 23.4385 79.1989 23.5075C79.324 22.8664 79.4662 22.2467 79.6246 21.6477Z" fill="#F1F1F1"/>
</g>
</g>
<defs>
<filter id="filter0_d_48_118" x="103.065" y="72.9515" width="60.7001" height="118.415" filterUnits="userSpaceOnUse" color-interpolation-filters="sRGB">
<feFlood flood-opacity="0" result="BackgroundImageFix"/>
<feColorMatrix in="SourceAlpha" type="matrix" values="0 0 0 0 0 0 0 0 0 0 0 0 0 0 0 0 0 0 127 0" result="hardAlpha"/>
<feOffset dy="4"/>
<feGaussianBlur stdDeviation="2"/>
<feComposite in2="hardAlpha" operator="out"/>
<feColorMatrix type="matrix" values="0 0 0 0 0 0 0 0 0 0 0 0 0 0 0 0 0 0 0.25 0"/>
<feBlend mode="normal" in2="BackgroundImageFix" result="effect1_dropShadow_48_118"/>
<feBlend mode="normal" in="SourceGraphic" in2="effect1_dropShadow_48_118" result="shape"/>
</filter>
<filter id="filter1_d_48_118" x="35" y="68.7043" width="67.2021" height="113.616" filterUnits="userSpaceOnUse" color-interpolation-filters="sRGB">
<feFlood flood-opacity="0" result="BackgroundImageFix"/>
<feColorMatrix in="SourceAlpha" type="matrix" values="0 0 0 0 0 0 0 0 0 0 0 0 0 0 0 0 0 0 127 0" result="hardAlpha"/>
<feOffset dy="4"/>
<feGaussianBlur stdDeviation="3"/>
<feComposite in2="hardAlpha" operator="out"/>
<feColorMatrix type="matrix" values="0 0 0 0 0 0 0 0 0 0 0 0 0 0 0 0 0 0 0.25 0"/>
<feBlend mode="normal" in2="BackgroundImageFix" result="effect1_dropShadow_48_118"/>
<feBlend mode="normal" in="SourceGraphic" in2="effect1_dropShadow_48_118" result="shape"/>
</filter>
<filter id="filter2_d_48_118" x="84.774" y="80.9738" width="37.4332" height="122.026" filterUnits="userSpaceOnUse" color-interpolation-filters="sRGB">
<feFlood flood-opacity="0" result="BackgroundImageFix"/>
<feColorMatrix in="SourceAlpha" type="matrix" values="0 0 0 0 0 0 0 0 0 0 0 0 0 0 0 0 0 0 127 0" result="hardAlpha"/>
<feOffset dy="4"/>
<feGaussianBlur stdDeviation="2"/>
<feComposite in2="hardAlpha" operator="out"/>
<feColorMatrix type="matrix" values="0 0 0 0 0 0 0 0 0 0 0 0 0 0 0 0 0 0 0.25 0"/>
<feBlend mode="normal" in2="BackgroundImageFix" result="effect1_dropShadow_48_118"/>
<feBlend mode="normal" in="SourceGraphic" in2="effect1_dropShadow_48_118" result="shape"/>
</filter>
<filter id="filter3_d_48_118" x="51.6372" y="5" width="102.424" height="80.5537" filterUnits="userSpaceOnUse" color-interpolation-filters="sRGB">
<feFlood flood-opacity="0" result="BackgroundImageFix"/>
<feColorMatrix in="SourceAlpha" type="matrix" values="0 0 0 0 0 0 0 0 0 0 0 0 0 0 0 0 0 0 127 0" result="hardAlpha"/>
<feOffset dy="4"/>
<feGaussianBlur stdDeviation="2"/>
<feComposite in2="hardAlpha" operator="out"/>
<feColorMatrix type="matrix" values="0 0 0 0 0 0 0 0 0 0 0 0 0 0 0 0 0 0 0.25 0"/>
<feBlend mode="normal" in2="BackgroundImageFix" result="effect1_dropShadow_48_118"/>
<feBlend mode="normal" in="SourceGraphic" in2="effect1_dropShadow_48_118" result="shape"/>
</filter>
<clipPath id="clip0_48_118">
<rect width="200" height="200" fill="white"/>
</clipPath>
</defs>
</svg>
