<svg width="459" height="88" viewBox="0 0 459 88" fill="none" xmlns="http://www.w3.org/2000/svg">
<g filter="url(#filter0_d_49_529)">
<path d="M27.52 20.16C34.24 20.16 39.28 23.1 42.64 28.98C43.6 30.78 43.6 32.52 42.64 34.2C41.68 35.76 40.12 36.4801 37.96 36.3601C36.28 36.12 34.96 35.1 34 33.3C33.28 31.62 32.2 30.6 30.76 30.24C30.04 30 28.96 29.88 27.52 29.88C24.52 29.88 22.48 30.72 21.4 32.4C21.28 32.64 21.1 32.94 20.86 33.3C20.26 34.62 19.9 36 19.78 37.44V58.14C19.78 59.94 19.06 61.32 17.62 62.28C15.94 63.24 14.32 63.24 12.76 62.28C11.2 61.32 10.42 59.94 10.42 58.14V37.44C11.02 29.16 14.68 23.82 21.4 21.42C23.32 20.58 25.36 20.16 27.52 20.16Z" fill="white"/>
<path d="M79.5667 53.1C83.7667 53.1 86.4067 52.7401 87.4867 52.0201C88.9267 50.8201 90.5467 50.52 92.3467 51.12C93.9067 51.84 94.8067 53.16 95.0467 55.08C95.4067 56.88 94.8067 58.32 93.2467 59.4C91.5667 60.84 89.4667 61.86 86.9467 62.46C85.1467 62.82 82.1467 62.94 77.9467 62.82C74.9467 62.82 72.0067 61.8 69.1267 59.76C63.8467 55.92 61.0267 50.1 60.6667 42.3C60.5467 41.7 60.5467 41.04 60.6667 40.32C61.0267 32.16 63.8467 26.34 69.1267 22.86C72.0067 20.82 75.3067 19.8 79.0267 19.8C81.7867 19.8 84.2467 20.4 86.4067 21.6C92.1667 25.2 95.0467 31.2 95.0467 39.6V41.4C95.0467 42 94.9267 42.6 94.6867 43.2C93.9667 45.12 92.5267 46.08 90.3667 46.08H70.7467C71.5867 50.16 73.9867 52.5 77.9467 53.1H79.5667ZM78.8467 29.52H77.9467C76.8667 29.52 75.6667 29.88 74.3467 30.6C72.4267 31.92 71.2267 33.9 70.7467 36.5401H85.5067V36.18C85.0267 33.18 83.8267 31.2 81.9067 30.24C81.0667 29.76 80.0467 29.52 78.8467 29.52Z" fill="white"/>
<path d="M138.222 3.60005L140.742 3.96005C142.542 4.44005 143.742 5.58005 144.342 7.38005C144.822 9.30005 144.342 10.92 142.902 12.24C141.582 13.56 140.022 13.92 138.222 13.32L135.162 12.96C134.082 12.96 133.242 13.32 132.642 14.04C132.042 14.64 131.742 15.84 131.742 17.64V22.14H139.482C141.282 22.02 142.662 22.8 143.622 24.48C144.582 26.16 144.582 27.72 143.622 29.16C142.662 30.84 141.282 31.68 139.482 31.68H131.742V58.32C131.742 60.24 131.022 61.68 129.582 62.64C127.902 63.6 126.222 63.6 124.542 62.64C122.982 61.68 122.202 60.24 122.202 58.32V31.68H121.122C119.202 31.68 117.762 30.84 116.802 29.16C115.962 27.72 115.962 26.16 116.802 24.48C117.762 22.8 119.202 22.02 121.122 22.14H122.202V17.64C122.202 13.56 123.222 10.32 125.262 7.92004C126.942 5.76005 129.282 4.38005 132.282 3.78004C134.202 3.42005 136.182 3.36005 138.222 3.60005Z" fill="white"/>
<path d="M182.83 20.16C189.43 20.16 194.41 23.1 197.77 28.98C198.73 30.78 198.73 32.52 197.77 34.2C196.69 35.76 195.19 36.4801 193.27 36.3601C191.35 36.12 190.03 35.1 189.31 33.3C188.47 31.62 187.39 30.6 186.07 30.24C185.11 30 184.03 29.88 182.83 29.88C179.71 29.88 177.61 30.72 176.53 32.4C176.41 32.64 176.23 32.94 175.99 33.3C175.39 34.62 175.03 36 174.91 37.44V58.14C174.91 59.94 174.19 61.32 172.75 62.28C171.07 63.24 169.45 63.24 167.89 62.28C166.33 61.32 165.55 59.94 165.55 58.14V37.44C166.15 29.16 169.81 23.82 176.53 21.42C178.45 20.58 180.55 20.16 182.83 20.16Z" fill="white"/>
<path d="M237.928 53.1C242.128 53.1 244.768 52.7401 245.848 52.0201C247.288 50.8201 248.908 50.52 250.708 51.12C252.268 51.84 253.168 53.16 253.408 55.08C253.768 56.88 253.168 58.32 251.608 59.4C249.928 60.84 247.828 61.86 245.308 62.46C243.508 62.82 240.508 62.94 236.308 62.82C233.308 62.82 230.368 61.8 227.488 59.76C222.208 55.92 219.388 50.1 219.028 42.3C218.908 41.7 218.908 41.04 219.028 40.32C219.388 32.16 222.208 26.34 227.488 22.86C230.368 20.82 233.668 19.8 237.388 19.8C240.148 19.8 242.608 20.4 244.768 21.6C250.528 25.2 253.408 31.2 253.408 39.6V41.4C253.408 42 253.288 42.6 253.048 43.2C252.328 45.12 250.888 46.08 248.728 46.08H229.108C229.948 50.16 232.348 52.5 236.308 53.1H237.928ZM237.208 29.52H236.308C235.228 29.52 234.028 29.88 232.708 30.6C230.788 31.92 229.588 33.9 229.108 36.5401H243.868V36.18C243.388 33.18 242.188 31.2 240.268 30.24C239.428 29.76 238.408 29.52 237.208 29.52Z" fill="white"/>
<path d="M288.843 19.98C292.323 19.98 295.323 20.64 297.843 21.96C301.923 24.24 303.663 26.82 303.063 29.7C302.823 31.5 301.683 32.7 299.643 33.3C297.843 33.78 296.343 33.36 295.143 32.04C293.463 29.52 290.763 28.5 287.043 28.98C286.803 28.98 286.623 29.04 286.503 29.16C284.463 29.4 283.083 30.42 282.363 32.22C282.003 33.18 282.123 34.2 282.723 35.28C284.163 36.24 286.503 36.66 289.743 36.5401C291.663 36.5401 293.103 36.66 294.063 36.9C297.903 37.26 301.023 39.18 303.423 42.66C304.983 44.82 305.703 47.16 305.583 49.68C305.703 53.52 304.143 56.7001 300.903 59.2201C299.583 60.1801 298.203 60.9001 296.763 61.3801C290.403 63.4201 284.763 63.4201 279.843 61.3801C275.883 59.4601 273.543 57.1801 272.823 54.5401C272.343 52.5001 273.123 50.88 275.163 49.68C277.083 48.48 278.823 48.54 280.383 49.86C280.623 49.98 280.803 50.1001 280.923 50.2201C282.963 52.8601 286.563 53.76 291.723 52.92C293.763 52.8 295.143 52.02 295.863 50.58C296.343 49.74 296.343 48.84 295.863 47.88C294.783 46.68 292.863 46.08 290.103 46.08C284.103 46.32 279.723 45.12 276.963 42.48C273.963 39.96 272.583 36.66 272.823 32.58C272.823 29.94 273.603 27.6 275.163 25.56C277.923 21.72 282.363 19.86 288.483 19.98H288.843Z" fill="white"/>
<path d="M326.469 57.96V8.28005C326.469 6.36005 327.309 4.86005 328.989 3.78004C329.709 3.54004 330.429 3.42004 331.149 3.42004C332.589 3.42004 333.729 3.84005 334.569 4.68005C335.529 5.64005 336.009 6.84005 336.009 8.28005V21.96C338.529 20.76 341.049 20.16 343.569 20.16C349.449 20.16 353.949 22.26 357.069 26.46C359.709 29.7 360.969 33.3 360.849 37.26V57.96C360.969 59.88 360.189 61.32 358.509 62.28C356.829 63.12 355.269 63.12 353.829 62.28C352.149 61.32 351.309 59.88 351.309 57.96V37.26C350.829 33.18 349.389 30.78 346.989 30.06C346.149 29.7 345.009 29.52 343.569 29.52C340.569 29.52 338.589 30.48 337.629 32.4C336.669 34.32 336.129 35.94 336.009 37.26V57.96C336.009 60.36 334.869 61.92 332.589 62.64C330.669 63.12 328.989 62.6401 327.549 61.2001C326.829 60.3601 326.469 59.28 326.469 57.96Z" fill="white"/>
<path d="M392.308 9.00005V58.32C392.308 58.92 392.188 59.52 391.948 60.12C391.108 61.92 389.668 62.82 387.628 62.82C386.908 62.82 386.248 62.7 385.648 62.46C383.848 61.62 382.948 60.24 382.948 58.32V9.00005C382.948 8.16005 383.068 7.44005 383.308 6.84005C384.268 5.04005 385.708 4.14005 387.628 4.14005C388.348 4.14005 388.948 4.26005 389.428 4.50005C391.348 5.34005 392.308 6.84005 392.308 9.00005Z" fill="white"/>
<path d="M448.841 25.02V60.3C448.841 67.5 447.281 72.6001 444.161 75.6001C441.641 78.2401 437.501 79.5601 431.741 79.5601C426.221 80.2801 421.181 79.2601 416.621 76.5001C415.061 75.5401 414.281 74.16 414.281 72.36C414.281 70.44 415.121 69.06 416.801 68.22C418.361 67.26 419.921 67.32 421.481 68.4C423.401 69.48 426.641 70.0201 431.201 70.0201H431.561C434.681 70.0201 436.661 69.6 437.501 68.76C438.581 67.8 439.121 65.2801 439.121 61.2001C435.761 62.8801 432.161 63.36 428.321 62.64C420.641 60.6 416.081 55.08 414.641 46.08C414.401 44.64 414.281 43.14 414.281 41.58V25.02C414.281 22.86 415.241 21.36 417.161 20.52C417.641 20.28 418.241 20.16 418.961 20.16C420.401 20.16 421.601 20.64 422.561 21.6C423.521 22.56 424.001 23.7 424.001 25.02V41.58C424.001 46.74 425.321 50.2801 427.961 52.2001C429.161 53.0401 430.361 53.46 431.561 53.46C433.121 53.34 434.441 52.9201 435.521 52.2001C437.201 51.4801 438.281 50.52 438.761 49.32C439.001 48.36 439.121 47.1601 439.121 45.7201V25.02C439.121 23.22 439.961 21.78 441.641 20.7C443.321 19.86 444.881 19.86 446.321 20.7C448.001 21.78 448.841 23.22 448.841 25.02Z" fill="white"/>
</g>
<defs>
<filter id="filter0_d_49_529" x="6.42" y="3.42004" width="446.421" height="84.3634" filterUnits="userSpaceOnUse" color-interpolation-filters="sRGB">
<feFlood flood-opacity="0" result="BackgroundImageFix"/>
<feColorMatrix in="SourceAlpha" type="matrix" values="0 0 0 0 0 0 0 0 0 0 0 0 0 0 0 0 0 0 127 0" result="hardAlpha"/>
<feOffset dy="4"/>
<feGaussianBlur stdDeviation="2"/>
<feComposite in2="hardAlpha" operator="out"/>
<feColorMatrix type="matrix" values="0 0 0 0 0 0 0 0 0 0 0 0 0 0 0 0 0 0 0.25 0"/>
<feBlend mode="normal" in2="BackgroundImageFix" result="effect1_dropShadow_49_529"/>
<feBlend mode="normal" in="SourceGraphic" in2="effect1_dropShadow_49_529" result="shape"/>
</filter>
</defs>
</svg>
