<svg width="445" height="80" viewBox="0 0 445 80" fill="none" xmlns="http://www.w3.org/2000/svg">
<path d="M20.52 20.16C27.24 20.16 32.28 23.1 35.64 28.98C36.6 30.78 36.6 32.52 35.64 34.2C34.68 35.76 33.12 36.4801 30.96 36.3601C29.28 36.12 27.96 35.1 27 33.3C26.28 31.62 25.2 30.6 23.76 30.24C23.04 30 21.96 29.88 20.52 29.88C17.52 29.88 15.48 30.72 14.4 32.4C14.28 32.64 14.1 32.94 13.86 33.3C13.26 34.62 12.9 36 12.78 37.44V58.14C12.78 59.94 12.06 61.32 10.62 62.28C8.94 63.24 7.32 63.24 5.76 62.28C4.2 61.32 3.42 59.94 3.42 58.14V37.44C4.02 29.16 7.68 23.82 14.4 21.42C16.32 20.58 18.36 20.16 20.52 20.16Z" fill="white"/>
<path d="M72.5667 53.1C76.7667 53.1 79.4067 52.7401 80.4867 52.0201C81.9267 50.8201 83.5467 50.52 85.3467 51.12C86.9067 51.84 87.8067 53.16 88.0467 55.08C88.4067 56.88 87.8067 58.32 86.2467 59.4C84.5667 60.84 82.4667 61.86 79.9467 62.46C78.1467 62.82 75.1467 62.94 70.9467 62.82C67.9467 62.82 65.0067 61.8 62.1267 59.76C56.8467 55.92 54.0267 50.1 53.6667 42.3C53.5467 41.7 53.5467 41.04 53.6667 40.32C54.0267 32.16 56.8467 26.34 62.1267 22.86C65.0067 20.82 68.3067 19.8 72.0267 19.8C74.7867 19.8 77.2467 20.4 79.4067 21.6C85.1667 25.2 88.0467 31.2 88.0467 39.6V41.4C88.0467 42 87.9267 42.6 87.6867 43.2C86.9667 45.12 85.5267 46.08 83.3667 46.08H63.7467C64.5867 50.16 66.9867 52.5 70.9467 53.1H72.5667ZM71.8467 29.52H70.9467C69.8667 29.52 68.6667 29.88 67.3467 30.6C65.4267 31.92 64.2267 33.9 63.7467 36.5401H78.5067V36.18C78.0267 33.18 76.8267 31.2 74.9067 30.24C74.0667 29.76 73.0467 29.52 71.8467 29.52Z" fill="white"/>
<path d="M131.222 3.60005L133.742 3.96005C135.542 4.44005 136.742 5.58005 137.342 7.38005C137.822 9.30005 137.342 10.92 135.902 12.24C134.582 13.56 133.022 13.92 131.222 13.32L128.162 12.96C127.082 12.96 126.242 13.32 125.642 14.04C125.042 14.64 124.742 15.84 124.742 17.64V22.14H132.482C134.282 22.02 135.662 22.8 136.622 24.48C137.582 26.16 137.582 27.72 136.622 29.16C135.662 30.84 134.282 31.68 132.482 31.68H124.742V58.32C124.742 60.24 124.022 61.68 122.582 62.64C120.902 63.6 119.222 63.6 117.542 62.64C115.982 61.68 115.202 60.24 115.202 58.32V31.68H114.122C112.202 31.68 110.762 30.84 109.802 29.16C108.962 27.72 108.962 26.16 109.802 24.48C110.762 22.8 112.202 22.02 114.122 22.14H115.202V17.64C115.202 13.56 116.222 10.32 118.262 7.92004C119.942 5.76005 122.282 4.38005 125.282 3.78004C127.202 3.42005 129.182 3.36005 131.222 3.60005Z" fill="white"/>
<path d="M175.83 20.16C182.43 20.16 187.41 23.1 190.77 28.98C191.73 30.78 191.73 32.52 190.77 34.2C189.69 35.76 188.19 36.4801 186.27 36.3601C184.35 36.12 183.03 35.1 182.31 33.3C181.47 31.62 180.39 30.6 179.07 30.24C178.11 30 177.03 29.88 175.83 29.88C172.71 29.88 170.61 30.72 169.53 32.4C169.41 32.64 169.23 32.94 168.99 33.3C168.39 34.62 168.03 36 167.91 37.44V58.14C167.91 59.94 167.19 61.32 165.75 62.28C164.07 63.24 162.45 63.24 160.89 62.28C159.33 61.32 158.55 59.94 158.55 58.14V37.44C159.15 29.16 162.81 23.82 169.53 21.42C171.45 20.58 173.55 20.16 175.83 20.16Z" fill="white"/>
<path d="M230.928 53.1C235.128 53.1 237.768 52.7401 238.848 52.0201C240.288 50.8201 241.908 50.52 243.708 51.12C245.268 51.84 246.168 53.16 246.408 55.08C246.768 56.88 246.168 58.32 244.608 59.4C242.928 60.84 240.828 61.86 238.308 62.46C236.508 62.82 233.508 62.94 229.308 62.82C226.308 62.82 223.368 61.8 220.488 59.76C215.208 55.92 212.388 50.1 212.028 42.3C211.908 41.7 211.908 41.04 212.028 40.32C212.388 32.16 215.208 26.34 220.488 22.86C223.368 20.82 226.668 19.8 230.388 19.8C233.148 19.8 235.608 20.4 237.768 21.6C243.528 25.2 246.408 31.2 246.408 39.6V41.4C246.408 42 246.288 42.6 246.048 43.2C245.328 45.12 243.888 46.08 241.728 46.08H222.108C222.948 50.16 225.348 52.5 229.308 53.1H230.928ZM230.208 29.52H229.308C228.228 29.52 227.028 29.88 225.708 30.6C223.788 31.92 222.588 33.9 222.108 36.5401H236.868V36.18C236.388 33.18 235.188 31.2 233.268 30.24C232.428 29.76 231.408 29.52 230.208 29.52Z" fill="white"/>
<path d="M281.843 19.98C285.323 19.98 288.323 20.64 290.843 21.96C294.923 24.24 296.663 26.82 296.063 29.7C295.823 31.5 294.683 32.7 292.643 33.3C290.843 33.78 289.343 33.36 288.143 32.04C286.463 29.52 283.763 28.5 280.043 28.98C279.803 28.98 279.623 29.04 279.503 29.16C277.463 29.4 276.083 30.42 275.363 32.22C275.003 33.18 275.123 34.2 275.723 35.28C277.163 36.24 279.503 36.66 282.743 36.5401C284.663 36.5401 286.103 36.66 287.063 36.9C290.903 37.26 294.023 39.18 296.423 42.66C297.983 44.82 298.703 47.16 298.583 49.68C298.703 53.52 297.143 56.7001 293.903 59.2201C292.583 60.1801 291.203 60.9001 289.763 61.3801C283.403 63.4201 277.763 63.4201 272.843 61.3801C268.883 59.4601 266.543 57.1801 265.823 54.5401C265.343 52.5001 266.123 50.88 268.163 49.68C270.083 48.48 271.823 48.54 273.383 49.86C273.623 49.98 273.803 50.1001 273.923 50.2201C275.963 52.8601 279.563 53.76 284.723 52.92C286.763 52.8 288.143 52.02 288.863 50.58C289.343 49.74 289.343 48.84 288.863 47.88C287.783 46.68 285.863 46.08 283.103 46.08C277.103 46.32 272.723 45.12 269.963 42.48C266.963 39.96 265.583 36.66 265.823 32.58C265.823 29.94 266.603 27.6 268.163 25.56C270.923 21.72 275.363 19.86 281.483 19.98H281.843Z" fill="white"/>
<path d="M319.469 57.96V8.28005C319.469 6.36005 320.309 4.86005 321.989 3.78004C322.709 3.54004 323.429 3.42004 324.149 3.42004C325.589 3.42004 326.729 3.84005 327.569 4.68005C328.529 5.64005 329.009 6.84005 329.009 8.28005V21.96C331.529 20.76 334.049 20.16 336.569 20.16C342.449 20.16 346.949 22.26 350.069 26.46C352.709 29.7 353.969 33.3 353.849 37.26V57.96C353.969 59.88 353.189 61.32 351.509 62.28C349.829 63.12 348.269 63.12 346.829 62.28C345.149 61.32 344.309 59.88 344.309 57.96V37.26C343.829 33.18 342.389 30.78 339.989 30.06C339.149 29.7 338.009 29.52 336.569 29.52C333.569 29.52 331.589 30.48 330.629 32.4C329.669 34.32 329.129 35.94 329.009 37.26V57.96C329.009 60.36 327.869 61.92 325.589 62.64C323.669 63.12 321.989 62.6401 320.549 61.2001C319.829 60.3601 319.469 59.28 319.469 57.96Z" fill="white"/>
<path d="M385.308 9.00005V58.32C385.308 58.92 385.188 59.52 384.948 60.12C384.108 61.92 382.668 62.82 380.628 62.82C379.908 62.82 379.248 62.7 378.648 62.46C376.848 61.62 375.948 60.24 375.948 58.32V9.00005C375.948 8.16005 376.068 7.44005 376.308 6.84005C377.268 5.04005 378.708 4.14005 380.628 4.14005C381.348 4.14005 381.948 4.26005 382.428 4.50005C384.348 5.34005 385.308 6.84005 385.308 9.00005Z" fill="white"/>
<path d="M441.841 25.02V60.3C441.841 67.5 440.281 72.6001 437.161 75.6001C434.641 78.2401 430.501 79.5601 424.741 79.5601C419.221 80.2801 414.181 79.2601 409.621 76.5001C408.061 75.5401 407.281 74.16 407.281 72.36C407.281 70.44 408.121 69.06 409.801 68.22C411.361 67.26 412.921 67.32 414.481 68.4C416.401 69.48 419.641 70.0201 424.201 70.0201H424.561C427.681 70.0201 429.661 69.6 430.501 68.76C431.581 67.8 432.121 65.2801 432.121 61.2001C428.761 62.8801 425.161 63.36 421.321 62.64C413.641 60.6 409.081 55.08 407.641 46.08C407.401 44.64 407.281 43.14 407.281 41.58V25.02C407.281 22.86 408.241 21.36 410.161 20.52C410.641 20.28 411.241 20.16 411.961 20.16C413.401 20.16 414.601 20.64 415.561 21.6C416.521 22.56 417.001 23.7 417.001 25.02V41.58C417.001 46.74 418.321 50.2801 420.961 52.2001C422.161 53.0401 423.361 53.46 424.561 53.46C426.121 53.34 427.441 52.9201 428.521 52.2001C430.201 51.4801 431.281 50.52 431.761 49.32C432.001 48.36 432.121 47.1601 432.121 45.7201V25.02C432.121 23.22 432.961 21.78 434.641 20.7C436.321 19.86 437.881 19.86 439.321 20.7C441.001 21.78 441.841 23.22 441.841 25.02Z" fill="white"/>
</svg>
