<svg width="180" height="85" viewBox="0 0 180 85" fill="none" xmlns="http://www.w3.org/2000/svg">
<g clip-path="url(#clip0_3_2)">
<g filter="url(#filter0_f_3_2)">
<path d="M21.7213 43.48C21.8066 44.2053 21.4866 44.824 20.7613 45.336C20.0786 45.848 19.1613 46.104 18.0093 46.104C16.9426 46.104 15.7479 45.912 14.4253 45.528C13.1453 45.1013 12.1426 44.3547 11.4173 43.288C11.0333 42.0507 10.7346 40.92 10.5213 39.896C10.3506 38.8293 10.3719 37.6987 10.5853 36.504C10.7133 35.7787 10.9053 34.9893 11.1613 34.136C11.4599 33.24 11.8439 32.2373 12.3133 31.128C13.7639 27.7147 15.8759 24.728 18.6493 22.168C21.4653 19.608 24.6866 17.4107 28.3133 15.576C31.9399 13.7413 35.8439 12.2053 40.0253 10.968C44.2066 9.73066 48.4093 8.70666 52.6333 7.896C56.8573 7.08533 60.9746 6.44533 64.9853 5.976C69.0386 5.464 72.7079 5.016 75.9933 4.632C78.9373 4.29066 81.5186 3.97066 83.7373 3.672C85.9559 3.33066 87.8759 2.84 89.4973 2.2C89.6253 3.05333 89.5186 4.16266 89.1773 5.528C88.8786 6.85066 88.4733 8.17333 87.9613 9.496C87.4493 10.776 86.8946 11.9067 86.2973 12.888C85.6999 13.8693 85.1879 14.4027 84.7613 14.488L75.9933 15.256C72.4946 15.5973 68.9106 15.96 65.2413 16.344C61.5719 16.6853 57.8813 17.1333 54.1693 17.688C54.7666 18.456 55.1933 19.3093 55.4493 20.248C55.7053 21.144 55.6199 22.0187 55.1933 22.872C51.9933 26.8827 48.7933 31.3413 45.5933 36.248C47.2146 35.9067 48.8146 35.608 50.3933 35.352C51.9719 35.096 53.5719 34.84 55.1933 34.584C56.8999 34.328 58.6493 34.072 60.4413 33.816C62.2759 33.5173 64.0466 33.1973 65.7533 32.856C66.0093 32.8987 66.0946 33.176 66.0093 33.688C65.9666 34.1573 65.8173 34.7333 65.5613 35.416C65.3479 36.0987 65.0279 36.8453 64.6013 37.656C64.2173 38.424 63.8119 39.1493 63.3853 39.832C63.0013 40.5147 62.6173 41.0907 62.2333 41.56C61.8493 42.0293 61.5293 42.2853 61.2733 42.328C60.5479 42.4133 59.8226 42.4773 59.0973 42.52C58.3719 42.5627 57.6253 42.6053 56.8573 42.648C54.3399 42.8613 51.6519 43.1173 48.7933 43.416C45.9346 43.672 43.0119 44.1413 40.0253 44.824C37.9773 48.1093 35.9933 51.416 34.0733 54.744C32.1959 58.072 30.4679 61.2933 28.8893 64.408C27.3106 67.48 25.9239 70.4027 24.7292 73.176C23.5773 75.992 22.7026 78.5093 22.1053 80.728C21.5079 81.9653 20.8039 82.6267 19.9933 82.712C19.1826 82.7973 18.4573 82.4987 17.8173 81.816C17.2199 81.1333 16.7933 80.152 16.5373 78.872C16.3239 77.592 16.5159 76.2053 17.1133 74.712C17.4119 73.048 17.9026 71.2133 18.5853 69.208C19.3106 67.2027 20.1639 65.0907 21.1453 62.872C22.1266 60.6533 23.2146 58.3493 24.4093 55.96C25.6039 53.5707 26.8839 51.1387 28.2493 48.664C26.4573 49.5173 24.7506 50.4773 23.1293 51.544C21.5506 52.568 20.0359 53.7627 18.5853 55.128C18.2439 55.4693 17.8599 55.9173 17.4333 56.472C17.0066 56.984 16.5799 57.5813 16.1533 58.264C15.7693 58.904 15.4279 59.608 15.1293 60.376C14.8306 61.144 14.6173 61.912 14.4893 62.68C14.4039 63.2773 14.3826 63.8747 14.4253 64.472C14.5106 65.0693 14.7453 65.6027 15.1293 66.072L15.3213 66.648C15.3639 67.288 15.1506 67.7787 14.6813 68.12C14.2119 68.4187 13.6359 68.5893 12.9533 68.632C12.2706 68.6747 11.5879 68.6107 10.9053 68.44C10.2653 68.2267 9.81725 67.928 9.56125 67.544C9.21992 66.8187 9.02792 66.072 8.98525 65.304C8.98525 64.4933 9.04925 63.6613 9.17725 62.808C9.34792 61.6987 9.66792 60.5467 10.1373 59.352C10.6493 58.1573 11.2253 57.0053 11.8653 55.896C12.5053 54.7867 13.1666 53.784 13.8493 52.888C14.5746 51.9493 15.2359 51.1813 15.8333 50.584C18.6493 47.896 21.5293 45.6773 24.4733 43.928C27.4173 42.136 30.4253 40.664 33.4973 39.512C35.7159 35.7147 37.9133 32.088 40.0893 28.632C42.3079 25.1333 44.3559 21.9547 46.2333 19.096C45.0813 19.3093 43.9293 19.544 42.7773 19.8C41.6679 20.056 40.5586 20.3333 39.4493 20.632C37.7853 21.144 35.8013 21.8907 33.4973 22.872C31.2359 23.8533 29.0173 25.0267 26.8413 26.392C24.7079 27.7147 22.8306 29.1867 21.2093 30.808C19.6306 32.3867 18.6919 34.0507 18.3933 35.8C18.2226 36.8667 18.3506 37.9973 18.7773 39.192C19.2039 40.344 20.0999 41.5387 21.4653 42.776L21.7213 43.48ZM79.4463 37.208C78.9343 38.0187 78.2303 39.128 77.3343 40.536C76.4383 41.944 75.4569 43.5227 74.3903 45.272C73.3663 46.9787 72.2996 48.792 71.1903 50.712C70.0809 52.5893 69.0569 54.424 68.1183 56.216C67.1796 57.9653 66.3903 59.5867 65.7503 61.08C65.1103 62.5733 64.7263 63.768 64.5983 64.664C64.5129 64.792 64.4703 64.8987 64.4703 64.984C64.4703 65.0693 64.4489 65.1333 64.4062 65.176H64.8542C66.0916 64.7493 67.3076 64.0667 68.5023 63.128C69.6969 62.1467 70.8489 61.0587 71.9583 59.864C73.0676 58.6267 74.1343 57.3253 75.1583 55.96C76.1823 54.552 77.1636 53.1867 78.1023 51.864H78.0383C78.2943 51.48 78.5716 51.1173 78.8703 50.776C79.1689 50.392 79.4463 50.0293 79.7023 49.688C79.8729 49.432 80.1716 49.368 80.5983 49.496C81.0249 49.624 81.4303 49.8373 81.8143 50.136C82.2409 50.4347 82.5609 50.7973 82.7743 51.224C83.0303 51.608 83.0729 51.9493 82.9023 52.248L80.7903 55.128C79.0409 57.56 77.1423 60.0347 75.0943 62.552C73.0889 65.0267 70.9556 67.2027 68.6943 69.08C68.3103 69.4213 67.8196 69.8053 67.2223 70.232C66.6249 70.616 65.9636 70.9787 65.2383 71.32C64.5129 71.6613 63.7449 71.9387 62.9343 72.152C62.1236 72.408 61.3129 72.536 60.5023 72.536C59.5636 72.4933 58.7956 72.2587 58.1983 71.832C57.6009 71.4053 57.1316 70.8507 56.7903 70.168C56.4916 69.4427 56.3209 68.632 56.2782 67.736C56.1929 66.7973 56.2356 65.7733 56.4063 64.664C56.4916 64.1947 56.5983 63.704 56.7263 63.192C56.8543 62.6373 57.0036 62.1467 57.1743 61.72C58.4543 57.4533 60.2249 53.3147 62.4863 49.304C64.7903 45.2507 67.1583 41.2613 69.5903 37.336L73.0463 31.96C74.0276 30.3387 74.9876 28.696 75.9263 27.032C76.9076 25.3253 77.8249 23.6613 78.6783 22.04C79.5743 20.4187 80.3849 18.8613 81.1103 17.368C81.8783 15.832 82.5183 14.424 83.0303 13.144C83.7129 12.8027 84.5023 12.824 85.3983 13.208C86.3369 13.5493 87.1689 14.104 87.8943 14.872C88.6623 15.64 89.2383 16.536 89.6223 17.56C90.0063 18.5413 90.0063 19.5013 89.6223 20.44C89.3236 21.08 88.8116 21.9973 88.0863 23.192C87.4036 24.3867 86.5929 25.7307 85.6543 27.224C84.7583 28.7173 83.7983 30.2747 82.7743 31.896C81.7929 33.4747 80.8543 34.968 79.9583 36.376L79.4463 37.208ZM107.45 45.208C107.407 45.464 107.236 45.6773 106.938 45.848C106.682 45.976 106.362 46.0827 105.978 46.168C105.594 46.2107 105.188 46.232 104.762 46.232C104.378 46.232 104.036 46.168 103.738 46.04C104.335 46.424 104.89 46.872 105.402 47.384C105.914 47.896 106.34 48.472 106.682 49.112C107.023 49.7093 107.236 50.328 107.322 50.968C107.45 51.608 107.386 52.2267 107.13 52.824C106.959 53.1227 106.767 53.464 106.554 53.848C106.34 54.1893 106.127 54.552 105.914 54.936C105.444 55.7467 104.954 56.6213 104.442 57.56C103.972 58.4987 103.524 59.416 103.098 60.312C102.671 61.208 102.287 62.0613 101.946 62.872C101.647 63.64 101.455 64.3013 101.37 64.856C101.37 64.9413 101.327 65.0053 101.242 65.048C101.199 65.0907 101.156 65.1333 101.114 65.176H101.562C102.842 64.7493 104.079 64.0453 105.274 63.064C106.468 62.0827 107.62 60.9733 108.73 59.736C109.882 58.456 110.97 57.112 111.994 55.704C113.06 54.2533 114.063 52.8667 115.002 51.544C115.343 51.2027 115.599 50.904 115.77 50.648C115.94 50.392 116.111 50.1147 116.282 49.816C116.452 49.6027 116.772 49.56 117.242 49.688C117.711 49.7733 118.159 49.9653 118.586 50.264C119.012 50.5627 119.354 50.9253 119.61 51.352C119.866 51.736 119.866 52.0773 119.61 52.376L117.754 54.936V55C115.919 57.5173 113.999 60.0133 111.994 62.488C110.031 64.92 107.834 67.1173 105.402 69.08C105.018 69.4213 104.527 69.8053 103.93 70.232C103.375 70.616 102.735 70.9787 102.01 71.32C101.327 71.704 100.58 72.0027 99.7698 72.216C98.9591 72.472 98.1271 72.5787 97.2738 72.536C95.2258 72.3653 93.7751 71.64 92.9218 70.36C92.1111 69.08 91.8124 67.48 92.0258 65.56C90.1058 67.352 88.1644 68.9093 86.2018 70.232C84.2391 71.512 82.3618 72.1733 80.5698 72.216C78.9484 72.0453 77.6471 71.5973 76.6658 70.872C75.7271 70.104 75.0231 69.208 74.5538 68.184C74.0844 67.16 73.8071 66.072 73.7218 64.92C73.6791 63.7253 73.7218 62.616 73.8498 61.592C74.0204 60.6533 74.2124 59.8853 74.4258 59.288C74.8524 57.7093 75.5564 55.9813 76.5378 54.104C77.5191 52.2267 78.6924 50.3493 80.0578 48.472C81.4231 46.5947 82.9164 44.7813 84.5378 43.032C86.2018 41.2827 87.9511 39.7253 89.7858 38.36C91.6204 36.9947 93.4764 35.9067 95.3538 35.096C97.2738 34.2853 99.1724 33.88 101.05 33.88C101.604 33.88 102.138 33.9227 102.65 34.008C103.162 34.0933 103.716 34.2213 104.314 34.392C105.338 34.7333 106.106 35.288 106.618 36.056C107.172 36.7813 107.535 37.656 107.706 38.68C107.919 39.6613 107.983 40.728 107.898 41.88C107.855 42.9893 107.706 44.0987 107.45 45.208ZM99.9618 45.208C100.388 44.9947 100.879 44.952 101.434 45.08C102.031 45.208 102.628 45.4427 103.226 45.784C103.012 45.5707 102.948 45.336 103.034 45.08C103.076 44.952 103.076 44.8027 103.034 44.632C103.034 44.4613 103.055 44.2907 103.098 44.12C103.14 43.6933 103.162 43.2453 103.162 42.776C103.162 42.3067 103.098 41.88 102.97 41.496C102.842 41.0693 102.628 40.728 102.33 40.472C102.031 40.216 101.626 40.0667 101.114 40.024C99.5351 39.9813 97.9138 40.5573 96.2498 41.752C94.5858 42.904 92.9858 44.376 91.4498 46.168C89.9138 47.96 88.5058 49.88 87.2258 51.928C85.9884 53.976 85.0071 55.832 84.2818 57.496C84.0684 57.9653 83.8551 58.5627 83.6418 59.288C83.4284 59.9707 83.2791 60.6533 83.1938 61.336C83.1084 61.8053 83.0658 62.2533 83.0658 62.68C83.0658 63.1067 83.1511 63.4693 83.3218 63.768C83.5351 64.0667 83.8338 64.2587 84.2178 64.344C84.6018 64.4293 85.1351 64.3867 85.8178 64.216C86.4578 64.0453 87.2684 63.5547 88.2498 62.744C89.2311 61.9333 90.2551 60.9947 91.3218 59.928C92.4311 58.8187 93.4978 57.6453 94.5218 56.408C95.5884 55.1707 96.4844 54.0613 97.2098 53.08C97.8498 51.8 98.4258 50.5627 98.9378 49.368C99.4924 48.1307 99.8764 47.0853 100.09 46.232L99.9618 45.208ZM139.08 59.8C137.885 61.2507 136.562 62.744 135.112 64.28C133.661 65.7733 132.125 67.1387 130.504 68.376C128.882 69.6133 127.197 70.616 125.448 71.384C123.698 72.152 121.97 72.4933 120.264 72.408C119.282 72.3653 118.45 72.1307 117.768 71.704C117.085 71.2773 116.552 70.7227 116.168 70.04C115.826 69.3147 115.613 68.504 115.528 67.608C115.442 66.712 115.485 65.7733 115.656 64.792C115.954 63.384 116.381 62.0613 116.936 60.824C117.49 59.5867 118.13 58.4133 118.856 57.304C119.624 56.1947 120.434 55.1067 121.288 54.04C122.141 52.9733 123.037 51.8853 123.976 50.776L125.512 48.984V49.048L127.368 46.872C127.709 46.4027 128.157 45.976 128.712 45.592C129.309 45.208 130.226 44.8453 131.464 44.504C130.866 44.632 130.376 44.7387 129.992 44.824C129.608 44.8667 129.266 44.9307 128.968 45.016C128.413 45.144 127.858 45.272 127.304 45.4C126.749 45.528 126.109 45.5707 125.384 45.528H124.744C123.592 46.9787 122.504 48.408 121.48 49.816C120.456 51.1813 119.496 52.4827 118.6 53.72V53.656C118.429 53.912 118.13 53.976 117.704 53.848C117.277 53.72 116.872 53.5067 116.488 53.208C116.104 52.8667 115.784 52.504 115.528 52.12C115.314 51.6933 115.336 51.3307 115.592 51.032V51.096C116.829 49.4747 117.874 48.0667 118.728 46.872C119.581 45.6347 120.349 44.5467 121.032 43.608C120.69 42.8827 120.626 42.0293 120.84 41.048C121.053 39.7253 121.522 38.552 122.248 37.528C122.973 36.504 123.826 35.3093 124.808 33.944C125.192 33.3893 125.597 32.7707 126.024 32.088C126.493 31.4053 126.962 30.5733 127.432 29.592C128.029 29.9333 128.626 30.296 129.224 30.68C129.821 31.0213 130.333 31.448 130.76 31.96C131.229 32.4293 131.57 32.984 131.784 33.624C131.997 34.264 132.04 34.9893 131.912 35.8C131.826 36.184 131.72 36.6107 131.592 37.08C131.464 37.5067 131.229 38.0187 130.888 38.616L128.2 41.496C127.986 41.752 128.093 41.7947 128.52 41.624C128.946 41.4107 129.565 41.0693 130.376 40.6C131.186 40.1307 132.104 39.576 133.128 38.936C134.152 38.296 135.154 37.656 136.136 37.016C137.117 36.376 137.97 35.7787 138.696 35.224C139.464 34.6693 139.997 34.2427 140.296 33.944C140.552 33.944 140.872 34.072 141.256 34.328C141.64 34.584 142.002 34.8827 142.344 35.224C142.728 35.5227 143.048 35.8213 143.304 36.12C143.602 36.376 143.773 36.5467 143.816 36.632C144.157 37.3573 144.157 38.232 143.816 39.256C143.474 40.2373 142.898 41.3253 142.088 42.52C141.32 43.7147 140.36 44.9947 139.208 46.36C138.098 47.6827 136.925 49.048 135.688 50.456C134.962 51.224 134.258 51.992 133.576 52.76C132.893 53.528 132.21 54.3173 131.528 55.128C131.016 55.7253 130.44 56.408 129.8 57.176C129.16 57.944 128.541 58.7333 127.944 59.544C127.346 60.312 126.834 61.08 126.408 61.848C125.981 62.616 125.725 63.256 125.64 63.768C125.554 64.024 125.768 64.152 126.28 64.152C126.749 64.1947 127.368 64.0453 128.136 63.704C128.904 63.32 129.736 62.808 130.632 62.168C131.528 61.4853 132.445 60.696 133.384 59.8C134.322 58.904 135.197 57.9227 136.008 56.856H135.944C137.053 55.4907 138.098 54.1467 139.08 52.824C140.061 51.5013 140.85 50.3707 141.448 49.432C141.661 49.2187 141.981 49.1973 142.408 49.368C142.834 49.496 143.24 49.7307 143.624 50.072C144.008 50.4133 144.306 50.8187 144.52 51.288C144.733 51.7147 144.712 52.0773 144.456 52.376L144.52 52.248L142.216 55.448L139.208 59.736L139.08 59.8ZM165.681 45.784C163.121 49.624 160.092 52.824 156.593 55.384C153.137 57.944 149.425 59.8427 145.457 61.08C145.329 62.232 145.393 63.32 145.649 64.344C145.948 65.368 146.588 65.9867 147.569 66.2L147.441 66.136C148.252 66.3493 149.233 66.2853 150.385 65.944C151.58 65.6027 152.86 65.0053 154.225 64.152C155.633 63.256 157.105 62.104 158.641 60.696C160.177 59.288 161.713 57.624 163.249 55.704C164.06 54.68 164.828 53.6347 165.553 52.568C166.321 51.4587 167.047 50.4133 167.729 49.432C168.199 48.8773 168.711 48.5787 169.265 48.536C169.863 48.4933 170.353 48.6427 170.737 48.984C171.164 49.2827 171.42 49.7307 171.505 50.328C171.633 50.8827 171.441 51.5227 170.929 52.248L169.329 54.552C167.964 56.472 166.3 58.6053 164.337 60.952C162.417 63.256 160.22 65.496 157.745 67.672C156.295 68.8667 154.887 69.8053 153.521 70.488C152.156 71.128 150.897 71.5973 149.745 71.896C148.593 72.2373 147.548 72.4293 146.609 72.472C145.713 72.5573 145.009 72.6 144.497 72.6C141.169 72.6 138.759 71.64 137.265 69.72C135.815 67.8 135.303 65.176 135.729 61.848C136.113 58.9467 137.031 56.1093 138.481 53.336C139.975 50.5627 142.065 47.5547 144.753 44.312C145.692 43.2453 146.865 42.1147 148.273 40.92C149.681 39.6827 151.217 38.552 152.881 37.528C154.545 36.504 156.273 35.672 158.065 35.032C159.9 34.392 161.649 34.0933 163.313 34.136C165.063 34.1787 166.385 34.776 167.281 35.928C168.177 37.0373 168.455 38.552 168.113 40.472C167.985 41.3253 167.708 42.2 167.281 43.096C166.897 43.9493 166.343 44.8667 165.617 45.848L165.681 45.784ZM162.353 40.536C160.817 40.8347 159.303 41.5173 157.809 42.584C156.316 43.6507 154.908 44.9093 153.585 46.36C152.263 47.8107 151.047 49.368 149.937 51.032C148.828 52.6533 147.911 54.1893 147.185 55.64C150.215 54.4027 153.031 52.7387 155.633 50.648C158.236 48.5147 160.455 45.976 162.289 43.032V43.096C162.545 42.7547 162.716 42.4133 162.801 42.072C162.929 41.7307 163.036 41.432 163.121 41.176C163.207 40.5787 162.951 40.3653 162.353 40.536Z" fill="black"/>
</g>
<path d="M21.7213 43.48C21.8066 44.2053 21.4866 44.824 20.7613 45.336C20.0786 45.848 19.1613 46.104 18.0093 46.104C16.9426 46.104 15.7479 45.912 14.4253 45.528C13.1453 45.1013 12.1426 44.3547 11.4173 43.288C11.0333 42.0507 10.7346 40.92 10.5213 39.896C10.3506 38.8293 10.3719 37.6987 10.5853 36.504C10.7133 35.7787 10.9053 34.9893 11.1613 34.136C11.4599 33.24 11.8439 32.2373 12.3133 31.128C13.7639 27.7147 15.8759 24.728 18.6493 22.168C21.4653 19.608 24.6866 17.4107 28.3133 15.576C31.9399 13.7413 35.8439 12.2053 40.0253 10.968C44.2066 9.73066 48.4093 8.70666 52.6333 7.896C56.8573 7.08533 60.9746 6.44533 64.9853 5.976C69.0386 5.464 72.7079 5.016 75.9933 4.632C78.9373 4.29066 81.5186 3.97066 83.7373 3.672C85.9559 3.33066 87.8759 2.84 89.4973 2.2C89.6253 3.05333 89.5186 4.16266 89.1773 5.528C88.8786 6.85066 88.4733 8.17333 87.9613 9.496C87.4493 10.776 86.8946 11.9067 86.2973 12.888C85.6999 13.8693 85.1879 14.4027 84.7613 14.488L75.9933 15.256C72.4946 15.5973 68.9106 15.96 65.2413 16.344C61.5719 16.6853 57.8813 17.1333 54.1693 17.688C54.7666 18.456 55.1933 19.3093 55.4493 20.248C55.7053 21.144 55.6199 22.0187 55.1933 22.872C51.9933 26.8827 48.7933 31.3413 45.5933 36.248C47.2146 35.9067 48.8146 35.608 50.3933 35.352C51.9719 35.096 53.5719 34.84 55.1933 34.584C56.8999 34.328 58.6493 34.072 60.4413 33.816C62.2759 33.5173 64.0466 33.1973 65.7533 32.856C66.0093 32.8987 66.0946 33.176 66.0093 33.688C65.9666 34.1573 65.8173 34.7333 65.5613 35.416C65.3479 36.0987 65.0279 36.8453 64.6013 37.656C64.2173 38.424 63.8119 39.1493 63.3853 39.832C63.0013 40.5147 62.6173 41.0907 62.2333 41.56C61.8493 42.0293 61.5293 42.2853 61.2733 42.328C60.5479 42.4133 59.8226 42.4773 59.0973 42.52C58.3719 42.5627 57.6253 42.6053 56.8573 42.648C54.3399 42.8613 51.6519 43.1173 48.7933 43.416C45.9346 43.672 43.0119 44.1413 40.0253 44.824C37.9773 48.1093 35.9933 51.416 34.0733 54.744C32.1959 58.072 30.4679 61.2933 28.8893 64.408C27.3106 67.48 25.9239 70.4027 24.7292 73.176C23.5773 75.992 22.7026 78.5093 22.1053 80.728C21.5079 81.9653 20.8039 82.6267 19.9933 82.712C19.1826 82.7973 18.4573 82.4987 17.8173 81.816C17.2199 81.1333 16.7933 80.152 16.5373 78.872C16.3239 77.592 16.5159 76.2053 17.1133 74.712C17.4119 73.048 17.9026 71.2133 18.5853 69.208C19.3106 67.2027 20.1639 65.0907 21.1453 62.872C22.1266 60.6533 23.2146 58.3493 24.4093 55.96C25.6039 53.5707 26.8839 51.1387 28.2493 48.664C26.4573 49.5173 24.7506 50.4773 23.1293 51.544C21.5506 52.568 20.0359 53.7627 18.5853 55.128C18.2439 55.4693 17.8599 55.9173 17.4333 56.472C17.0066 56.984 16.5799 57.5813 16.1533 58.264C15.7693 58.904 15.4279 59.608 15.1293 60.376C14.8306 61.144 14.6173 61.912 14.4893 62.68C14.4039 63.2773 14.3826 63.8747 14.4253 64.472C14.5106 65.0693 14.7453 65.6027 15.1293 66.072L15.3213 66.648C15.3639 67.288 15.1506 67.7787 14.6813 68.12C14.2119 68.4187 13.6359 68.5893 12.9533 68.632C12.2706 68.6747 11.5879 68.6107 10.9053 68.44C10.2653 68.2267 9.81725 67.928 9.56125 67.544C9.21992 66.8187 9.02792 66.072 8.98525 65.304C8.98525 64.4933 9.04925 63.6613 9.17725 62.808C9.34792 61.6987 9.66792 60.5467 10.1373 59.352C10.6493 58.1573 11.2253 57.0053 11.8653 55.896C12.5053 54.7867 13.1666 53.784 13.8493 52.888C14.5746 51.9493 15.2359 51.1813 15.8333 50.584C18.6493 47.896 21.5293 45.6773 24.4733 43.928C27.4173 42.136 30.4253 40.664 33.4973 39.512C35.7159 35.7147 37.9133 32.088 40.0893 28.632C42.3079 25.1333 44.3559 21.9547 46.2333 19.096C45.0813 19.3093 43.9293 19.544 42.7773 19.8C41.6679 20.056 40.5586 20.3333 39.4493 20.632C37.7853 21.144 35.8013 21.8907 33.4973 22.872C31.2359 23.8533 29.0173 25.0267 26.8413 26.392C24.7079 27.7147 22.8306 29.1867 21.2093 30.808C19.6306 32.3867 18.6919 34.0507 18.3933 35.8C18.2226 36.8667 18.3506 37.9973 18.7773 39.192C19.2039 40.344 20.0999 41.5387 21.4653 42.776L21.7213 43.48ZM79.4463 37.208C78.9343 38.0187 78.2303 39.128 77.3343 40.536C76.4383 41.944 75.4569 43.5227 74.3903 45.272C73.3663 46.9787 72.2996 48.792 71.1903 50.712C70.0809 52.5893 69.0569 54.424 68.1183 56.216C67.1796 57.9653 66.3903 59.5867 65.7503 61.08C65.1103 62.5733 64.7263 63.768 64.5983 64.664C64.5129 64.792 64.4703 64.8987 64.4703 64.984C64.4703 65.0693 64.4489 65.1333 64.4062 65.176H64.8542C66.0916 64.7493 67.3076 64.0667 68.5023 63.128C69.6969 62.1467 70.8489 61.0587 71.9583 59.864C73.0676 58.6267 74.1343 57.3253 75.1583 55.96C76.1823 54.552 77.1636 53.1867 78.1023 51.864H78.0383C78.2943 51.48 78.5716 51.1173 78.8703 50.776C79.1689 50.392 79.4463 50.0293 79.7023 49.688C79.8729 49.432 80.1716 49.368 80.5983 49.496C81.0249 49.624 81.4303 49.8373 81.8143 50.136C82.2409 50.4347 82.5609 50.7973 82.7743 51.224C83.0303 51.608 83.0729 51.9493 82.9023 52.248L80.7903 55.128C79.0409 57.56 77.1423 60.0347 75.0943 62.552C73.0889 65.0267 70.9556 67.2027 68.6943 69.08C68.3103 69.4213 67.8196 69.8053 67.2223 70.232C66.6249 70.616 65.9636 70.9787 65.2383 71.32C64.5129 71.6613 63.7449 71.9387 62.9343 72.152C62.1236 72.408 61.3129 72.536 60.5023 72.536C59.5636 72.4933 58.7956 72.2587 58.1983 71.832C57.6009 71.4053 57.1316 70.8507 56.7903 70.168C56.4916 69.4427 56.3209 68.632 56.2782 67.736C56.1929 66.7973 56.2356 65.7733 56.4063 64.664C56.4916 64.1947 56.5983 63.704 56.7263 63.192C56.8543 62.6373 57.0036 62.1467 57.1743 61.72C58.4543 57.4533 60.2249 53.3147 62.4863 49.304C64.7903 45.2507 67.1583 41.2613 69.5903 37.336L73.0463 31.96C74.0276 30.3387 74.9876 28.696 75.9263 27.032C76.9076 25.3253 77.8249 23.6613 78.6783 22.04C79.5743 20.4187 80.3849 18.8613 81.1103 17.368C81.8783 15.832 82.5183 14.424 83.0303 13.144C83.7129 12.8027 84.5023 12.824 85.3983 13.208C86.3369 13.5493 87.1689 14.104 87.8943 14.872C88.6623 15.64 89.2383 16.536 89.6223 17.56C90.0063 18.5413 90.0063 19.5013 89.6223 20.44C89.3236 21.08 88.8116 21.9973 88.0863 23.192C87.4036 24.3867 86.5929 25.7307 85.6543 27.224C84.7583 28.7173 83.7983 30.2747 82.7743 31.896C81.7929 33.4747 80.8543 34.968 79.9583 36.376L79.4463 37.208ZM107.45 45.208C107.407 45.464 107.236 45.6773 106.938 45.848C106.682 45.976 106.362 46.0827 105.978 46.168C105.594 46.2107 105.188 46.232 104.762 46.232C104.378 46.232 104.036 46.168 103.738 46.04C104.335 46.424 104.89 46.872 105.402 47.384C105.914 47.896 106.34 48.472 106.682 49.112C107.023 49.7093 107.236 50.328 107.322 50.968C107.45 51.608 107.386 52.2267 107.13 52.824C106.959 53.1227 106.767 53.464 106.554 53.848C106.34 54.1893 106.127 54.552 105.914 54.936C105.444 55.7467 104.954 56.6213 104.442 57.56C103.972 58.4987 103.524 59.416 103.098 60.312C102.671 61.208 102.287 62.0613 101.946 62.872C101.647 63.64 101.455 64.3013 101.37 64.856C101.37 64.9413 101.327 65.0053 101.242 65.048C101.199 65.0907 101.156 65.1333 101.114 65.176H101.562C102.842 64.7493 104.079 64.0453 105.274 63.064C106.468 62.0827 107.62 60.9733 108.73 59.736C109.882 58.456 110.97 57.112 111.994 55.704C113.06 54.2533 114.063 52.8667 115.002 51.544C115.343 51.2027 115.599 50.904 115.77 50.648C115.94 50.392 116.111 50.1147 116.282 49.816C116.452 49.6027 116.772 49.56 117.242 49.688C117.711 49.7733 118.159 49.9653 118.586 50.264C119.012 50.5627 119.354 50.9253 119.61 51.352C119.866 51.736 119.866 52.0773 119.61 52.376L117.754 54.936V55C115.919 57.5173 113.999 60.0133 111.994 62.488C110.031 64.92 107.834 67.1173 105.402 69.08C105.018 69.4213 104.527 69.8053 103.93 70.232C103.375 70.616 102.735 70.9787 102.01 71.32C101.327 71.704 100.58 72.0027 99.7698 72.216C98.9591 72.472 98.1271 72.5787 97.2738 72.536C95.2258 72.3653 93.7751 71.64 92.9218 70.36C92.1111 69.08 91.8124 67.48 92.0258 65.56C90.1058 67.352 88.1644 68.9093 86.2018 70.232C84.2391 71.512 82.3618 72.1733 80.5698 72.216C78.9484 72.0453 77.6471 71.5973 76.6658 70.872C75.7271 70.104 75.0231 69.208 74.5538 68.184C74.0844 67.16 73.8071 66.072 73.7218 64.92C73.6791 63.7253 73.7218 62.616 73.8498 61.592C74.0204 60.6533 74.2124 59.8853 74.4258 59.288C74.8524 57.7093 75.5564 55.9813 76.5378 54.104C77.5191 52.2267 78.6924 50.3493 80.0578 48.472C81.4231 46.5947 82.9164 44.7813 84.5378 43.032C86.2018 41.2827 87.9511 39.7253 89.7858 38.36C91.6204 36.9947 93.4764 35.9067 95.3538 35.096C97.2738 34.2853 99.1724 33.88 101.05 33.88C101.604 33.88 102.138 33.9227 102.65 34.008C103.162 34.0933 103.716 34.2213 104.314 34.392C105.338 34.7333 106.106 35.288 106.618 36.056C107.172 36.7813 107.535 37.656 107.706 38.68C107.919 39.6613 107.983 40.728 107.898 41.88C107.855 42.9893 107.706 44.0987 107.45 45.208ZM99.9618 45.208C100.388 44.9947 100.879 44.952 101.434 45.08C102.031 45.208 102.628 45.4427 103.226 45.784C103.012 45.5707 102.948 45.336 103.034 45.08C103.076 44.952 103.076 44.8027 103.034 44.632C103.034 44.4613 103.055 44.2907 103.098 44.12C103.14 43.6933 103.162 43.2453 103.162 42.776C103.162 42.3067 103.098 41.88 102.97 41.496C102.842 41.0693 102.628 40.728 102.33 40.472C102.031 40.216 101.626 40.0667 101.114 40.024C99.5351 39.9813 97.9138 40.5573 96.2498 41.752C94.5858 42.904 92.9858 44.376 91.4498 46.168C89.9138 47.96 88.5058 49.88 87.2258 51.928C85.9884 53.976 85.0071 55.832 84.2818 57.496C84.0684 57.9653 83.8551 58.5627 83.6418 59.288C83.4284 59.9707 83.2791 60.6533 83.1938 61.336C83.1084 61.8053 83.0658 62.2533 83.0658 62.68C83.0658 63.1067 83.1511 63.4693 83.3218 63.768C83.5351 64.0667 83.8338 64.2587 84.2178 64.344C84.6018 64.4293 85.1351 64.3867 85.8178 64.216C86.4578 64.0453 87.2684 63.5547 88.2498 62.744C89.2311 61.9333 90.2551 60.9947 91.3218 59.928C92.4311 58.8187 93.4978 57.6453 94.5218 56.408C95.5884 55.1707 96.4844 54.0613 97.2098 53.08C97.8498 51.8 98.4258 50.5627 98.9378 49.368C99.4924 48.1307 99.8764 47.0853 100.09 46.232L99.9618 45.208ZM139.08 59.8C137.885 61.2507 136.562 62.744 135.112 64.28C133.661 65.7733 132.125 67.1387 130.504 68.376C128.882 69.6133 127.197 70.616 125.448 71.384C123.698 72.152 121.97 72.4933 120.264 72.408C119.282 72.3653 118.45 72.1307 117.768 71.704C117.085 71.2773 116.552 70.7227 116.168 70.04C115.826 69.3147 115.613 68.504 115.528 67.608C115.442 66.712 115.485 65.7733 115.656 64.792C115.954 63.384 116.381 62.0613 116.936 60.824C117.49 59.5867 118.13 58.4133 118.856 57.304C119.624 56.1947 120.434 55.1067 121.288 54.04C122.141 52.9733 123.037 51.8853 123.976 50.776L125.512 48.984V49.048L127.368 46.872C127.709 46.4027 128.157 45.976 128.712 45.592C129.309 45.208 130.226 44.8453 131.464 44.504C130.866 44.632 130.376 44.7387 129.992 44.824C129.608 44.8667 129.266 44.9307 128.968 45.016C128.413 45.144 127.858 45.272 127.304 45.4C126.749 45.528 126.109 45.5707 125.384 45.528H124.744C123.592 46.9787 122.504 48.408 121.48 49.816C120.456 51.1813 119.496 52.4827 118.6 53.72V53.656C118.429 53.912 118.13 53.976 117.704 53.848C117.277 53.72 116.872 53.5067 116.488 53.208C116.104 52.8667 115.784 52.504 115.528 52.12C115.314 51.6933 115.336 51.3307 115.592 51.032V51.096C116.829 49.4747 117.874 48.0667 118.728 46.872C119.581 45.6347 120.349 44.5467 121.032 43.608C120.69 42.8827 120.626 42.0293 120.84 41.048C121.053 39.7253 121.522 38.552 122.248 37.528C122.973 36.504 123.826 35.3093 124.808 33.944C125.192 33.3893 125.597 32.7707 126.024 32.088C126.493 31.4053 126.962 30.5733 127.432 29.592C128.029 29.9333 128.626 30.296 129.224 30.68C129.821 31.0213 130.333 31.448 130.76 31.96C131.229 32.4293 131.57 32.984 131.784 33.624C131.997 34.264 132.04 34.9893 131.912 35.8C131.826 36.184 131.72 36.6107 131.592 37.08C131.464 37.5067 131.229 38.0187 130.888 38.616L128.2 41.496C127.986 41.752 128.093 41.7947 128.52 41.624C128.946 41.4107 129.565 41.0693 130.376 40.6C131.186 40.1307 132.104 39.576 133.128 38.936C134.152 38.296 135.154 37.656 136.136 37.016C137.117 36.376 137.97 35.7787 138.696 35.224C139.464 34.6693 139.997 34.2427 140.296 33.944C140.552 33.944 140.872 34.072 141.256 34.328C141.64 34.584 142.002 34.8827 142.344 35.224C142.728 35.5227 143.048 35.8213 143.304 36.12C143.602 36.376 143.773 36.5467 143.816 36.632C144.157 37.3573 144.157 38.232 143.816 39.256C143.474 40.2373 142.898 41.3253 142.088 42.52C141.32 43.7147 140.36 44.9947 139.208 46.36C138.098 47.6827 136.925 49.048 135.688 50.456C134.962 51.224 134.258 51.992 133.576 52.76C132.893 53.528 132.21 54.3173 131.528 55.128C131.016 55.7253 130.44 56.408 129.8 57.176C129.16 57.944 128.541 58.7333 127.944 59.544C127.346 60.312 126.834 61.08 126.408 61.848C125.981 62.616 125.725 63.256 125.64 63.768C125.554 64.024 125.768 64.152 126.28 64.152C126.749 64.1947 127.368 64.0453 128.136 63.704C128.904 63.32 129.736 62.808 130.632 62.168C131.528 61.4853 132.445 60.696 133.384 59.8C134.322 58.904 135.197 57.9227 136.008 56.856H135.944C137.053 55.4907 138.098 54.1467 139.08 52.824C140.061 51.5013 140.85 50.3707 141.448 49.432C141.661 49.2187 141.981 49.1973 142.408 49.368C142.834 49.496 143.24 49.7307 143.624 50.072C144.008 50.4133 144.306 50.8187 144.52 51.288C144.733 51.7147 144.712 52.0773 144.456 52.376L144.52 52.248L142.216 55.448L139.208 59.736L139.08 59.8ZM165.681 45.784C163.121 49.624 160.092 52.824 156.593 55.384C153.137 57.944 149.425 59.8427 145.457 61.08C145.329 62.232 145.393 63.32 145.649 64.344C145.948 65.368 146.588 65.9867 147.569 66.2L147.441 66.136C148.252 66.3493 149.233 66.2853 150.385 65.944C151.58 65.6027 152.86 65.0053 154.225 64.152C155.633 63.256 157.105 62.104 158.641 60.696C160.177 59.288 161.713 57.624 163.249 55.704C164.06 54.68 164.828 53.6347 165.553 52.568C166.321 51.4587 167.047 50.4133 167.729 49.432C168.199 48.8773 168.711 48.5787 169.265 48.536C169.863 48.4933 170.353 48.6427 170.737 48.984C171.164 49.2827 171.42 49.7307 171.505 50.328C171.633 50.8827 171.441 51.5227 170.929 52.248L169.329 54.552C167.964 56.472 166.3 58.6053 164.337 60.952C162.417 63.256 160.22 65.496 157.745 67.672C156.295 68.8667 154.887 69.8053 153.521 70.488C152.156 71.128 150.897 71.5973 149.745 71.896C148.593 72.2373 147.548 72.4293 146.609 72.472C145.713 72.5573 145.009 72.6 144.497 72.6C141.169 72.6 138.759 71.64 137.265 69.72C135.815 67.8 135.303 65.176 135.729 61.848C136.113 58.9467 137.031 56.1093 138.481 53.336C139.975 50.5627 142.065 47.5547 144.753 44.312C145.692 43.2453 146.865 42.1147 148.273 40.92C149.681 39.6827 151.217 38.552 152.881 37.528C154.545 36.504 156.273 35.672 158.065 35.032C159.9 34.392 161.649 34.0933 163.313 34.136C165.063 34.1787 166.385 34.776 167.281 35.928C168.177 37.0373 168.455 38.552 168.113 40.472C167.985 41.3253 167.708 42.2 167.281 43.096C166.897 43.9493 166.343 44.8667 165.617 45.848L165.681 45.784ZM162.353 40.536C160.817 40.8347 159.303 41.5173 157.809 42.584C156.316 43.6507 154.908 44.9093 153.585 46.36C152.263 47.8107 151.047 49.368 149.937 51.032C148.828 52.6533 147.911 54.1893 147.185 55.64C150.215 54.4027 153.031 52.7387 155.633 50.648C158.236 48.5147 160.455 45.976 162.289 43.032V43.096C162.545 42.7547 162.716 42.4133 162.801 42.072C162.929 41.7307 163.036 41.432 163.121 41.176C163.207 40.5787 162.951 40.3653 162.353 40.536Z" fill="white"/>
</g>
<defs>
<filter id="filter0_f_3_2" x="4.98524" y="-1.8" width="170.712" height="88.64" filterUnits="userSpaceOnUse" color-interpolation-filters="sRGB">
<feFlood flood-opacity="0" result="BackgroundImageFix"/>
<feBlend mode="normal" in="SourceGraphic" in2="BackgroundImageFix" result="shape"/>
<feGaussianBlur stdDeviation="2" result="effect1_foregroundBlur_3_2"/>
</filter>
<clipPath id="clip0_3_2">
<rect width="180" height="85" fill="white"/>
</clipPath>
</defs>
</svg>
