<svg width="180" height="80" viewBox="0 0 180 80" fill="none" xmlns="http://www.w3.org/2000/svg">
<g filter="url(#filter0_f_3_2)">
<path d="M21.3606 40.9535C21.4367 41.5941 21.1513 42.1404 20.5043 42.5925C19.8953 43.0447 19.0771 43.2707 18.0495 43.2707C17.098 43.2707 16.0323 43.1012 14.8525 42.7621C13.7107 42.3853 12.8164 41.7259 12.1694 40.784C11.8268 39.6913 11.5604 38.6929 11.3701 37.7886C11.2179 36.8466 11.2369 35.8482 11.4272 34.7932C11.5414 34.1527 11.7127 33.4556 11.941 32.702C12.2074 31.9108 12.5499 31.0254 12.9686 30.0457C14.2626 27.0315 16.1465 24.394 18.6204 22.1333C21.1322 19.8727 24.0057 17.9322 27.2407 16.3121C30.4757 14.6919 33.9581 13.3355 37.6879 12.2428C41.4177 11.1502 45.1665 10.2459 48.9343 9.53002C52.7021 8.81414 56.3748 8.24897 59.9524 7.83451C63.568 7.38238 66.841 6.98676 69.7716 6.64765C72.3976 6.34622 74.7002 6.06364 76.6793 5.79989C78.6583 5.49847 80.371 5.06517 81.8172 4.5C81.9314 5.25356 81.8363 6.23319 81.5318 7.43889C81.2654 8.60691 80.9038 9.77493 80.4471 10.943C79.9904 12.0733 79.4956 13.0718 78.9628 13.9384C78.43 14.805 77.9733 15.2759 77.5927 15.3513L69.7716 16.0295C66.6507 16.3309 63.4538 16.6512 60.1807 16.9903C56.9076 17.2917 53.6155 17.6873 50.3044 18.1771C50.8372 18.8553 51.2178 19.6089 51.4462 20.4378C51.6745 21.2291 51.5984 22.0015 51.2178 22.755C48.3634 26.2968 45.509 30.2341 42.6546 34.5671C44.1008 34.2657 45.528 34.0019 46.9362 33.7759C48.3444 33.5498 49.7716 33.3237 51.2178 33.0977C52.7402 32.8716 54.3006 32.6455 55.8991 32.4195C57.5356 32.1557 59.1151 31.8731 60.6374 31.5717C60.8658 31.6094 60.9419 31.8543 60.8658 32.3064C60.8277 32.7209 60.6945 33.2295 60.4662 33.8324C60.2759 34.4352 59.9904 35.0946 59.6098 35.8105C59.2673 36.4887 58.9057 37.1292 58.5252 37.7321C58.1826 38.3349 57.8401 38.8436 57.4976 39.258C57.155 39.6725 56.8696 39.8986 56.6412 39.9362C55.9942 40.0116 55.3472 40.0681 54.7002 40.1058C54.0532 40.1435 53.3872 40.1811 52.7021 40.2188C50.4567 40.4072 48.0589 40.6333 45.509 40.897C42.959 41.1231 40.352 41.5376 37.6879 42.1404C35.8611 45.0416 34.0913 47.9617 32.3787 50.9006C30.7041 53.8395 29.1627 56.6842 27.7545 59.4347C26.3463 62.1475 25.1094 64.7284 24.0437 67.1775C23.0162 69.6643 22.2359 71.8873 21.7031 73.8465C21.1703 74.9392 20.5423 75.5232 19.8192 75.5985C19.0961 75.6739 18.4491 75.4102 17.8782 74.8073C17.3454 74.2045 16.9648 73.3379 16.7364 72.2075C16.5461 71.0772 16.7174 69.8526 17.2502 68.5339C17.5166 67.0645 17.9543 65.4443 18.5633 63.6734C19.2103 61.9026 19.9714 60.0375 20.8468 58.0782C21.7222 56.119 22.6927 54.0844 23.7583 51.9744C24.824 49.8644 25.9657 47.7168 27.1836 45.5314C25.5851 46.285 24.0628 47.1328 22.6165 48.0747C21.2084 48.979 19.8573 50.034 18.5633 51.2397C18.2588 51.5411 17.9163 51.9367 17.5357 52.4265C17.1551 52.8787 16.7745 53.4062 16.3939 54.009C16.0514 54.5742 15.7469 55.1959 15.4805 55.8741C15.2141 56.5523 15.0238 57.2305 14.9096 57.9087C14.8335 58.4362 14.8145 58.9637 14.8525 59.4912C14.9286 60.0187 15.138 60.4896 15.4805 60.9041L15.6518 61.4128C15.6898 61.9779 15.4995 62.4112 15.0809 62.7126C14.6622 62.9764 14.1484 63.1271 13.5395 63.1648C12.9305 63.2025 12.3216 63.1459 11.7127 62.9952C11.1418 62.8068 10.7421 62.5431 10.5138 62.204C10.2093 61.5635 10.0381 60.9041 10 60.2259C10 59.51 10.0571 58.7753 10.1713 58.0217C10.3235 57.0421 10.6089 56.0248 11.0276 54.9698C11.4843 53.9148 11.9981 52.8975 12.569 51.9179C13.1399 50.9382 13.7298 50.0528 14.3387 49.2616C14.9857 48.4327 15.5756 47.7544 16.1085 47.227C18.6204 44.8532 21.1893 42.894 23.8154 41.3492C26.4415 39.7667 29.1246 38.4668 31.8649 37.4495C33.8439 34.0961 35.804 30.8935 37.745 27.8416C39.724 24.752 41.5509 21.945 43.2255 19.4205C42.1979 19.6089 41.1703 19.8161 40.1427 20.0422C39.1532 20.2683 38.1636 20.5132 37.1741 20.7769C35.6898 21.2291 33.92 21.8884 31.8649 22.755C29.8477 23.6216 27.8687 24.6578 25.9277 25.8635C24.0247 27.0315 22.3501 28.3314 20.9039 29.7632C19.4957 31.1572 18.6584 32.6267 18.392 34.1715C18.2398 35.1134 18.3539 36.1119 18.7345 37.1669C19.1151 38.1842 19.9144 39.2392 21.1322 40.3319L21.3606 40.9535Z" fill="black"/>
<path d="M72.8517 35.4149C72.395 36.1308 71.767 37.1104 70.9677 38.3538C70.1685 39.5971 69.2932 40.9912 68.3417 42.536C67.4283 44.0432 66.4768 45.6445 65.4873 47.34C64.4977 48.9978 63.5843 50.618 62.747 52.2005C61.9097 53.7453 61.2056 55.177 60.6347 56.4958C60.0639 57.8145 59.7213 58.8695 59.6072 59.6607C59.531 59.7738 59.493 59.868 59.493 59.9433C59.493 60.0187 59.474 60.0752 59.4359 60.1129H59.8355C60.9392 59.7361 62.0239 59.1332 63.0896 58.3043C64.1552 57.4377 65.1828 56.4769 66.1723 55.4219C67.1619 54.3293 68.1133 53.1801 69.0267 51.9744C69.9402 50.731 70.8155 49.5253 71.6528 48.3573H71.5957C71.8241 48.0182 72.0715 47.6979 72.3379 47.3965C72.6043 47.0574 72.8517 46.7371 73.08 46.4357C73.2323 46.2096 73.4987 46.1531 73.8793 46.2662C74.2598 46.3792 74.6214 46.5676 74.9639 46.8313C75.3445 47.0951 75.63 47.4153 75.8203 47.7921C76.0486 48.1312 76.0867 48.4327 75.9344 48.6964L74.0505 51.2397C72.4901 53.3873 70.7965 55.5726 68.9697 57.7957C67.1809 59.981 65.2779 61.9026 63.2608 63.5604C62.9183 63.8618 62.4806 64.2009 61.9478 64.5777C61.415 64.9168 60.825 65.2371 60.178 65.5385C59.531 65.8399 58.846 66.0848 58.1229 66.2732C57.3997 66.4993 56.6766 66.6123 55.9535 66.6123C55.1162 66.5747 54.4311 66.3674 53.8983 65.9906C53.3655 65.6139 52.9468 65.124 52.6424 64.5212C52.376 63.8807 52.2237 63.1648 52.1857 62.3735C52.1095 61.5446 52.1476 60.6404 52.2998 59.6607C52.376 59.2463 52.4711 58.813 52.5853 58.3608C52.6995 57.871 52.8327 57.4377 52.9849 57.0609C54.1267 53.2931 55.7061 49.6384 57.7232 46.0966C59.7784 42.5172 61.8907 38.9943 64.0601 35.5279L67.1428 30.7805C68.0182 29.3487 68.8745 27.8981 69.7118 26.4286C70.5872 24.9215 71.4054 23.4521 72.1666 22.0203C72.9658 20.5885 73.689 19.2133 74.336 17.8946C75.021 16.5381 75.5919 15.2948 76.0486 14.1644C76.6576 13.863 77.3617 13.8818 78.1609 14.2209C78.9982 14.5224 79.7403 15.0122 80.3873 15.6904C81.0724 16.3686 81.5862 17.1598 81.9287 18.0641C82.2713 18.9307 82.2713 19.7785 81.9287 20.6074C81.6623 21.1726 81.2056 21.9826 80.5586 23.0376C79.9497 24.0926 79.2265 25.2795 78.3892 26.5982C77.59 27.9169 76.7337 29.2922 75.8203 30.724C74.9449 32.118 74.1076 33.4368 73.3084 34.6801L72.8517 35.4149Z" fill="black"/>
<path d="M97.831 42.4795C97.7929 42.7056 97.6407 42.894 97.3743 43.0447C97.1459 43.1577 96.8605 43.2519 96.5179 43.3273C96.1754 43.3649 95.8138 43.3838 95.4333 43.3838C95.0907 43.3838 94.7863 43.3273 94.5198 43.2142C95.0527 43.5533 95.5474 43.949 96.0041 44.4011C96.4609 44.8532 96.8414 45.3619 97.1459 45.9271C97.4504 46.4546 97.6407 47.0009 97.7168 47.5661C97.831 48.1312 97.7739 48.6776 97.5455 49.205C97.3933 49.4688 97.222 49.7702 97.0317 50.1093C96.8414 50.4107 96.6511 50.731 96.4608 51.0701C96.0422 51.786 95.6045 52.5584 95.1478 53.3873C94.7292 54.2162 94.3295 55.0263 93.949 55.8176C93.5684 56.6088 93.2258 57.3624 92.9214 58.0782C92.655 58.7564 92.4837 59.3405 92.4076 59.8303C92.4076 59.9056 92.3695 59.9621 92.2934 59.9998C92.2553 60.0375 92.2173 60.0752 92.1792 60.1129H92.5788C93.7206 59.7361 94.8243 59.1144 95.89 58.2478C96.9556 57.3812 97.9832 56.4016 98.9727 55.3089C100 54.1786 100.971 52.9917 101.884 51.7483C102.836 50.4673 103.73 49.2427 104.567 48.0747C104.872 47.7733 105.1 47.5095 105.252 47.2835C105.405 47.0574 105.557 46.8125 105.709 46.5487C105.861 46.3604 106.147 46.3227 106.565 46.4357C106.984 46.5111 107.384 46.6806 107.764 46.9444C108.145 47.2081 108.449 47.5284 108.678 47.9052C108.906 48.2443 108.906 48.5457 108.678 48.8094L107.022 51.0701V51.1266C105.386 53.3496 103.673 55.5538 101.884 57.7391C100.134 59.8868 98.1735 61.8272 96.0041 63.5604C95.6616 63.8618 95.2239 64.2009 94.6911 64.5777C94.1963 64.9168 93.6255 65.2371 92.9785 65.5385C92.3695 65.8776 91.7035 66.1414 90.9804 66.3297C90.2572 66.5558 89.5151 66.65 88.7539 66.6123C86.9271 66.4616 85.6331 65.8211 84.8719 64.6907C84.1488 63.5604 83.8824 62.1475 84.0727 60.452C82.36 62.0344 80.6283 63.4097 78.8776 64.5777C77.1269 65.7081 75.4523 66.2921 73.8538 66.3297C72.4076 66.179 71.2468 65.7834 70.3714 65.1429C69.5341 64.4647 68.9062 63.6734 68.4875 62.7692C68.0689 61.8649 67.8215 60.9041 67.7454 59.8868C67.7073 58.8318 67.7454 57.8522 67.8596 56.9479C68.0118 56.119 68.1831 55.4408 68.3733 54.9133C68.7539 53.5192 69.3819 51.9932 70.2573 50.3354C71.1326 48.6776 72.1792 47.0197 73.3971 45.3619C74.615 43.7041 75.9471 42.1027 77.3933 40.5579C78.8776 39.0131 80.438 37.6379 82.0746 36.4322C83.7111 35.2265 85.3667 34.2657 87.0413 33.5498C88.7539 32.8339 90.4475 32.476 92.1221 32.476C92.6169 32.476 93.0926 32.5137 93.5493 32.589C94.0061 32.6644 94.5008 32.7774 95.0336 32.9281C95.9471 33.2295 96.6321 33.7194 97.0888 34.3976C97.5836 35.0381 97.9071 35.8105 98.0593 36.7148C98.2496 37.5814 98.3067 38.5233 98.2306 39.5406C98.1925 40.5202 98.0593 41.4999 97.831 42.4795ZM91.1516 42.4795C91.5322 42.2911 91.9699 42.2534 92.4647 42.3665C92.9975 42.4795 93.5303 42.6867 94.0631 42.9882C93.8728 42.7998 93.8158 42.5925 93.8919 42.3665C93.9299 42.2534 93.9299 42.1216 93.8919 41.9709C93.8919 41.8201 93.9109 41.6694 93.949 41.5187C93.987 41.1419 94.006 40.7463 94.006 40.3319C94.006 39.9174 93.949 39.5406 93.8348 39.2015C93.7206 38.8247 93.5303 38.5233 93.2639 38.2972C92.9975 38.0712 92.6359 37.9393 92.1792 37.9016C90.771 37.8639 89.3248 38.3726 87.8405 39.4276C86.3562 40.4449 84.929 41.7448 83.5589 43.3273C82.1887 44.9097 80.9328 46.6053 79.791 48.4138C78.6873 50.2224 77.812 51.8614 77.165 53.3308C76.9747 53.7453 76.7844 54.2728 76.5941 54.9133C76.4038 55.5161 76.2706 56.119 76.1945 56.7218C76.1183 57.1363 76.0803 57.5319 76.0803 57.9087C76.0803 58.2855 76.1564 58.6057 76.3086 58.8695C76.4989 59.1332 76.7653 59.3028 77.1079 59.3781C77.4504 59.4535 77.9261 59.4158 78.5351 59.2651C79.106 59.1144 79.8291 58.6811 80.7044 57.9652C81.5798 57.2493 82.4932 56.4204 83.4447 55.4785C84.4342 54.4988 85.3857 53.4627 86.2991 52.37C87.2506 51.2773 88.0498 50.2977 88.6968 49.4311C89.2677 48.3008 89.7815 47.2081 90.2382 46.1531C90.733 45.0605 91.0755 44.1373 91.2658 43.3838L91.1516 42.4795Z" fill="black"/>
<path d="M126.045 55.3654C124.979 56.6465 123.8 57.9652 122.506 59.3216C121.212 60.6403 119.842 61.846 118.395 62.9387C116.949 64.0314 115.446 64.9168 113.885 65.595C112.325 66.2732 110.784 66.5746 109.261 66.4993C108.386 66.4616 107.644 66.2544 107.035 65.8776C106.426 65.5008 105.95 65.011 105.607 64.4082C105.303 63.7676 105.113 63.0517 105.037 62.2605C104.96 61.4693 104.999 60.6403 105.151 59.7738C105.417 58.5304 105.798 57.3624 106.293 56.2697C106.787 55.177 107.358 54.1409 108.005 53.1613C108.69 52.1816 109.413 51.2208 110.175 50.2789C110.936 49.3369 111.735 48.3761 112.572 47.3965L113.942 45.814V45.8705L115.598 43.949C115.902 43.5345 116.302 43.1577 116.797 42.8186C117.33 42.4795 118.148 42.1592 119.252 41.8578C118.719 41.9709 118.281 42.0651 117.939 42.1404C117.596 42.1781 117.292 42.2346 117.025 42.31C116.53 42.423 116.036 42.536 115.541 42.6491C115.046 42.7621 114.475 42.7998 113.828 42.7621H113.257C112.23 44.0432 111.259 45.3054 110.346 46.5487C109.432 47.7544 108.576 48.9036 107.777 49.9963V49.9398C107.625 50.1658 107.358 50.2224 106.978 50.1093C106.597 49.9963 106.235 49.8079 105.893 49.5442C105.55 49.2427 105.265 48.9225 105.037 48.5834C104.846 48.2066 104.865 47.8863 105.094 47.6226V47.6791C106.197 46.2473 107.13 45.0039 107.891 43.949C108.652 42.8563 109.337 41.8955 109.946 41.0666C109.642 40.4261 109.585 39.6725 109.775 38.8059C109.965 37.6379 110.384 36.6017 111.031 35.6975C111.678 34.7932 112.439 33.7382 113.314 32.5325C113.657 32.0427 114.019 31.4963 114.399 30.8935C114.818 30.2907 115.236 29.5559 115.655 28.6893C116.188 28.9908 116.721 29.311 117.254 29.6501C117.786 29.9515 118.243 30.3283 118.624 30.7805C119.042 31.1949 119.347 31.6847 119.537 32.2499C119.727 32.8151 119.765 33.4556 119.651 34.1715C119.575 34.5106 119.48 34.8874 119.366 35.3018C119.252 35.6786 119.042 36.1308 118.738 36.6582L116.34 39.2015C116.15 39.4276 116.245 39.4653 116.626 39.3146C117.006 39.1262 117.558 38.8247 118.281 38.4103C119.004 37.9958 119.822 37.506 120.736 36.9408C121.649 36.3757 122.544 35.8105 123.419 35.2453C124.294 34.6801 125.056 34.1527 125.703 33.6628C126.388 33.173 126.863 32.7962 127.13 32.5325C127.358 32.5325 127.644 32.6455 127.986 32.8716C128.329 33.0977 128.652 33.3614 128.957 33.6628C129.299 33.9266 129.585 34.1903 129.813 34.4541C130.079 34.6801 130.232 34.8309 130.27 34.9062C130.574 35.5467 130.574 36.3191 130.27 37.2234C129.965 38.09 129.451 39.0508 128.728 40.1058C128.043 41.1608 127.187 42.2911 126.159 43.4968C125.17 44.6648 124.123 45.8705 123.019 47.1139C122.372 47.7921 121.744 48.4703 121.136 49.1485C120.527 49.8267 119.918 50.5238 119.309 51.2397C118.852 51.7672 118.338 52.37 117.767 53.0482C117.196 53.7264 116.645 54.4235 116.112 55.1393C115.579 55.8176 115.122 56.4958 114.742 57.174C114.361 57.8522 114.133 58.4173 114.057 58.8695C113.98 59.0955 114.171 59.2086 114.627 59.2086C115.046 59.2463 115.598 59.1144 116.283 58.813C116.968 58.4739 117.71 58.0217 118.509 57.4566C119.309 56.8537 120.127 56.1567 120.964 55.3654C121.802 54.5742 122.582 53.7076 123.305 52.7656H123.248C124.237 51.5599 125.17 50.3731 126.045 49.205C126.92 48.037 127.625 47.0386 128.157 46.2096C128.348 46.0213 128.633 46.0024 129.014 46.1531C129.394 46.2662 129.756 46.4734 130.098 46.7748C130.441 47.0762 130.707 47.4342 130.898 47.8486C131.088 48.2254 131.069 48.5457 130.841 48.8094L130.898 48.6964L128.842 51.5223L126.159 55.3089L126.045 55.3654Z" fill="black"/>
<path d="M135.958 32.9281C136.529 32.6644 137.195 32.7209 137.957 33.0977C138.718 33.4368 139.384 33.9643 139.955 34.6801C140.526 35.3584 140.925 36.1684 141.153 37.1104C141.382 38.0147 141.249 38.9001 140.754 39.7667C140.83 39.6913 140.792 39.7667 140.64 39.9928C140.487 40.2188 140.278 40.5203 140.012 40.897C139.745 41.2738 139.441 41.7071 139.098 42.1969C138.756 42.6867 138.451 43.1389 138.185 43.5533C137.5 44.533 136.739 45.6256 135.901 46.8313C135.102 47.9994 134.284 49.205 133.447 50.4484C132.647 51.6541 131.867 52.841 131.106 54.009C130.383 55.177 129.755 56.2132 129.222 57.1174C128.727 58.0217 128.366 58.7564 128.137 59.3216C127.909 59.8491 127.909 60.1129 128.137 60.1129H128.537C129.755 59.7361 130.954 59.1332 132.134 58.3043C133.313 57.4377 134.436 56.4581 135.502 55.3654C136.605 54.2728 137.671 53.1236 138.699 51.9179C139.726 50.6745 140.716 49.4876 141.667 48.3573L142.695 47.0009C142.923 46.7748 143.228 46.7371 143.608 46.8878C143.989 47.0009 144.331 47.227 144.636 47.5661C144.978 47.8675 145.226 48.2254 145.378 48.6399C145.53 49.0167 145.492 49.3369 145.264 49.6007L145.321 49.4876C143.418 51.9367 141.287 54.4235 138.927 56.9479C136.567 59.4723 134.189 61.6953 131.791 63.6169C131.41 63.8807 130.935 64.2009 130.364 64.5777C129.831 64.9168 129.241 65.2371 128.594 65.5385C127.947 65.8399 127.262 66.0848 126.539 66.2732C125.816 66.4993 125.112 66.6123 124.427 66.6123C122.942 66.5747 121.953 66.0095 121.458 64.9168C120.925 63.7865 120.792 62.3924 121.058 60.7345C121.325 59.4535 121.743 58.1724 122.314 56.8914L122.257 56.9479C123.018 55.064 124.103 52.8787 125.511 50.3919C126.958 47.9052 128.442 45.4184 129.964 42.9317C130.954 41.2361 131.905 39.5971 132.819 38.0147C133.77 36.3945 134.569 34.9251 135.216 33.6063L135.958 32.9281ZM144.636 15.6339C145.093 15.5585 145.625 15.8223 146.234 16.4251C146.881 16.9903 147.471 17.6685 148.004 18.4597C148.575 19.2133 149.032 19.9857 149.374 20.7769C149.755 21.5305 149.907 22.0768 149.831 22.4159C149.412 23.5086 148.937 24.4694 148.404 25.2983C147.909 26.1272 147.395 26.975 146.862 27.8416C146.33 28.7082 145.778 29.5936 145.207 30.4979C144.674 31.4022 144.141 32.4571 143.608 33.6628C143.152 33.5498 142.657 33.2861 142.124 32.8716C141.629 32.4195 141.173 31.9108 140.754 31.3456C140.335 30.7805 139.993 30.1965 139.726 29.5936C139.498 28.9908 139.422 28.4821 139.498 28.0676C139.688 27.3141 139.936 26.4852 140.24 25.5809C140.583 24.6766 140.963 23.7347 141.382 22.755C141.8 21.7754 142.2 20.7769 142.581 19.7596C142.961 18.7423 143.266 17.7627 143.494 16.8207L144.636 15.6339Z" fill="black"/>
<path d="M164.771 42.9882C162.487 46.3792 159.785 49.205 156.664 51.4657C153.581 53.7264 150.27 55.4031 146.731 56.4958C146.617 57.5131 146.674 58.4739 146.902 59.3781C147.168 60.2824 147.739 60.8287 148.615 61.0171L148.5 60.9606C149.224 61.149 150.099 61.0925 151.127 60.7911C152.192 60.4896 153.334 59.9621 154.552 59.2086C155.808 58.4173 157.121 57.4 158.491 56.1567C159.861 54.9133 161.231 53.4438 162.601 51.7483C163.324 50.844 164.01 49.9209 164.657 48.979C165.342 47.9994 165.989 47.0762 166.598 46.2096C167.016 45.7198 167.473 45.4561 167.968 45.4184C168.5 45.3807 168.938 45.5126 169.281 45.814C169.661 46.0778 169.89 46.4734 169.966 47.0009C170.08 47.4907 169.909 48.0559 169.452 48.6964L168.025 50.731C166.807 52.4265 165.323 54.3104 163.572 56.3827C161.859 58.4173 159.899 60.3954 157.692 62.317C156.398 63.372 155.142 64.2009 153.924 64.8038C152.706 65.3689 151.583 65.7834 150.556 66.0472C149.528 66.3486 148.596 66.5181 147.758 66.5558C146.959 66.6312 146.331 66.6688 145.874 66.6688C142.906 66.6688 140.756 65.8211 139.423 64.1256C138.129 62.4301 137.673 60.1129 138.053 57.174C138.396 54.6119 139.214 52.1063 140.508 49.6572C141.84 47.2081 143.705 44.5518 146.103 41.6883C146.94 40.7463 147.987 39.7478 149.243 38.6929C150.499 37.6002 151.869 36.6017 153.353 35.6975C154.837 34.7932 156.379 34.0585 157.977 33.4933C159.614 32.9281 161.174 32.6644 162.658 32.702C164.219 32.7397 165.399 33.2672 166.198 34.2845C166.997 35.2642 167.245 36.6017 166.94 38.2972C166.826 39.0508 166.579 39.8232 166.198 40.6144C165.855 41.368 165.361 42.1781 164.714 43.0447L164.771 42.9882ZM161.802 38.3538C160.432 38.6175 159.081 39.2204 157.749 40.1623C156.417 41.1043 155.161 42.2158 153.981 43.4968C152.801 44.7779 151.716 46.1531 150.727 47.6226C149.737 49.0543 148.919 50.4107 148.272 51.6918C150.974 50.5991 153.486 49.1297 155.808 47.2835C158.129 45.3996 160.108 43.1577 161.745 40.5579V40.6144C161.973 40.313 162.126 40.0116 162.202 39.7102C162.316 39.4087 162.411 39.145 162.487 38.9189C162.563 38.3914 162.335 38.203 161.802 38.3538Z" fill="black"/>
</g>
<path d="M21.3606 40.9535C21.4367 41.5941 21.1513 42.1404 20.5043 42.5925C19.8953 43.0447 19.0771 43.2707 18.0495 43.2707C17.098 43.2707 16.0323 43.1012 14.8525 42.7621C13.7107 42.3853 12.8164 41.7259 12.1694 40.784C11.8268 39.6913 11.5604 38.6929 11.3701 37.7886C11.2179 36.8466 11.2369 35.8482 11.4272 34.7932C11.5414 34.1527 11.7127 33.4556 11.941 32.702C12.2074 31.9108 12.5499 31.0254 12.9686 30.0457C14.2626 27.0315 16.1465 24.394 18.6204 22.1333C21.1322 19.8727 24.0057 17.9322 27.2407 16.3121C30.4757 14.6919 33.9581 13.3355 37.6879 12.2428C41.4177 11.1502 45.1665 10.2459 48.9343 9.53002C52.7021 8.81414 56.3748 8.24897 59.9524 7.83451C63.568 7.38238 66.841 6.98676 69.7716 6.64765C72.3976 6.34622 74.7002 6.06364 76.6793 5.79989C78.6583 5.49847 80.371 5.06517 81.8172 4.5C81.9314 5.25356 81.8363 6.23319 81.5318 7.43889C81.2654 8.60691 80.9038 9.77493 80.4471 10.943C79.9904 12.0733 79.4956 13.0718 78.9628 13.9384C78.43 14.805 77.9733 15.2759 77.5927 15.3513L69.7716 16.0295C66.6507 16.3309 63.4538 16.6512 60.1807 16.9903C56.9076 17.2917 53.6155 17.6873 50.3044 18.1771C50.8372 18.8553 51.2178 19.6089 51.4462 20.4378C51.6745 21.2291 51.5984 22.0015 51.2178 22.755C48.3634 26.2968 45.509 30.2341 42.6546 34.5671C44.1008 34.2657 45.528 34.0019 46.9362 33.7759C48.3444 33.5498 49.7716 33.3237 51.2178 33.0977C52.7402 32.8716 54.3006 32.6455 55.8991 32.4195C57.5356 32.1557 59.1151 31.8731 60.6374 31.5717C60.8658 31.6094 60.9419 31.8543 60.8658 32.3064C60.8277 32.7209 60.6945 33.2295 60.4662 33.8324C60.2759 34.4352 59.9904 35.0946 59.6098 35.8105C59.2673 36.4887 58.9057 37.1292 58.5252 37.7321C58.1826 38.3349 57.8401 38.8436 57.4976 39.258C57.155 39.6725 56.8696 39.8986 56.6412 39.9362C55.9942 40.0116 55.3472 40.0681 54.7002 40.1058C54.0532 40.1435 53.3872 40.1811 52.7021 40.2188C50.4567 40.4072 48.0589 40.6333 45.509 40.897C42.959 41.1231 40.352 41.5376 37.6879 42.1404C35.8611 45.0416 34.0913 47.9617 32.3787 50.9006C30.7041 53.8395 29.1627 56.6842 27.7545 59.4347C26.3463 62.1475 25.1094 64.7284 24.0437 67.1775C23.0162 69.6643 22.2359 71.8873 21.7031 73.8465C21.1703 74.9392 20.5423 75.5232 19.8192 75.5985C19.0961 75.6739 18.4491 75.4102 17.8782 74.8073C17.3454 74.2045 16.9648 73.3379 16.7364 72.2075C16.5461 71.0772 16.7174 69.8526 17.2502 68.5339C17.5166 67.0645 17.9543 65.4443 18.5633 63.6734C19.2103 61.9026 19.9714 60.0375 20.8468 58.0782C21.7222 56.119 22.6927 54.0844 23.7583 51.9744C24.824 49.8644 25.9657 47.7168 27.1836 45.5314C25.5851 46.285 24.0628 47.1328 22.6165 48.0747C21.2084 48.979 19.8573 50.034 18.5633 51.2397C18.2588 51.5411 17.9163 51.9367 17.5357 52.4265C17.1551 52.8787 16.7745 53.4062 16.3939 54.009C16.0514 54.5742 15.7469 55.1959 15.4805 55.8741C15.2141 56.5523 15.0238 57.2305 14.9096 57.9087C14.8335 58.4362 14.8145 58.9637 14.8525 59.4912C14.9286 60.0187 15.138 60.4896 15.4805 60.9041L15.6518 61.4128C15.6898 61.9779 15.4995 62.4112 15.0809 62.7126C14.6622 62.9764 14.1484 63.1271 13.5395 63.1648C12.9305 63.2025 12.3216 63.1459 11.7127 62.9952C11.1418 62.8068 10.7421 62.5431 10.5138 62.204C10.2093 61.5635 10.0381 60.9041 10 60.2259C10 59.51 10.0571 58.7753 10.1713 58.0217C10.3235 57.0421 10.6089 56.0248 11.0276 54.9698C11.4843 53.9148 11.9981 52.8975 12.569 51.9179C13.1399 50.9382 13.7298 50.0528 14.3387 49.2616C14.9857 48.4327 15.5756 47.7544 16.1085 47.227C18.6204 44.8532 21.1893 42.894 23.8154 41.3492C26.4415 39.7667 29.1246 38.4668 31.8649 37.4495C33.8439 34.0961 35.804 30.8935 37.745 27.8416C39.724 24.752 41.5509 21.945 43.2255 19.4205C42.1979 19.6089 41.1703 19.8161 40.1427 20.0422C39.1532 20.2683 38.1636 20.5132 37.1741 20.7769C35.6898 21.2291 33.92 21.8884 31.8649 22.755C29.8477 23.6216 27.8687 24.6578 25.9277 25.8635C24.0247 27.0315 22.3501 28.3314 20.9039 29.7632C19.4957 31.1572 18.6584 32.6267 18.392 34.1715C18.2398 35.1134 18.3539 36.1119 18.7345 37.1669C19.1151 38.1842 19.9144 39.2392 21.1322 40.3319L21.3606 40.9535Z" fill="white"/>
<path d="M72.8517 35.4149C72.395 36.1308 71.767 37.1104 70.9677 38.3538C70.1685 39.5971 69.2932 40.9912 68.3417 42.536C67.4283 44.0432 66.4768 45.6445 65.4873 47.34C64.4977 48.9978 63.5843 50.618 62.747 52.2005C61.9097 53.7453 61.2056 55.177 60.6347 56.4958C60.0639 57.8145 59.7213 58.8695 59.6072 59.6607C59.531 59.7738 59.493 59.868 59.493 59.9433C59.493 60.0187 59.474 60.0752 59.4359 60.1129H59.8355C60.9392 59.7361 62.0239 59.1332 63.0896 58.3043C64.1552 57.4377 65.1828 56.4769 66.1723 55.4219C67.1619 54.3293 68.1133 53.1801 69.0267 51.9744C69.9402 50.731 70.8155 49.5253 71.6528 48.3573H71.5957C71.8241 48.0182 72.0715 47.6979 72.3379 47.3965C72.6043 47.0574 72.8517 46.7371 73.08 46.4357C73.2323 46.2096 73.4987 46.1531 73.8793 46.2662C74.2598 46.3792 74.6214 46.5676 74.9639 46.8313C75.3445 47.0951 75.63 47.4153 75.8203 47.7921C76.0486 48.1312 76.0867 48.4327 75.9344 48.6964L74.0505 51.2397C72.4901 53.3873 70.7965 55.5726 68.9697 57.7957C67.1809 59.981 65.2779 61.9026 63.2608 63.5604C62.9183 63.8618 62.4806 64.2009 61.9478 64.5777C61.415 64.9168 60.825 65.2371 60.178 65.5385C59.531 65.8399 58.846 66.0848 58.1229 66.2732C57.3997 66.4993 56.6766 66.6123 55.9535 66.6123C55.1162 66.5747 54.4311 66.3674 53.8983 65.9906C53.3655 65.6139 52.9468 65.124 52.6424 64.5212C52.376 63.8807 52.2237 63.1648 52.1857 62.3735C52.1095 61.5446 52.1476 60.6404 52.2998 59.6607C52.376 59.2463 52.4711 58.813 52.5853 58.3608C52.6995 57.871 52.8327 57.4377 52.9849 57.0609C54.1267 53.2931 55.7061 49.6384 57.7232 46.0966C59.7784 42.5172 61.8907 38.9943 64.0601 35.5279L67.1428 30.7805C68.0182 29.3487 68.8745 27.8981 69.7118 26.4286C70.5872 24.9215 71.4054 23.4521 72.1666 22.0203C72.9658 20.5885 73.689 19.2133 74.336 17.8946C75.021 16.5381 75.5919 15.2948 76.0486 14.1644C76.6576 13.863 77.3617 13.8818 78.1609 14.2209C78.9982 14.5224 79.7403 15.0122 80.3873 15.6904C81.0724 16.3686 81.5862 17.1598 81.9287 18.0641C82.2713 18.9307 82.2713 19.7785 81.9287 20.6074C81.6623 21.1726 81.2056 21.9826 80.5586 23.0376C79.9497 24.0926 79.2265 25.2795 78.3892 26.5982C77.59 27.9169 76.7337 29.2922 75.8203 30.724C74.9449 32.118 74.1076 33.4368 73.3084 34.6801L72.8517 35.4149Z" fill="white"/>
<path d="M97.831 42.4795C97.7929 42.7056 97.6407 42.894 97.3743 43.0447C97.1459 43.1577 96.8605 43.2519 96.5179 43.3273C96.1754 43.3649 95.8138 43.3838 95.4333 43.3838C95.0907 43.3838 94.7863 43.3273 94.5198 43.2142C95.0527 43.5533 95.5474 43.949 96.0041 44.4011C96.4609 44.8532 96.8414 45.3619 97.1459 45.9271C97.4504 46.4546 97.6407 47.0009 97.7168 47.5661C97.831 48.1312 97.7739 48.6776 97.5455 49.205C97.3933 49.4688 97.222 49.7702 97.0317 50.1093C96.8414 50.4107 96.6511 50.731 96.4608 51.0701C96.0422 51.786 95.6045 52.5584 95.1478 53.3873C94.7292 54.2162 94.3295 55.0263 93.949 55.8176C93.5684 56.6088 93.2258 57.3624 92.9214 58.0782C92.655 58.7564 92.4837 59.3405 92.4076 59.8303C92.4076 59.9056 92.3695 59.9621 92.2934 59.9998C92.2553 60.0375 92.2173 60.0752 92.1792 60.1129H92.5788C93.7206 59.7361 94.8243 59.1144 95.89 58.2478C96.9556 57.3812 97.9832 56.4016 98.9727 55.3089C100 54.1786 100.971 52.9917 101.884 51.7483C102.836 50.4673 103.73 49.2427 104.567 48.0747C104.872 47.7733 105.1 47.5095 105.252 47.2835C105.405 47.0574 105.557 46.8125 105.709 46.5487C105.861 46.3604 106.147 46.3227 106.565 46.4357C106.984 46.5111 107.384 46.6806 107.764 46.9444C108.145 47.2081 108.449 47.5284 108.678 47.9052C108.906 48.2443 108.906 48.5457 108.678 48.8094L107.022 51.0701V51.1266C105.386 53.3496 103.673 55.5538 101.884 57.7391C100.134 59.8868 98.1735 61.8272 96.0041 63.5604C95.6616 63.8618 95.2239 64.2009 94.6911 64.5777C94.1963 64.9168 93.6255 65.2371 92.9785 65.5385C92.3695 65.8776 91.7035 66.1414 90.9804 66.3297C90.2572 66.5558 89.5151 66.65 88.7539 66.6123C86.9271 66.4616 85.6331 65.8211 84.8719 64.6907C84.1488 63.5604 83.8824 62.1475 84.0727 60.452C82.36 62.0344 80.6283 63.4097 78.8776 64.5777C77.1269 65.7081 75.4523 66.2921 73.8538 66.3297C72.4076 66.179 71.2468 65.7834 70.3714 65.1429C69.5341 64.4647 68.9062 63.6734 68.4875 62.7692C68.0689 61.8649 67.8215 60.9041 67.7454 59.8868C67.7073 58.8318 67.7454 57.8522 67.8596 56.9479C68.0118 56.119 68.1831 55.4408 68.3733 54.9133C68.7539 53.5192 69.3819 51.9932 70.2573 50.3354C71.1326 48.6776 72.1792 47.0197 73.3971 45.3619C74.615 43.7041 75.9471 42.1027 77.3933 40.5579C78.8776 39.0131 80.438 37.6379 82.0746 36.4322C83.7111 35.2265 85.3667 34.2657 87.0413 33.5498C88.7539 32.8339 90.4475 32.476 92.1221 32.476C92.6169 32.476 93.0926 32.5137 93.5493 32.589C94.0061 32.6644 94.5008 32.7774 95.0336 32.9281C95.9471 33.2295 96.6321 33.7194 97.0888 34.3976C97.5836 35.0381 97.9071 35.8105 98.0593 36.7148C98.2496 37.5814 98.3067 38.5233 98.2306 39.5406C98.1925 40.5202 98.0593 41.4999 97.831 42.4795ZM91.1516 42.4795C91.5322 42.2911 91.9699 42.2534 92.4647 42.3665C92.9975 42.4795 93.5303 42.6867 94.0631 42.9882C93.8728 42.7998 93.8158 42.5925 93.8919 42.3665C93.9299 42.2534 93.9299 42.1216 93.8919 41.9709C93.8919 41.8201 93.9109 41.6694 93.949 41.5187C93.987 41.1419 94.006 40.7463 94.006 40.3319C94.006 39.9174 93.949 39.5406 93.8348 39.2015C93.7206 38.8247 93.5303 38.5233 93.2639 38.2972C92.9975 38.0712 92.6359 37.9393 92.1792 37.9016C90.771 37.8639 89.3248 38.3726 87.8405 39.4276C86.3562 40.4449 84.929 41.7448 83.5589 43.3273C82.1887 44.9097 80.9328 46.6053 79.791 48.4138C78.6873 50.2224 77.812 51.8614 77.165 53.3308C76.9747 53.7453 76.7844 54.2728 76.5941 54.9133C76.4038 55.5161 76.2706 56.119 76.1945 56.7218C76.1183 57.1363 76.0803 57.5319 76.0803 57.9087C76.0803 58.2855 76.1564 58.6057 76.3086 58.8695C76.4989 59.1332 76.7653 59.3028 77.1079 59.3781C77.4504 59.4535 77.9261 59.4158 78.5351 59.2651C79.106 59.1144 79.8291 58.6811 80.7044 57.9652C81.5798 57.2493 82.4932 56.4204 83.4447 55.4785C84.4342 54.4988 85.3857 53.4627 86.2991 52.37C87.2506 51.2773 88.0498 50.2977 88.6968 49.4311C89.2677 48.3008 89.7815 47.2081 90.2382 46.1531C90.733 45.0605 91.0755 44.1373 91.2658 43.3838L91.1516 42.4795Z" fill="white"/>
<path d="M126.045 55.3654C124.979 56.6465 123.8 57.9652 122.506 59.3216C121.212 60.6403 119.842 61.846 118.395 62.9387C116.949 64.0314 115.446 64.9168 113.885 65.595C112.325 66.2732 110.784 66.5746 109.261 66.4993C108.386 66.4616 107.644 66.2544 107.035 65.8776C106.426 65.5008 105.95 65.011 105.607 64.4082C105.303 63.7676 105.113 63.0517 105.037 62.2605C104.96 61.4693 104.999 60.6403 105.151 59.7738C105.417 58.5304 105.798 57.3624 106.293 56.2697C106.787 55.177 107.358 54.1409 108.005 53.1613C108.69 52.1816 109.413 51.2208 110.175 50.2789C110.936 49.3369 111.735 48.3761 112.572 47.3965L113.942 45.814V45.8705L115.598 43.949C115.902 43.5345 116.302 43.1577 116.797 42.8186C117.33 42.4795 118.148 42.1592 119.252 41.8578C118.719 41.9709 118.281 42.0651 117.939 42.1404C117.596 42.1781 117.292 42.2346 117.025 42.31C116.53 42.423 116.036 42.536 115.541 42.6491C115.046 42.7621 114.475 42.7998 113.828 42.7621H113.257C112.23 44.0432 111.259 45.3054 110.346 46.5487C109.432 47.7544 108.576 48.9036 107.777 49.9963V49.9398C107.625 50.1658 107.358 50.2224 106.978 50.1093C106.597 49.9963 106.235 49.8079 105.893 49.5442C105.55 49.2427 105.265 48.9225 105.037 48.5834C104.846 48.2066 104.865 47.8863 105.094 47.6226V47.6791C106.197 46.2473 107.13 45.0039 107.891 43.949C108.652 42.8563 109.337 41.8955 109.946 41.0666C109.642 40.4261 109.585 39.6725 109.775 38.8059C109.965 37.6379 110.384 36.6017 111.031 35.6975C111.678 34.7932 112.439 33.7382 113.314 32.5325C113.657 32.0427 114.019 31.4963 114.399 30.8935C114.818 30.2907 115.236 29.5559 115.655 28.6893C116.188 28.9908 116.721 29.311 117.254 29.6501C117.786 29.9515 118.243 30.3283 118.624 30.7805C119.042 31.1949 119.347 31.6847 119.537 32.2499C119.727 32.8151 119.765 33.4556 119.651 34.1715C119.575 34.5106 119.48 34.8874 119.366 35.3018C119.252 35.6786 119.042 36.1308 118.738 36.6582L116.34 39.2015C116.15 39.4276 116.245 39.4653 116.626 39.3146C117.006 39.1262 117.558 38.8247 118.281 38.4103C119.004 37.9958 119.822 37.506 120.736 36.9408C121.649 36.3757 122.544 35.8105 123.419 35.2453C124.294 34.6801 125.056 34.1527 125.703 33.6628C126.388 33.173 126.863 32.7962 127.13 32.5325C127.358 32.5325 127.644 32.6455 127.986 32.8716C128.329 33.0977 128.652 33.3614 128.957 33.6628C129.299 33.9266 129.585 34.1903 129.813 34.4541C130.079 34.6801 130.232 34.8309 130.27 34.9062C130.574 35.5467 130.574 36.3191 130.27 37.2234C129.965 38.09 129.451 39.0508 128.728 40.1058C128.043 41.1608 127.187 42.2911 126.159 43.4968C125.17 44.6648 124.123 45.8705 123.019 47.1139C122.372 47.7921 121.744 48.4703 121.136 49.1485C120.527 49.8267 119.918 50.5238 119.309 51.2397C118.852 51.7672 118.338 52.37 117.767 53.0482C117.196 53.7264 116.645 54.4235 116.112 55.1393C115.579 55.8176 115.122 56.4958 114.742 57.174C114.361 57.8522 114.133 58.4173 114.057 58.8695C113.98 59.0955 114.171 59.2086 114.627 59.2086C115.046 59.2463 115.598 59.1144 116.283 58.813C116.968 58.4739 117.71 58.0217 118.509 57.4566C119.309 56.8537 120.127 56.1567 120.964 55.3654C121.802 54.5742 122.582 53.7076 123.305 52.7656H123.248C124.237 51.5599 125.17 50.3731 126.045 49.205C126.92 48.037 127.625 47.0386 128.157 46.2096C128.348 46.0213 128.633 46.0024 129.014 46.1531C129.394 46.2662 129.756 46.4734 130.098 46.7748C130.441 47.0762 130.707 47.4342 130.898 47.8486C131.088 48.2254 131.069 48.5457 130.841 48.8094L130.898 48.6964L128.842 51.5223L126.159 55.3089L126.045 55.3654Z" fill="white"/>
<path d="M135.958 32.9281C136.529 32.6644 137.195 32.7209 137.957 33.0977C138.718 33.4368 139.384 33.9643 139.955 34.6801C140.526 35.3584 140.925 36.1684 141.153 37.1104C141.382 38.0147 141.249 38.9001 140.754 39.7667C140.83 39.6913 140.792 39.7667 140.64 39.9928C140.487 40.2188 140.278 40.5203 140.012 40.897C139.745 41.2738 139.441 41.7071 139.098 42.1969C138.756 42.6867 138.451 43.1389 138.185 43.5533C137.5 44.533 136.739 45.6256 135.901 46.8313C135.102 47.9994 134.284 49.205 133.447 50.4484C132.647 51.6541 131.867 52.841 131.106 54.009C130.383 55.177 129.755 56.2132 129.222 57.1174C128.727 58.0217 128.366 58.7564 128.137 59.3216C127.909 59.8491 127.909 60.1129 128.137 60.1129H128.537C129.755 59.7361 130.954 59.1332 132.134 58.3043C133.313 57.4377 134.436 56.4581 135.502 55.3654C136.605 54.2728 137.671 53.1236 138.699 51.9179C139.726 50.6745 140.716 49.4876 141.667 48.3573L142.695 47.0009C142.923 46.7748 143.228 46.7371 143.608 46.8878C143.989 47.0009 144.331 47.227 144.636 47.5661C144.978 47.8675 145.226 48.2254 145.378 48.6399C145.53 49.0167 145.492 49.3369 145.264 49.6007L145.321 49.4876C143.418 51.9367 141.287 54.4235 138.927 56.9479C136.567 59.4723 134.189 61.6953 131.791 63.6169C131.41 63.8807 130.935 64.2009 130.364 64.5777C129.831 64.9168 129.241 65.2371 128.594 65.5385C127.947 65.8399 127.262 66.0848 126.539 66.2732C125.816 66.4993 125.112 66.6123 124.427 66.6123C122.942 66.5747 121.953 66.0095 121.458 64.9168C120.925 63.7865 120.792 62.3924 121.058 60.7345C121.325 59.4535 121.743 58.1724 122.314 56.8914L122.257 56.9479C123.018 55.064 124.103 52.8787 125.511 50.3919C126.958 47.9052 128.442 45.4184 129.964 42.9317C130.954 41.2361 131.905 39.5971 132.819 38.0147C133.77 36.3945 134.569 34.9251 135.216 33.6063L135.958 32.9281ZM144.636 15.6339C145.093 15.5585 145.625 15.8223 146.234 16.4251C146.881 16.9903 147.471 17.6685 148.004 18.4597C148.575 19.2133 149.032 19.9857 149.374 20.7769C149.755 21.5305 149.907 22.0768 149.831 22.4159C149.412 23.5086 148.937 24.4694 148.404 25.2983C147.909 26.1272 147.395 26.975 146.862 27.8416C146.33 28.7082 145.778 29.5936 145.207 30.4979C144.674 31.4022 144.141 32.4571 143.608 33.6628C143.152 33.5498 142.657 33.2861 142.124 32.8716C141.629 32.4195 141.173 31.9108 140.754 31.3456C140.335 30.7805 139.993 30.1965 139.726 29.5936C139.498 28.9908 139.422 28.4821 139.498 28.0676C139.688 27.3141 139.936 26.4852 140.24 25.5809C140.583 24.6766 140.963 23.7347 141.382 22.755C141.8 21.7754 142.2 20.7769 142.581 19.7596C142.961 18.7423 143.266 17.7627 143.494 16.8207L144.636 15.6339Z" fill="white"/>
<path d="M164.771 42.9882C162.487 46.3792 159.785 49.205 156.664 51.4657C153.581 53.7264 150.27 55.4031 146.731 56.4958C146.617 57.5131 146.674 58.4739 146.902 59.3781C147.168 60.2824 147.739 60.8287 148.615 61.0171L148.5 60.9606C149.224 61.149 150.099 61.0925 151.127 60.7911C152.192 60.4896 153.334 59.9621 154.552 59.2086C155.808 58.4173 157.121 57.4 158.491 56.1567C159.861 54.9133 161.231 53.4438 162.601 51.7483C163.324 50.844 164.01 49.9209 164.657 48.979C165.342 47.9994 165.989 47.0762 166.598 46.2096C167.016 45.7198 167.473 45.4561 167.968 45.4184C168.5 45.3807 168.938 45.5126 169.281 45.814C169.661 46.0778 169.89 46.4734 169.966 47.0009C170.08 47.4907 169.909 48.0559 169.452 48.6964L168.025 50.731C166.807 52.4265 165.323 54.3104 163.572 56.3827C161.859 58.4173 159.899 60.3954 157.692 62.317C156.398 63.372 155.142 64.2009 153.924 64.8038C152.706 65.3689 151.583 65.7834 150.556 66.0472C149.528 66.3486 148.596 66.5181 147.758 66.5558C146.959 66.6312 146.331 66.6688 145.874 66.6688C142.906 66.6688 140.756 65.8211 139.423 64.1256C138.129 62.4301 137.673 60.1129 138.053 57.174C138.396 54.6119 139.214 52.1063 140.508 49.6572C141.84 47.2081 143.705 44.5518 146.103 41.6883C146.94 40.7463 147.987 39.7478 149.243 38.6929C150.499 37.6002 151.869 36.6017 153.353 35.6975C154.837 34.7932 156.379 34.0585 157.977 33.4933C159.614 32.9281 161.174 32.6644 162.658 32.702C164.219 32.7397 165.399 33.2672 166.198 34.2845C166.997 35.2642 167.245 36.6017 166.94 38.2972C166.826 39.0508 166.579 39.8232 166.198 40.6144C165.855 41.368 165.361 42.1781 164.714 43.0447L164.771 42.9882ZM161.802 38.3538C160.432 38.6175 159.081 39.2204 157.749 40.1623C156.417 41.1043 155.161 42.2158 153.981 43.4968C152.801 44.7779 151.716 46.1531 150.727 47.6226C149.737 49.0543 148.919 50.4107 148.272 51.6918C150.974 50.5991 153.486 49.1297 155.808 47.2835C158.129 45.3996 160.108 43.1577 161.745 40.5579V40.6144C161.973 40.313 162.126 40.0116 162.202 39.7102C162.316 39.4087 162.411 39.145 162.487 38.9189C162.563 38.3914 162.335 38.203 161.802 38.3538Z" fill="white"/>
<defs>
<filter id="filter0_f_3_2" x="6" y="0.5" width="168" height="79.1111" filterUnits="userSpaceOnUse" color-interpolation-filters="sRGB">
<feFlood flood-opacity="0" result="BackgroundImageFix"/>
<feBlend mode="normal" in="SourceGraphic" in2="BackgroundImageFix" result="shape"/>
<feGaussianBlur stdDeviation="2" result="effect1_foregroundBlur_3_2"/>
</filter>
</defs>
</svg>
