<svg width="200" height="200" viewBox="0 0 200 200" fill="none" xmlns="http://www.w3.org/2000/svg">
<path d="M28 132.156C28 173.647 62.875 200 101.687 200C140.5 200 172 164.676 172 129.913C172 95.1503 147.812 69.9191 147.812 69.9191C152.312 88.9827 145 104.682 132.625 104.682C120.25 104.682 122.5 90.104 122.5 63.7514C122.5 37.3988 87.625 6 87.625 6C87.0899 20.4015 87.625 28.4277 75.25 48.052C62.875 67.6763 28 95.5396 28 132.156Z" fill="#FFA37E"/>
<path d="M38.9254 116C28.4529 138.449 41.3917 162.02 49.1701 171C49.1701 159.327 53.7234 154.537 56 153.602C44.6169 139.684 39.874 122.735 38.9254 116Z" fill="#FEFFFF"/>
<path d="M87.5517 7.78901C99.7531 23.3951 115.719 50.9163 110.687 73.75C103.581 106.003 111.881 111.161 120.615 116.589C120.868 116.747 121.122 116.904 121.375 117.062C128.308 121.395 150.593 124.059 168.949 108.344C162.447 85.1272 147.812 69.8125 147.812 69.8125C152.312 88.9375 145 104.688 132.625 104.688C122.016 104.688 122.156 93.9393 122.412 74.2148C122.454 70.9309 122.5 67.3983 122.5 63.625C122.5 37.1875 87.625 5.68752 87.625 5.68752C87.5985 6.40297 87.5746 7.10274 87.5517 7.78901Z" fill="#FEE9CA"/>
<path d="M59.3096 47C58.195 41.8621 51.1849 40.9178 48.4856 35.5C47.0633 32.6452 49.044 26.7034 50.8399 24C52.0024 28.6667 49.9431 30.3 56.3203 35.5C59.4926 38.0867 60.9745 44.5959 59.3096 47Z" fill="#FEE9CA"/>
<path d="M67.5108 42C66.0336 35.3298 57.2212 27.6126 53.6437 20.5789C51.7585 16.8727 54.3838 8.50967 56.764 5C58.3048 11.0585 59.0585 13.8281 67.5108 20.5789C74.1143 25.8531 69.7175 38.8789 67.5108 42Z" fill="#FFA37E"/>
<path fill-rule="evenodd" clip-rule="evenodd" d="M67.9483 41.6308C67.7939 41.8835 67.6566 42.0966 67.5398 42.2657C67.5385 42.2598 67.5372 42.2538 67.5359 42.2479C70.6783 29.1436 63.7243 21.9272 59.8427 17.8991C58.8881 16.9085 58.1193 16.1107 57.7323 15.4656C55.9105 12.4293 54.7063 9.0585 56.4299 5.76134C56.5862 5.48809 56.7429 5.2334 56.8985 5C58.4247 11.105 59.1713 13.8958 67.5438 20.6985C73.701 25.7012 70.2032 37.6254 67.9483 41.6308Z" fill="#FEE9CA"/>
</svg>
