<svg width="800" height="520" viewBox="0 0 800 520" fill="none" xmlns="http://www.w3.org/2000/svg">
<g clip-path="url(#clip0_42_77)">
<g filter="url(#filter0_d_42_77)">
<rect x="60" y="60" width="680" height="400" rx="10" fill="#1B1D23"/>
</g>
<g filter="url(#filter1_d_42_77)">
<path d="M227.765 193L226.749 183.352C224.422 186.779 221.607 189.466 218.307 191.413C215.048 193.36 211.472 194.333 207.579 194.333C204.024 194.333 200.766 193.783 197.804 192.683C194.841 191.582 192.302 189.826 190.187 187.414C188.071 185.044 186.42 182.019 185.235 178.337C184.093 174.613 183.521 170.148 183.521 164.943V124.318H201.168V165.07C201.168 167.863 201.358 170.212 201.739 172.116C202.162 174.021 202.818 175.544 203.707 176.687C204.596 177.871 205.759 178.718 207.198 179.226C208.637 179.733 210.393 179.987 212.467 179.987C214.329 179.987 216 179.797 217.481 179.416C219.005 179.035 220.338 178.485 221.48 177.766C222.454 177.131 223.321 176.369 224.083 175.48C224.845 174.592 225.501 173.597 226.051 172.497V124.318H243.761V193H227.765ZM293.399 107.497V124.318H319.044V137.331H293.399V166.848C293.399 169.344 293.674 171.439 294.225 173.132C294.817 174.782 295.642 176.094 296.7 177.067C297.758 178.083 299.028 178.802 300.509 179.226C302.032 179.649 303.725 179.86 305.587 179.86C306.941 179.86 308.316 179.797 309.713 179.67C311.152 179.543 312.527 179.374 313.839 179.162C315.108 178.993 316.293 178.802 317.394 178.591C318.536 178.379 319.509 178.168 320.313 177.956L322.027 190.08C320.8 190.799 319.361 191.434 317.711 191.984C316.061 192.492 314.304 192.915 312.442 193.254C310.58 193.592 308.634 193.846 306.603 194.016C304.614 194.227 302.646 194.333 300.699 194.333C296.933 194.333 293.505 193.846 290.416 192.873C287.369 191.857 284.767 190.292 282.608 188.176C280.408 186.102 278.715 183.457 277.53 180.241C276.345 176.983 275.753 173.09 275.753 168.562V137.331H260.074V124.318H275.753V107.497H293.399ZM343.8 124.318H381.188V178.654H399.786V193H343.8V178.654H363.351V138.728H343.8V124.318ZM362.081 106.735C362.081 105.381 362.314 104.133 362.779 102.99C363.287 101.805 363.985 100.79 364.874 99.9434C365.763 99.1393 366.821 98.5046 368.048 98.0391C369.317 97.5736 370.714 97.3408 372.237 97.3408C375.369 97.3408 377.844 98.2295 379.664 100.007C381.526 101.742 382.457 103.985 382.457 106.735C382.457 109.486 381.526 111.75 379.664 113.527C377.844 115.262 375.369 116.13 372.237 116.13C370.714 116.13 369.317 115.897 368.048 115.432C366.821 114.966 365.763 114.31 364.874 113.464C363.985 112.66 363.287 111.687 362.779 110.544C362.314 109.359 362.081 108.09 362.081 106.735ZM420.86 95.5H459.264V178.654H478.941V193H420.86V178.654H441.427V109.909H420.86V95.5ZM539.562 174.147C539.562 173.09 539.308 172.159 538.8 171.354C538.334 170.55 537.488 169.789 536.261 169.069C534.991 168.392 533.32 167.757 531.246 167.165C529.173 166.573 526.549 165.98 523.375 165.388C519.355 164.584 515.673 163.589 512.33 162.404C509.029 161.177 506.194 159.696 503.824 157.961C501.454 156.268 499.592 154.3 498.238 152.058C496.926 149.815 496.271 147.233 496.271 144.313C496.271 141.478 496.948 138.77 498.302 136.188C499.656 133.607 501.603 131.343 504.142 129.396C506.681 127.45 509.77 125.905 513.409 124.763C517.049 123.62 521.153 123.049 525.724 123.049C530.506 123.049 534.801 123.62 538.609 124.763C542.418 125.863 545.655 127.386 548.321 129.333C550.945 131.322 552.955 133.671 554.352 136.379C555.748 139.087 556.446 142.028 556.446 145.202H538.8C538.8 144.06 538.609 143.002 538.229 142.028C537.848 141.013 537.276 140.103 536.515 139.299C535.457 138.241 534.018 137.395 532.198 136.76C530.421 136.125 528.263 135.808 525.724 135.808C523.565 135.808 521.682 136.019 520.074 136.442C518.466 136.866 517.154 137.458 516.139 138.22C515.208 138.897 514.488 139.701 513.98 140.632C513.515 141.521 513.282 142.473 513.282 143.488C513.282 144.504 513.494 145.456 513.917 146.345C514.34 147.191 515.102 147.953 516.202 148.63C517.26 149.349 518.72 150.005 520.582 150.598C522.444 151.148 524.814 151.634 527.691 152.058C531.839 152.735 535.689 153.602 539.244 154.66C542.799 155.718 545.867 157.072 548.448 158.723C551.03 160.415 553.04 162.468 554.479 164.88C555.96 167.25 556.7 170.085 556.7 173.386C556.7 176.433 555.96 179.247 554.479 181.828C553.04 184.367 550.987 186.568 548.321 188.43C545.613 190.292 542.354 191.752 538.546 192.81C534.737 193.825 530.484 194.333 525.787 194.333C520.624 194.333 516.054 193.656 512.076 192.302C508.141 190.948 504.84 189.17 502.174 186.97C499.508 184.812 497.477 182.357 496.08 179.606C494.726 176.813 494.049 174.021 494.049 171.228H510.87C510.997 173.09 511.505 174.698 512.394 176.052C513.282 177.364 514.425 178.422 515.821 179.226C517.218 180.072 518.805 180.686 520.582 181.066C522.402 181.447 524.264 181.638 526.168 181.638C528.453 181.638 530.442 181.447 532.135 181.066C533.87 180.643 535.287 180.093 536.388 179.416C537.446 178.739 538.229 177.956 538.736 177.067C539.286 176.179 539.562 175.205 539.562 174.147Z" fill="white"/>
</g>
<g filter="url(#filter2_d_42_77)">
<path d="M135.78 168.752C135.78 166.975 135.505 165.409 134.955 164.055C134.447 162.658 133.622 161.389 132.479 160.246C131.295 159.104 129.75 158.067 127.846 157.136C125.984 156.162 123.72 155.21 121.054 154.279C116.78 152.756 112.886 151.148 109.374 149.455C105.862 147.762 102.878 145.795 100.424 143.552C97.9271 141.309 96.0016 138.706 94.6475 135.744C93.2933 132.74 92.6162 129.185 92.6162 125.08C92.6162 121.483 93.2298 118.203 94.457 115.241C95.6842 112.237 97.4193 109.634 99.6621 107.434C101.905 105.233 104.613 103.456 107.787 102.102C110.961 100.747 114.494 99.8799 118.388 99.499V85.8516H128.544V99.626C132.353 100.134 135.78 101.171 138.827 102.736C141.874 104.302 144.477 106.333 146.635 108.83C148.751 111.369 150.38 114.353 151.522 117.78C152.707 121.166 153.3 124.974 153.3 129.206H135.653C135.653 126.498 135.315 124.128 134.638 122.097C133.961 120.065 133.008 118.394 131.781 117.082C130.681 115.939 129.348 115.072 127.782 114.479C126.259 113.887 124.566 113.591 122.704 113.591C120.546 113.591 118.663 113.887 117.055 114.479C115.489 115.03 114.198 115.812 113.183 116.828C112.167 117.886 111.405 119.113 110.897 120.51C110.432 121.906 110.199 123.43 110.199 125.08C110.199 126.73 110.432 128.212 110.897 129.523C111.405 130.793 112.252 131.978 113.437 133.078C114.579 134.178 116.103 135.236 118.007 136.252C119.911 137.225 122.281 138.22 125.116 139.235C129.39 140.843 133.262 142.515 136.732 144.25C140.202 145.943 143.186 147.91 145.683 150.153C148.137 152.438 150.02 155.083 151.332 158.088C152.686 161.05 153.363 164.562 153.363 168.625C153.363 172.349 152.75 175.713 151.522 178.718C150.295 181.68 148.539 184.24 146.254 186.398C143.969 188.557 141.218 190.292 138.002 191.604C134.786 192.873 131.189 193.698 127.211 194.079V206.521H117.118V194.079C113.521 193.741 110.03 192.958 106.645 191.73C103.259 190.461 100.276 188.641 97.6943 186.271C95.0706 183.902 92.9759 180.918 91.4102 177.321C89.8444 173.682 89.0615 169.323 89.0615 164.245H106.771C106.771 167.292 107.216 169.852 108.104 171.926C108.993 173.957 110.157 175.565 111.596 176.75C112.992 177.977 114.6 178.845 116.42 179.353C118.24 179.86 120.102 180.114 122.006 180.114C124.418 180.114 126.513 179.818 128.29 179.226C130.067 178.591 131.527 177.723 132.67 176.623C133.686 175.65 134.447 174.486 134.955 173.132C135.505 171.778 135.78 170.318 135.78 168.752Z" fill="white"/>
</g>
</g>
<defs>
<filter id="filter0_d_42_77" x="0" y="0" width="800" height="520" filterUnits="userSpaceOnUse" color-interpolation-filters="sRGB">
<feFlood flood-opacity="0" result="BackgroundImageFix"/>
<feColorMatrix in="SourceAlpha" type="matrix" values="0 0 0 0 0 0 0 0 0 0 0 0 0 0 0 0 0 0 127 0" result="hardAlpha"/>
<feOffset/>
<feGaussianBlur stdDeviation="30"/>
<feComposite in2="hardAlpha" operator="out"/>
<feColorMatrix type="matrix" values="0 0 0 0 0 0 0 0 0 0 0 0 0 0 0 0 0 0 0.25 0"/>
<feBlend mode="normal" in2="BackgroundImageFix" result="effect1_dropShadow_42_77"/>
<feBlend mode="normal" in="SourceGraphic" in2="effect1_dropShadow_42_77" result="shape"/>
</filter>
<filter id="filter1_d_42_77" x="177.521" y="89.5" width="385.179" height="110.833" filterUnits="userSpaceOnUse" color-interpolation-filters="sRGB">
<feFlood flood-opacity="0" result="BackgroundImageFix"/>
<feColorMatrix in="SourceAlpha" type="matrix" values="0 0 0 0 0 0 0 0 0 0 0 0 0 0 0 0 0 0 127 0" result="hardAlpha"/>
<feOffset/>
<feGaussianBlur stdDeviation="3"/>
<feComposite in2="hardAlpha" operator="out"/>
<feColorMatrix type="matrix" values="0 0 0 0 0 0 0 0 0 0 0 0 0 0 0 0 0 0 1 0"/>
<feBlend mode="normal" in2="BackgroundImageFix" result="effect1_dropShadow_42_77"/>
<feBlend mode="normal" in="SourceGraphic" in2="effect1_dropShadow_42_77" result="shape"/>
</filter>
<filter id="filter2_d_42_77" x="83.0615" y="79.8516" width="76.3018" height="132.669" filterUnits="userSpaceOnUse" color-interpolation-filters="sRGB">
<feFlood flood-opacity="0" result="BackgroundImageFix"/>
<feColorMatrix in="SourceAlpha" type="matrix" values="0 0 0 0 0 0 0 0 0 0 0 0 0 0 0 0 0 0 127 0" result="hardAlpha"/>
<feOffset/>
<feGaussianBlur stdDeviation="3"/>
<feComposite in2="hardAlpha" operator="out"/>
<feColorMatrix type="matrix" values="0 0 0 0 0 0 0 0 0 0 0 0 0 0 0 0 0 0 1 0"/>
<feBlend mode="normal" in2="BackgroundImageFix" result="effect1_dropShadow_42_77"/>
<feBlend mode="normal" in="SourceGraphic" in2="effect1_dropShadow_42_77" result="shape"/>
</filter>
<clipPath id="clip0_42_77">
<rect width="800" height="520" fill="white"/>
</clipPath>
</defs>
</svg>
