<svg width="3431" height="587" viewBox="0 0 3431 587" fill="none" xmlns="http://www.w3.org/2000/svg">
<g clip-path="url(#clip0_147_51)">
<path d="M309.76 49.9931C311.467 47.6038 315.733 47.2625 322.56 48.9692C329.387 50.6758 336.213 53.9185 343.04 58.6971C350.208 63.1345 356.181 68.5958 360.96 75.0811C365.739 81.5665 366.933 88.0518 364.544 94.5371C349.525 112.628 334.677 132.596 320 154.441C305.664 176.286 291.499 198.985 277.504 222.537C263.851 246.089 250.709 270.324 238.08 295.241C225.792 319.817 214.357 344.052 203.776 367.945H205.824C207.531 367.945 209.237 367.945 210.944 367.945C212.992 367.945 215.04 367.775 217.088 367.433C219.477 366.409 222.379 366.239 225.792 366.921C243.2 364.873 261.291 360.436 280.064 353.609C298.837 346.782 317.269 337.908 335.36 326.985C353.451 316.062 370.517 303.604 386.56 289.609C402.944 275.273 417.28 259.742 429.568 243.017C441.856 225.95 451.755 208.03 459.264 189.257C467.115 170.484 471.552 151.198 472.576 131.401C472.576 121.844 470.869 111.262 467.456 99.6571C464.043 88.0518 457.557 77.2998 448 67.4012C438.443 57.5025 425.301 49.3105 408.576 42.8251C391.851 35.9985 370.176 32.4145 343.552 32.0732C320.683 33.4385 297.472 40.4358 273.92 53.0652C250.709 65.6945 228.181 81.7372 206.336 101.193C184.491 120.649 164.011 142.324 144.896 166.217C125.781 189.769 109.227 213.321 95.232 236.873C81.5787 260.425 70.8267 282.782 62.976 303.945C55.4667 324.766 52.224 342.004 53.248 355.657C53.5893 361.46 51.0293 364.02 45.568 363.337C40.1067 362.654 33.9627 359.924 27.136 355.145C20.3093 350.025 13.9947 343.369 8.192 335.177C2.73067 326.644 0 317.599 0 308.041C0 306.335 0.170667 304.286 0.512 301.897C0.853333 299.166 1.536 296.436 2.56 293.705H2.048C11.6053 259.23 26.9653 225.609 48.128 192.841C69.2907 159.732 94.72 130.206 124.416 104.265C154.112 77.9825 187.392 56.6492 224.256 40.2651C261.461 23.5398 300.544 14.1532 341.504 12.1051H340.992C348.16 11.0812 355.157 10.3985 361.984 10.0571C368.811 9.7158 375.637 9.54514 382.464 9.54514C410.453 9.54514 434.176 13.1291 453.632 20.2972C473.429 27.4651 489.472 36.8518 501.76 48.4572C514.048 59.7212 522.923 72.6918 528.384 87.3691C534.187 102.046 537.088 117.065 537.088 132.425C537.088 156.318 532.651 178.846 523.776 200.009C514.901 221.172 502.955 240.798 487.936 258.889C472.917 276.98 455.509 293.364 435.712 308.041C415.915 322.719 395.093 335.518 373.248 346.441C351.744 357.022 329.899 365.726 307.712 372.553C285.525 379.38 264.363 383.817 244.224 385.865C249.685 394.399 256.171 404.126 263.68 415.049C271.189 425.63 279.552 436.553 288.768 447.817C298.325 459.081 308.565 470.175 319.488 481.097C330.752 492.02 342.699 501.577 355.328 509.769C367.957 518.302 381.269 525.129 395.264 530.249C409.259 535.369 423.936 537.929 439.296 537.929C448.171 537.929 457.728 536.905 467.968 534.857C470.357 534.857 471.04 537.246 470.016 542.025C469.333 547.145 467.456 552.777 464.384 558.921C461.312 565.406 457.387 571.38 452.608 576.841C447.829 582.303 442.88 585.375 437.76 586.057C418.304 585.033 400.384 581.449 384 575.305C367.957 569.161 353.109 561.14 339.456 551.241C325.803 541.684 313.173 530.591 301.568 517.961C290.304 505.332 279.893 492.02 270.336 478.025C260.779 464.372 251.733 450.377 243.2 436.041C235.008 421.705 227.328 407.71 220.16 394.057L216.576 387.913C214.869 387.913 213.333 387.913 211.968 387.913C210.944 387.572 209.749 387.401 208.384 387.401C205.995 387.401 203.776 387.401 201.728 387.401C199.68 387.401 197.632 387.23 195.584 386.889C182.613 417.95 171.691 447.134 162.816 474.441C154.283 501.748 148.651 525.641 145.92 546.121C145.237 548.169 142.848 547.657 138.752 544.585C134.656 541.854 130.219 538.1 125.44 533.321C120.661 528.543 116.224 523.423 112.128 517.961C108.032 512.5 105.984 508.404 105.984 505.673C107.008 488.265 110.592 468.127 116.736 445.257C123.221 422.047 131.413 397.471 141.312 371.529C126.635 364.02 114.859 354.633 105.984 343.369C97.4507 332.105 92.16 319.988 90.112 307.017C90.4533 304.286 92.672 301.214 96.768 297.801C100.864 294.388 106.667 290.974 114.176 287.561C118.613 303.945 123.733 317.257 129.536 327.497C135.68 337.737 142.336 345.758 149.504 351.561C160.427 324.596 172.544 297.118 185.856 269.129C199.509 240.798 213.504 213.321 227.84 186.697C242.176 160.073 256.341 134.985 270.336 111.433C284.331 87.8811 297.472 67.4011 309.76 49.9931Z" fill="white"/>
<path d="M556.252 217.417C560.689 215.71 566.151 215.71 572.636 217.417C579.121 219.124 585.095 222.025 590.556 226.121C596.359 229.876 600.967 234.654 604.38 240.457C608.135 245.918 609.5 251.38 608.476 256.841L590.044 290.633C584.924 299.508 579.292 309.407 573.148 320.329C567.004 331.252 561.031 342.345 555.228 353.609C549.425 364.532 543.964 375.284 538.844 385.865C533.724 396.447 529.628 406.004 526.556 414.537C523.825 422.729 522.289 429.385 521.948 434.505C521.948 439.625 523.996 442.185 528.092 442.185H532.188C541.745 438.772 551.132 433.481 560.348 426.313C569.905 418.804 578.951 410.271 587.484 400.713C596.359 391.156 604.721 381.257 612.572 371.017C620.764 360.436 628.273 350.367 635.1 340.809L642.78 330.057C644.145 328.35 646.364 327.497 649.436 327.497C652.508 327.156 655.239 327.497 657.628 328.521C660.359 329.204 662.407 330.569 663.772 332.617C665.137 334.324 664.796 336.372 662.748 338.761H663.26C649.607 359.924 634.929 380.062 619.228 399.177C603.527 418.292 585.095 436.212 563.932 452.937C561.201 454.985 557.788 457.374 553.692 460.105C549.596 462.836 544.988 465.396 539.868 467.785C534.748 469.833 529.116 471.711 522.972 473.417C517.169 474.783 511.196 475.465 505.052 475.465C492.764 475.124 483.719 471.369 477.916 464.201C472.113 456.692 469.212 447.646 469.212 437.065C469.212 428.532 470.919 418.974 474.332 408.393H473.82C475.527 401.908 478.087 394.399 481.5 385.865C484.913 376.991 488.668 367.604 492.764 357.705C497.201 347.807 501.809 337.567 506.588 326.985C511.708 316.404 516.828 305.822 521.948 295.241C528.775 280.564 535.26 266.569 541.404 253.257C547.548 239.945 552.497 227.998 556.252 217.417ZM610.012 76.1051C613.767 75.4225 618.545 76.9585 624.348 80.7131C630.492 84.4678 636.295 89.0758 641.756 94.5371C647.559 99.6571 652.337 104.948 656.092 110.409C660.188 115.529 662.236 119.113 662.236 121.161C660.871 126.622 658.311 132.937 654.556 140.105C651.143 147.273 647.559 154.441 643.804 161.609C640.391 168.436 637.148 175.262 634.076 182.089C631.004 188.574 628.273 195.913 625.884 204.105C622.129 203.422 617.863 201.716 613.084 198.985C608.647 195.913 604.38 192.5 600.284 188.745C596.529 184.99 593.287 181.236 590.556 177.481C587.825 173.726 586.46 170.654 586.46 168.265C586.801 162.462 587.655 156.148 589.02 149.321C590.727 142.153 592.604 134.644 594.652 126.793C597.041 118.26 599.089 109.726 600.796 101.193C602.844 92.3185 604.209 83.9558 604.892 76.1051H610.012Z" fill="white"/>
<path d="M741.44 253.257C756.459 242.334 772.16 233.46 788.544 226.633C805.269 219.806 821.312 217.246 836.672 218.953C846.912 220.318 855.445 223.049 862.272 227.145C869.44 230.9 875.072 235.508 879.168 240.969C883.605 246.43 886.677 252.574 888.384 259.401C890.091 266.228 890.944 273.225 890.944 280.393C890.944 286.196 890.261 292.51 888.896 299.337C887.872 306.164 886.336 312.82 884.288 319.305C878.485 338.42 870.123 357.193 859.2 375.625C848.619 393.716 836.16 409.929 821.824 424.265C807.488 438.601 791.616 450.207 774.208 459.081C756.8 467.956 738.709 472.564 719.936 472.905C705.6 473.246 693.824 471.199 684.608 466.761C675.392 462.324 668.224 456.863 663.104 450.377C662.421 453.791 661.909 457.204 661.568 460.617C661.568 464.03 661.397 467.615 661.056 471.369C660.715 474.441 657.984 475.636 652.864 474.953C647.744 474.27 642.283 472.734 636.48 470.345C630.677 467.614 625.216 464.372 620.096 460.617C614.976 456.862 612.245 453.279 611.904 449.865C612.928 432.116 615.829 414.025 620.608 395.593C625.387 376.82 631.36 358.046 638.528 339.273C646.037 320.158 654.4 301.044 663.616 281.929C672.832 262.815 682.048 243.87 691.264 225.097L706.112 194.889C717.376 171.678 727.957 148.297 737.856 124.745C747.755 101.193 755.093 80.5425 759.872 62.7932C764.309 60.7451 769.941 60.5745 776.768 62.2811C783.936 63.9878 790.592 66.8892 796.736 70.9851C803.221 75.0811 808.512 80.0305 812.608 85.8331C816.704 91.6358 817.899 97.4385 816.192 103.241C814.485 107.678 811.584 114.164 807.488 122.697C803.392 131.23 798.784 140.788 793.664 151.369C788.544 161.95 783.083 173.044 777.28 184.649C771.477 196.254 765.845 207.348 760.384 217.929L741.44 253.257ZM710.208 312.137C699.968 332.617 690.752 353.609 682.56 375.113C681.536 380.916 681.024 387.06 681.024 393.545C681.024 403.444 682.901 412.66 686.656 421.193C690.411 429.727 697.237 434.334 707.136 435.017C714.987 435.7 723.52 433.31 732.736 427.849C742.293 422.388 751.68 415.22 760.896 406.345C770.453 397.129 779.499 386.548 788.032 374.601C796.907 362.655 804.757 350.708 811.584 338.761C818.411 326.473 823.872 314.526 827.968 302.921C832.064 291.316 834.112 281.247 834.112 272.713C834.112 264.862 832.747 258.889 830.016 254.793C827.285 250.356 823.019 247.966 817.216 247.625C809.365 247.284 800.661 248.82 791.104 252.233C781.547 255.305 771.989 259.743 762.432 265.545C752.875 271.348 743.488 278.345 734.272 286.537C725.397 294.388 717.376 302.921 710.208 312.137Z" fill="white"/>
<path d="M1002.94 253.257C1017.96 242.334 1033.66 233.46 1050.04 226.633C1066.77 219.806 1082.81 217.246 1098.17 218.953C1108.41 220.318 1116.95 223.049 1123.77 227.145C1130.94 230.9 1136.57 235.508 1140.67 240.969C1145.11 246.43 1148.18 252.574 1149.88 259.401C1151.59 266.228 1152.44 273.225 1152.44 280.393C1152.44 286.196 1151.76 292.51 1150.4 299.337C1149.37 306.164 1147.84 312.82 1145.79 319.305C1139.99 338.42 1131.62 357.193 1120.7 375.625C1110.12 393.716 1097.66 409.929 1083.32 424.265C1068.99 438.601 1053.12 450.207 1035.71 459.081C1018.3 467.956 1000.21 472.564 981.436 472.905C967.1 473.246 955.324 471.199 946.108 466.761C936.892 462.324 929.724 456.863 924.604 450.377C923.921 453.791 923.409 457.204 923.068 460.617C923.068 464.03 922.897 467.615 922.556 471.369C922.215 474.441 919.484 475.636 914.364 474.953C909.244 474.27 903.783 472.734 897.98 470.345C892.177 467.614 886.716 464.372 881.596 460.617C876.476 456.862 873.745 453.279 873.404 449.865C874.428 432.116 877.329 414.025 882.108 395.593C886.887 376.82 892.86 358.046 900.028 339.273C907.537 320.158 915.9 301.044 925.116 281.929C934.332 262.815 943.548 243.87 952.764 225.097L967.612 194.889C978.876 171.678 989.457 148.297 999.356 124.745C1009.25 101.193 1016.59 80.5425 1021.37 62.7932C1025.81 60.7451 1031.44 60.5745 1038.27 62.2811C1045.44 63.9878 1052.09 66.8892 1058.24 70.9851C1064.72 75.0811 1070.01 80.0305 1074.11 85.8331C1078.2 91.6358 1079.4 97.4385 1077.69 103.241C1075.99 107.678 1073.08 114.164 1068.99 122.697C1064.89 131.23 1060.28 140.788 1055.16 151.369C1050.04 161.95 1044.58 173.044 1038.78 184.649C1032.98 196.254 1027.35 207.348 1021.88 217.929L1002.94 253.257ZM971.708 312.137C961.468 332.617 952.252 353.609 944.06 375.113C943.036 380.916 942.524 387.06 942.524 393.545C942.524 403.444 944.401 412.66 948.156 421.193C951.911 429.727 958.737 434.334 968.636 435.017C976.487 435.7 985.02 433.31 994.236 427.849C1003.79 422.388 1013.18 415.22 1022.4 406.345C1031.95 397.129 1041 386.548 1049.53 374.601C1058.41 362.655 1066.26 350.708 1073.08 338.761C1079.91 326.473 1085.37 314.526 1089.47 302.921C1093.56 291.316 1095.61 281.247 1095.61 272.713C1095.61 264.862 1094.25 258.889 1091.52 254.793C1088.79 250.356 1084.52 247.966 1078.72 247.625C1070.87 247.284 1062.16 248.82 1052.6 252.233C1043.05 255.305 1033.49 259.743 1023.93 265.545C1014.37 271.348 1004.99 278.345 995.772 286.537C986.897 294.388 978.876 302.921 971.708 312.137Z" fill="white"/>
<path d="M1316.15 215.369C1324.69 216.393 1332.02 218.441 1338.17 221.513C1344.31 224.585 1349.26 228.34 1353.02 232.777C1357.11 237.214 1360.01 242.164 1361.72 247.625C1363.77 253.086 1365.13 258.548 1365.82 264.009C1372.3 271.177 1376.4 281.076 1378.1 293.705C1378.45 296.095 1378.62 298.484 1378.62 300.873C1378.96 303.263 1379.13 305.822 1379.13 308.553C1379.13 321.182 1377.25 333.982 1373.5 346.953C1370.08 359.924 1365.13 372.553 1358.65 384.841C1352.16 397.129 1344.48 408.734 1335.61 419.657C1326.73 430.238 1317.01 439.625 1306.42 447.817C1296.18 456.009 1285.26 462.494 1273.66 467.273C1262.39 471.71 1250.79 473.929 1238.84 473.929C1218.02 473.588 1199.59 467.273 1183.54 454.985C1167.5 442.356 1156.58 424.606 1150.78 401.737C1149.07 394.228 1148.22 387.06 1148.22 380.233C1148.22 361.46 1152.99 342.004 1162.55 321.865C1172.11 301.727 1184.74 283.465 1200.44 267.081C1216.48 250.697 1234.4 237.556 1254.2 227.657C1274.34 217.758 1294.99 213.662 1316.15 215.369ZM1304.89 318.281C1302.84 317.598 1301.13 316.062 1299.77 313.673C1298.74 310.942 1297.89 307.87 1297.21 304.457C1296.87 301.044 1296.7 297.631 1296.7 294.217C1296.7 290.804 1296.7 287.732 1296.7 285.001C1297.04 282.27 1298.57 279.54 1301.3 276.809C1304.03 273.737 1306.94 271.006 1310.01 268.617C1313.42 266.228 1316.66 264.18 1319.74 262.473C1323.15 260.425 1325.37 259.06 1326.39 258.377C1329.46 256.671 1332.37 255.646 1335.1 255.305C1334.75 250.526 1333.22 246.43 1330.49 243.017C1327.76 239.604 1322.47 238.238 1314.62 238.921C1307.79 239.604 1299.43 242.505 1289.53 247.625C1279.97 252.745 1270.93 259.572 1262.39 268.105H1262.9C1255.05 275.956 1247.89 285.001 1241.4 295.241C1235.26 305.14 1229.97 315.551 1225.53 326.473C1221.09 337.055 1217.51 347.806 1214.78 358.729C1212.39 369.652 1211.19 379.892 1211.19 389.449C1211.19 403.785 1213.92 415.902 1219.38 425.801C1225.19 435.7 1234.4 440.99 1247.03 441.673C1259.66 442.356 1272.12 437.748 1284.41 427.849C1296.7 417.95 1307.62 405.492 1317.18 390.473C1327.07 375.455 1334.93 359.412 1340.73 342.345C1346.87 324.937 1349.77 309.065 1349.43 294.729C1349.43 287.902 1348.75 283.806 1347.38 282.441C1344.31 282.441 1340.9 283.806 1337.14 286.537C1333.39 288.927 1329.81 291.999 1326.39 295.753C1322.98 299.167 1319.91 302.921 1317.18 307.017C1314.79 311.113 1313.42 314.868 1313.08 318.281H1304.89Z" fill="white"/>
<path d="M1665.7 377.673C1660.92 385.182 1654.43 394.569 1646.24 405.833C1638.05 416.756 1628.83 427.337 1618.59 437.577C1608.35 447.817 1597.43 456.692 1585.82 464.201C1574.56 471.369 1563.13 474.953 1551.52 474.953C1544.69 474.953 1538.21 473.929 1532.06 471.881C1525.92 469.833 1520.46 466.761 1515.68 462.665C1510.9 458.569 1507.15 453.278 1504.42 446.793C1501.69 440.308 1500.49 432.628 1500.83 423.753C1501.17 415.22 1502.37 406.687 1504.42 398.153C1506.46 389.62 1509.19 380.574 1512.61 371.017C1516.02 361.118 1519.95 350.367 1524.38 338.761C1529.16 327.156 1534.62 314.185 1540.77 299.849C1543.5 293.022 1545.72 286.708 1547.42 280.905C1549.47 274.761 1550.5 269.3 1550.5 264.521C1550.5 261.108 1548.28 260.084 1543.84 261.449C1539.74 262.473 1532.75 267.422 1522.85 276.297C1510.9 286.878 1499.98 297.63 1490.08 308.553C1480.18 319.134 1469.94 330.911 1459.36 343.881C1450.49 364.02 1442.98 384.67 1436.83 405.833C1430.69 426.996 1426.76 448.841 1425.06 471.369C1424.71 474.441 1421.98 475.636 1416.86 474.953C1411.74 474.27 1406.28 472.734 1400.48 470.345C1394.68 467.614 1389.22 464.372 1384.1 460.617C1378.98 456.862 1376.25 453.279 1375.9 449.865C1377.27 424.265 1382.05 399.007 1390.24 374.089C1398.77 348.831 1407.82 323.401 1417.38 297.801C1422.15 285.854 1426.76 273.566 1431.2 260.937C1435.98 248.308 1440.42 234.484 1444.51 219.465C1448.61 217.417 1454.24 217.417 1461.41 219.465C1468.58 221.172 1475.4 224.073 1481.89 228.169C1488.37 232.265 1493.66 237.214 1497.76 243.017C1501.86 248.82 1502.88 254.622 1500.83 260.425H1501.34C1501.34 261.108 1501.17 261.62 1500.83 261.961C1513.46 250.014 1526.94 239.945 1541.28 231.753C1555.62 223.22 1570.63 218.441 1586.34 217.417C1590.43 217.417 1594.87 218.953 1599.65 222.025C1604.43 224.756 1608.69 228.34 1612.45 232.777C1616.54 236.873 1619.62 241.31 1621.66 246.089C1624.05 250.868 1624.74 255.135 1623.71 258.889C1617.91 274.59 1611.94 289.438 1605.79 303.433C1599.99 317.087 1594.87 328.863 1590.43 338.761C1586.68 347.636 1583.09 355.828 1579.68 363.337C1576.61 370.846 1573.71 378.356 1570.98 385.865C1568.59 393.033 1566.54 400.542 1564.83 408.393C1563.47 416.244 1562.44 424.948 1561.76 434.505C1561.42 436.212 1561.76 437.918 1562.78 439.625C1564.15 441.332 1566.71 441.673 1570.46 440.649C1579.34 436.212 1590.43 428.191 1603.74 416.585C1617.06 404.639 1630.54 388.425 1644.19 367.945C1650.68 358.388 1656.82 348.66 1662.62 338.761L1670.82 324.425C1671.84 322.719 1673.72 321.865 1676.45 321.865C1679.52 321.524 1682.42 321.865 1685.15 322.889C1687.88 323.913 1690.1 325.279 1691.81 326.985C1693.51 328.692 1693.69 330.74 1692.32 333.129L1665.7 377.673Z" fill="white"/>
<path d="M2229.59 163.657C2223.1 167.753 2215.08 169.801 2205.52 169.801C2199.04 169.801 2192.72 168.777 2186.58 166.729C2180.78 164.681 2175.66 162.292 2171.22 159.561C2167.12 156.489 2163.88 153.588 2161.49 150.857C2159.1 148.126 2158.25 146.078 2158.93 144.713C2166.44 141.3 2174.63 136.009 2183.51 128.841C2192.72 121.673 2201.26 113.822 2209.11 105.289C2216.96 96.4145 2223.44 87.5398 2228.56 78.6651C2234.03 69.4491 2236.76 60.9158 2236.76 53.0652C2236.76 46.5798 2234.88 41.1185 2231.12 36.6812C2227.71 32.2438 2221.57 29.3425 2212.69 27.9771C2209.96 27.2945 2207.06 26.9532 2203.99 26.9532C2200.92 26.9532 2197.84 26.9532 2194.77 26.9532C2182.48 26.9532 2169 28.3185 2154.32 31.0491C2139.65 33.4385 2124.97 37.1931 2110.29 42.3131C2095.61 47.0918 2081.45 53.0651 2067.8 60.2332C2054.14 67.4011 2042.2 75.7638 2031.96 85.3211C2022.06 94.8785 2014.38 105.63 2008.92 117.577C2003.45 129.182 2001.58 141.982 2003.28 155.977C2004.31 165.534 2006.7 174.921 2010.45 184.137C2014.55 193.012 2019.33 201.716 2024.79 210.249C2030.59 218.782 2036.91 227.145 2043.73 235.337C2050.56 243.188 2057.39 250.697 2064.21 257.865C2072.75 267.081 2081.11 276.468 2089.3 286.025C2097.49 295.582 2104.66 305.481 2110.8 315.721C2116.95 325.62 2121.73 335.86 2125.14 346.441C2128.89 357.022 2130.26 367.945 2129.24 379.209C2127.19 396.959 2119.68 415.049 2106.71 433.481C2094.08 451.913 2077.69 468.468 2057.56 483.145C2037.76 498.164 2015.23 510.281 1989.97 519.497C1964.71 528.713 1938.26 532.809 1910.61 531.785C1895.59 530.761 1879.38 527.86 1861.97 523.081C1844.91 518.303 1828.86 511.476 1813.84 502.601C1799.17 494.068 1786.71 483.487 1776.47 470.857C1766.23 457.887 1760.77 442.868 1760.08 425.801C1759.4 408.052 1763.67 390.815 1772.88 374.089C1782.44 357.364 1799.51 340.468 1824.08 323.401H1823.57C1825.62 321.694 1830.23 321.694 1837.4 323.401C1844.91 324.766 1852.76 326.985 1860.95 330.057C1869.14 333.129 1876.31 336.542 1882.45 340.297C1888.6 344.052 1891.33 346.953 1890.64 349.001L1878.87 355.657C1871.7 359.753 1864.36 364.02 1856.85 368.457C1849.34 372.553 1842.69 377.503 1836.88 383.305C1831.08 389.108 1826.3 395.764 1822.55 403.273C1818.79 410.441 1816.92 419.145 1816.92 429.385C1816.92 444.062 1819.99 456.009 1826.13 465.225C1832.28 474.1 1840.13 481.097 1849.68 486.217C1859.24 491.337 1869.82 494.75 1881.43 496.457C1893.37 498.164 1905.15 499.017 1916.76 499.017C1936.89 499.017 1955.33 496.116 1972.05 490.313C1988.78 484.852 2003.11 477.001 2015.06 466.761C2027.35 456.521 2036.73 444.062 2043.22 429.385C2050.05 414.708 2053.46 398.324 2053.46 380.233C2053.46 370.334 2051.58 361.119 2047.83 352.585C2044.41 343.711 2039.98 335.348 2034.52 327.497C2029.05 319.305 2022.74 311.454 2015.57 303.945C2008.4 296.094 2001.24 288.414 1994.07 280.905C1985.88 272.372 1977.68 263.838 1969.49 255.305C1961.64 246.772 1954.81 238.068 1949.01 229.193C1943.21 220.318 1938.77 211.273 1935.7 202.057C1932.63 192.5 1931.6 182.601 1932.63 172.361C1934.33 156.318 1939.63 140.788 1948.5 125.769C1957.72 110.409 1969.32 96.2438 1983.32 83.2731C1997.65 69.9611 2013.87 58.0145 2031.96 47.4331C2050.39 36.8518 2069.67 27.9771 2089.81 20.8091C2109.95 13.2998 2130.43 7.83847 2151.25 4.42514C2172.41 0.670485 2192.89 -0.694851 2212.69 0.329136C2224.3 1.01181 2234.03 3.05982 2241.88 6.47315C2250.07 9.54515 2256.55 13.8118 2261.33 19.2731C2266.45 24.3932 2270.04 30.3665 2272.08 37.1931C2274.47 44.0198 2275.67 51.1878 2275.67 58.6971C2275.67 67.5718 2274.3 76.9585 2271.57 86.8571C2269.18 96.7558 2265.77 106.484 2261.33 116.041C2257.24 125.257 2252.46 134.132 2247 142.665C2241.88 150.857 2236.59 157.854 2231.12 163.657H2229.59Z" fill="white"/>
<path d="M2205.46 218.953C2202.39 219.977 2199.66 220.148 2197.27 219.465C2194.88 218.782 2193 217.758 2191.64 216.393C2190.27 214.686 2189.76 212.98 2190.1 211.273C2190.44 209.225 2191.81 207.348 2194.2 205.641C2218.43 189.94 2243.18 176.969 2268.44 166.729C2287.21 126.452 2300.52 91.8065 2308.37 62.7932C2312.47 60.7451 2318.1 60.5745 2325.27 62.2811C2332.44 63.9878 2339.26 66.8892 2345.75 70.9851C2352.23 75.0811 2357.52 80.0305 2361.62 85.8331C2365.72 91.6358 2366.74 97.4385 2364.69 103.241C2363.33 106.654 2361.11 111.945 2358.04 119.113C2354.96 125.94 2351.21 133.79 2346.77 142.665C2372.37 137.545 2398.14 134.985 2424.08 134.985C2427.5 134.985 2431.59 135.156 2436.37 135.497C2441.49 135.497 2445.76 135.668 2449.17 136.009C2450.2 138.74 2450.2 141.812 2449.17 145.225C2448.15 148.638 2446.44 151.881 2444.05 154.953C2442 157.684 2439.44 160.073 2436.37 162.121C2433.3 163.828 2430.23 164.34 2427.16 163.657C2423.06 163.316 2419.13 163.145 2415.38 163.145C2411.63 162.804 2407.87 162.633 2404.12 162.633C2392.17 162.633 2380.22 163.316 2368.28 164.681C2356.67 166.046 2344.89 168.094 2332.95 170.825L2308.88 217.929L2305.81 224.073C2302.74 229.876 2298.47 238.068 2293.01 248.649C2287.89 258.889 2282.26 270.494 2276.12 283.465C2269.97 296.094 2263.66 309.406 2257.17 323.401C2251.03 337.396 2245.4 351.049 2240.28 364.361C2235.16 377.332 2230.89 389.449 2227.48 400.713C2224.4 411.977 2222.87 421.193 2222.87 428.361C2222.87 435.871 2223.72 440.478 2225.43 442.185H2229.52C2238.74 438.772 2247.61 433.481 2256.15 426.313C2264.68 418.804 2272.7 410.441 2280.21 401.225C2288.06 391.668 2295.4 381.598 2302.23 371.017C2309.4 360.436 2315.88 350.196 2321.68 340.297H2321.17C2322.88 337.566 2324.59 335.006 2326.29 332.617C2328 329.886 2329.71 327.156 2331.41 324.425C2332.44 322.719 2334.31 321.865 2337.04 321.865C2340.12 321.524 2343.02 321.865 2345.75 322.889C2348.48 323.913 2350.7 325.279 2352.4 326.985C2354.11 328.692 2354.45 330.74 2353.43 333.129L2340.63 354.121C2335.51 362.313 2330.05 370.846 2324.24 379.721C2318.78 388.596 2312.81 397.47 2306.32 406.345C2299.84 414.878 2293.01 423.241 2285.84 431.433C2278.68 439.284 2271.17 446.452 2263.32 452.937C2260.93 454.985 2257.85 457.374 2254.1 460.105C2250.35 462.836 2245.91 465.396 2240.79 467.785C2236.01 469.833 2230.55 471.711 2224.4 473.417C2218.26 474.783 2211.77 475.465 2204.95 475.465C2190.95 474.783 2180.71 470.004 2174.23 461.129C2168.08 452.254 2165.01 441.332 2165.01 428.361C2165.01 425.631 2165.18 422.388 2165.52 418.633C2165.87 414.878 2166.38 411.465 2167.06 408.393C2169.45 393.033 2173.03 377.673 2177.81 362.313C2182.93 346.953 2188.56 331.764 2194.71 316.745C2201.19 301.385 2208.19 286.196 2215.7 271.177C2223.21 256.158 2230.89 241.14 2238.74 226.121L2253.59 196.425C2245.74 199.838 2237.89 203.422 2230.04 207.177C2222.19 210.59 2214.33 214.516 2206.48 218.953H2205.46Z" fill="white"/>
<path d="M2506.8 217.417C2510.9 215.369 2516.19 215.54 2522.67 217.929C2529.5 219.977 2535.98 223.22 2542.13 227.657C2548.27 231.753 2553.22 236.873 2556.98 243.017C2560.73 248.82 2561.58 254.622 2559.54 260.425C2558.51 263.156 2556.81 266.91 2554.42 271.689C2552.37 276.468 2549.81 282.1 2546.74 288.585C2541.96 298.825 2536.67 310.601 2530.86 323.913C2525.06 336.884 2519.6 349.854 2514.48 362.825C2509.36 375.796 2504.92 388.084 2501.17 399.689C2497.75 411.294 2496.05 420.852 2496.05 428.361C2496.05 437.577 2497.07 442.185 2499.12 442.185H2503.73C2512.94 439.113 2521.82 433.823 2530.35 426.313C2539.23 418.463 2547.59 409.759 2555.44 400.201C2563.63 390.303 2571.14 379.892 2577.97 368.969C2585.14 358.046 2591.62 347.636 2597.42 337.737L2605.1 324.425C2606.81 321.694 2609.37 319.988 2612.78 319.305C2616.2 318.623 2619.27 318.793 2622 319.817C2625.07 320.5 2627.29 322.036 2628.66 324.425C2630.02 326.815 2629.68 329.716 2627.63 333.129L2615.34 352.585C2604.76 369.652 2593.16 387.06 2580.53 404.809C2568.24 422.559 2553.9 438.601 2537.52 452.937C2535.13 454.985 2532.06 457.374 2528.3 460.105C2524.55 462.836 2520.11 465.396 2514.99 467.785C2510.21 469.833 2504.75 471.711 2498.61 473.417C2492.46 474.783 2485.98 475.465 2479.15 475.465C2465.5 474.783 2455.26 470.004 2448.43 461.129C2441.95 452.254 2438.7 441.332 2438.7 428.361C2438.7 422.559 2439.22 416.756 2440.24 410.953C2434.1 418.804 2427.78 426.313 2421.3 433.481C2414.81 440.649 2407.98 447.134 2400.82 452.937C2398.43 454.985 2395.35 457.374 2391.6 460.105C2387.85 462.836 2383.41 465.396 2378.29 467.785C2373.51 469.833 2368.05 471.711 2361.9 473.417C2355.76 474.783 2349.27 475.465 2342.45 475.465C2329.14 474.783 2319.07 470.175 2312.24 461.641C2305.75 452.767 2302.51 441.844 2302.51 428.873C2302.51 421.705 2303.19 414.878 2304.56 408.393C2305.93 402.249 2307.8 395.081 2310.19 386.889C2312.58 378.356 2315.31 369.311 2318.38 359.753C2321.8 350.196 2325.21 340.297 2328.62 330.057C2332.38 319.817 2336.13 309.748 2339.89 299.849C2345.01 285.513 2349.96 271.519 2354.74 257.865C2359.51 243.871 2363.61 230.388 2367.02 217.417H2370.61C2374.7 215.369 2379.99 215.54 2386.48 217.929C2393.31 219.977 2399.62 223.22 2405.42 227.657C2411.57 231.753 2416.52 236.873 2420.27 243.017C2424.03 248.82 2424.88 254.622 2422.83 260.425L2409.01 291.145C2404.23 301.385 2398.94 312.99 2393.14 325.961C2387.67 338.59 2382.38 351.391 2377.26 364.361C2372.49 376.991 2368.39 389.108 2364.98 400.713C2361.56 411.977 2359.86 421.193 2359.86 428.361C2359.86 437.577 2360.88 442.185 2362.93 442.185H2367.02C2376.24 438.772 2385.11 433.481 2393.65 426.313C2402.18 418.804 2410.2 410.441 2417.71 401.225C2425.56 391.668 2432.9 381.598 2439.73 371.017C2446.9 360.436 2453.38 350.196 2459.18 340.297H2458.67C2459.35 338.59 2460.21 337.054 2461.23 335.689C2462.6 334.324 2463.79 332.788 2464.82 331.081C2466.52 326.303 2468.23 321.524 2469.94 316.745C2471.64 311.966 2473.35 307.188 2475.06 302.409C2480.52 287.732 2485.64 273.225 2490.42 258.889C2495.54 244.212 2499.8 230.388 2503.22 217.417H2506.8Z" fill="white"/>
<path d="M2866.28 243.017C2855.02 264.18 2844.09 285.342 2833.51 306.505C2822.93 327.668 2813.71 348.489 2805.86 368.969H2806.38C2802.28 378.868 2798.7 389.108 2795.62 399.689C2792.55 409.929 2791.02 418.974 2791.02 426.825C2791.02 435.7 2792.04 440.82 2794.09 442.185H2798.7C2807.91 439.113 2816.79 433.823 2825.32 426.313C2833.85 418.804 2842.05 410.271 2849.9 400.713C2857.75 390.814 2865.09 380.404 2871.91 369.481C2879.08 358.559 2885.74 348.148 2891.88 338.249C2893.59 335.86 2894.95 333.641 2895.98 331.593C2897.34 329.204 2898.71 326.815 2900.07 324.425C2901.1 322.719 2903.14 321.865 2906.22 321.865C2909.29 321.524 2912.19 321.865 2914.92 322.889C2917.99 323.913 2920.38 325.279 2922.09 326.985C2923.79 328.692 2923.97 330.74 2922.6 333.129C2920.55 336.201 2918.5 339.444 2916.46 342.857C2914.75 345.929 2912.87 349.172 2910.82 352.585C2900.24 369.993 2888.64 387.572 2876.01 405.321C2863.38 422.729 2848.7 438.601 2831.98 452.937C2829.59 454.985 2826.51 457.374 2822.76 460.105C2819.01 462.836 2814.74 465.396 2809.96 467.785C2805.18 470.174 2799.72 472.223 2793.58 473.929C2787.77 475.295 2781.29 475.807 2774.12 475.465C2757.39 474.1 2745.28 468.98 2737.77 460.105C2730.26 451.23 2726.5 440.649 2726.5 428.361V421.193C2720.02 428.02 2713.19 434.505 2706.02 440.649C2699.2 446.793 2692.03 452.255 2684.52 457.033C2677.35 461.812 2670.01 465.737 2662.5 468.809C2654.99 471.54 2647.49 472.905 2639.98 472.905C2627.69 471.881 2617.28 468.98 2608.74 464.201C2600.55 459.423 2594.07 453.961 2589.29 447.817C2584.51 441.332 2581.1 434.505 2579.05 427.337C2577 419.828 2575.98 412.66 2575.98 405.833C2575.98 403.102 2576.15 400.372 2576.49 397.641C2576.49 394.911 2576.66 392.521 2577 390.473C2578.37 379.551 2581.61 367.604 2586.73 354.633C2592.19 341.662 2598.85 328.692 2606.7 315.721C2614.89 302.75 2624.27 290.292 2634.86 278.345C2645.78 266.057 2657.55 255.305 2670.18 246.089C2682.81 236.532 2695.95 229.022 2709.61 223.561C2723.6 217.758 2737.94 214.857 2752.62 214.857C2761.83 214.857 2770.54 215.881 2778.73 217.929C2789.31 221.001 2797.5 226.804 2803.3 235.337L2810.47 222.025L2824.81 194.889C2830.95 183.625 2836.75 172.02 2842.22 160.073C2848.02 148.126 2853.31 136.35 2858.09 124.745C2862.87 113.14 2866.96 102.217 2870.38 91.9771C2874.13 81.3958 2877.2 71.6678 2879.59 62.7932C2883.69 60.7451 2889.15 60.5745 2895.98 62.2811C2903.14 63.9878 2909.97 66.8892 2916.46 70.9851C2922.94 75.0811 2928.23 80.0305 2932.33 85.8331C2936.42 91.6358 2937.45 97.4385 2935.4 103.241C2934.03 106.996 2931.3 113.14 2927.21 121.673C2923.45 130.206 2918.85 139.934 2913.38 150.857C2908.26 161.438 2902.63 172.702 2896.49 184.649C2890.34 196.596 2884.54 207.689 2879.08 217.929L2865.77 243.017H2866.28ZM2672.23 435.017C2677.01 433.993 2682.98 430.409 2690.15 424.265C2697.32 418.121 2704.49 410.783 2711.66 402.249C2719.17 393.716 2726.33 384.841 2733.16 375.625C2740.33 366.409 2746.13 358.217 2750.57 351.049L2757.22 332.617C2761.32 322.036 2765.76 311.625 2770.54 301.385C2775.31 290.804 2780.43 280.223 2785.9 269.641C2784.87 262.815 2782.65 256.158 2779.24 249.673C2776.17 243.188 2770.37 239.604 2761.83 238.921C2752.96 238.58 2744.25 240.628 2735.72 245.065C2727.53 249.161 2719.51 254.793 2711.66 261.961C2703.81 269.129 2696.47 277.321 2689.64 286.537C2682.81 295.753 2676.5 305.481 2670.7 315.721C2665.23 325.62 2660.46 335.689 2656.36 345.929C2652.26 355.828 2649.02 365.044 2646.63 373.577C2645.61 377.673 2644.58 382.452 2643.56 387.913C2642.54 393.374 2642.02 398.836 2642.02 404.297C2642.02 409.076 2642.37 413.684 2643.05 418.121C2644.07 422.217 2645.78 425.801 2648.17 428.873C2650.56 431.945 2653.63 434.164 2657.38 435.529C2661.14 436.553 2666.09 436.382 2672.23 435.017Z" fill="white"/>
<path d="M2945.75 217.417C2950.19 215.71 2955.65 215.71 2962.14 217.417C2968.62 219.124 2974.59 222.025 2980.06 226.121C2985.86 229.876 2990.47 234.654 2993.88 240.457C2997.63 245.918 2999 251.38 2997.98 256.841L2979.54 290.633C2974.42 299.508 2968.79 309.407 2962.65 320.329C2956.5 331.252 2950.53 342.345 2944.73 353.609C2938.93 364.532 2933.46 375.284 2928.34 385.865C2923.22 396.447 2919.13 406.004 2916.06 414.537C2913.33 422.729 2911.79 429.385 2911.45 434.505C2911.45 439.625 2913.5 442.185 2917.59 442.185H2921.69C2931.25 438.772 2940.63 433.481 2949.85 426.313C2959.41 418.804 2968.45 410.271 2976.98 400.713C2985.86 391.156 2994.22 381.257 3002.07 371.017C3010.26 360.436 3017.77 350.367 3024.6 340.809L3032.28 330.057C3033.65 328.35 3035.86 327.497 3038.94 327.497C3042.01 327.156 3044.74 327.497 3047.13 328.521C3049.86 329.204 3051.91 330.569 3053.27 332.617C3054.64 334.324 3054.3 336.372 3052.25 338.761H3052.76C3039.11 359.924 3024.43 380.062 3008.73 399.177C2993.03 418.292 2974.59 436.212 2953.43 452.937C2950.7 454.985 2947.29 457.374 2943.19 460.105C2939.1 462.836 2934.49 465.396 2929.37 467.785C2924.25 469.833 2918.62 471.711 2912.47 473.417C2906.67 474.783 2900.7 475.465 2894.55 475.465C2882.26 475.124 2873.22 471.369 2867.42 464.201C2861.61 456.692 2858.71 447.646 2858.71 437.065C2858.71 428.532 2860.42 418.974 2863.83 408.393H2863.32C2865.03 401.908 2867.59 394.399 2871 385.865C2874.41 376.991 2878.17 367.604 2882.26 357.705C2886.7 347.807 2891.31 337.567 2896.09 326.985C2901.21 316.404 2906.33 305.822 2911.45 295.241C2918.27 280.564 2924.76 266.569 2930.9 253.257C2937.05 239.945 2942 227.998 2945.75 217.417ZM2999.51 76.1051C3003.27 75.4225 3008.05 76.9585 3013.85 80.7131C3019.99 84.4678 3025.79 89.0758 3031.26 94.5371C3037.06 99.6571 3041.84 104.948 3045.59 110.409C3049.69 115.529 3051.74 119.113 3051.74 121.161C3050.37 126.622 3047.81 132.937 3044.06 140.105C3040.64 147.273 3037.06 154.441 3033.3 161.609C3029.89 168.436 3026.65 175.262 3023.58 182.089C3020.5 188.574 3017.77 195.913 3015.38 204.105C3011.63 203.422 3007.36 201.716 3002.58 198.985C2998.15 195.913 2993.88 192.5 2989.78 188.745C2986.03 184.99 2982.79 181.236 2980.06 177.481C2977.33 173.726 2975.96 170.654 2975.96 168.265C2976.3 162.462 2977.15 156.148 2978.52 149.321C2980.23 142.153 2982.1 134.644 2984.15 126.793C2986.54 118.26 2988.59 109.726 2990.3 101.193C2992.34 92.3185 2993.71 83.9558 2994.39 76.1051H2999.51Z" fill="white"/>
<path d="M3182.65 215.369C3191.19 216.393 3198.52 218.441 3204.67 221.513C3210.81 224.585 3215.76 228.34 3219.52 232.777C3223.61 237.214 3226.51 242.164 3228.22 247.625C3230.27 253.086 3231.63 258.548 3232.32 264.009C3238.8 271.177 3242.9 281.076 3244.6 293.705C3244.95 296.095 3245.12 298.484 3245.12 300.873C3245.46 303.263 3245.63 305.822 3245.63 308.553C3245.63 321.182 3243.75 333.982 3240 346.953C3236.58 359.924 3231.63 372.553 3225.15 384.841C3218.66 397.129 3210.98 408.734 3202.11 419.657C3193.23 430.238 3183.51 439.625 3172.92 447.817C3162.68 456.009 3151.76 462.494 3140.16 467.273C3128.89 471.71 3117.29 473.929 3105.34 473.929C3084.52 473.588 3066.09 467.273 3050.04 454.985C3034 442.356 3023.08 424.606 3017.28 401.737C3015.57 394.228 3014.72 387.06 3014.72 380.233C3014.72 361.46 3019.49 342.004 3029.05 321.865C3038.61 301.727 3051.24 283.465 3066.94 267.081C3082.98 250.697 3100.9 237.556 3120.7 227.657C3140.84 217.758 3161.49 213.662 3182.65 215.369ZM3171.39 318.281C3169.34 317.598 3167.63 316.062 3166.27 313.673C3165.24 310.942 3164.39 307.87 3163.71 304.457C3163.37 301.044 3163.2 297.631 3163.2 294.217C3163.2 290.804 3163.2 287.732 3163.2 285.001C3163.54 282.27 3165.07 279.54 3167.8 276.809C3170.53 273.737 3173.44 271.006 3176.51 268.617C3179.92 266.228 3183.16 264.18 3186.24 262.473C3189.65 260.425 3191.87 259.06 3192.89 258.377C3195.96 256.671 3198.87 255.646 3201.6 255.305C3201.25 250.526 3199.72 246.43 3196.99 243.017C3194.26 239.604 3188.97 238.238 3181.12 238.921C3174.29 239.604 3165.93 242.505 3156.03 247.625C3146.47 252.745 3137.43 259.572 3128.89 268.105H3129.4C3121.55 275.956 3114.39 285.001 3107.9 295.241C3101.76 305.14 3096.47 315.551 3092.03 326.473C3087.59 337.055 3084.01 347.806 3081.28 358.729C3078.89 369.652 3077.69 379.892 3077.69 389.449C3077.69 403.785 3080.42 415.902 3085.88 425.801C3091.69 435.7 3100.9 440.99 3113.53 441.673C3126.16 442.356 3138.62 437.748 3150.91 427.849C3163.2 417.95 3174.12 405.492 3183.68 390.473C3193.57 375.455 3201.43 359.412 3207.23 342.345C3213.37 324.937 3216.27 309.065 3215.93 294.729C3215.93 287.902 3215.25 283.806 3213.88 282.441C3210.81 282.441 3207.4 283.806 3203.64 286.537C3199.89 288.927 3196.31 291.999 3192.89 295.753C3189.48 299.167 3186.41 302.921 3183.68 307.017C3181.29 311.113 3179.92 314.868 3179.58 318.281H3171.39Z" fill="white"/>
<path d="M3222.95 415.561C3222.95 404.638 3225.85 393.887 3231.65 383.305C3237.45 372.383 3244.79 363.508 3253.67 356.681C3255.72 353.268 3257.93 349.854 3260.32 346.441C3263.05 342.686 3265.27 339.102 3266.98 335.689C3275.85 321.353 3284.9 307.188 3294.12 293.193C3303.67 278.857 3313.91 264.521 3324.84 250.185C3326.88 247.454 3328.76 244.894 3330.47 242.505C3332.17 240.116 3333.88 237.556 3335.59 234.825C3341.05 226.974 3347.36 218.612 3354.53 209.737C3361.7 200.862 3372.11 190.452 3385.76 178.505C3389.86 180.212 3394.98 182.772 3401.12 186.185C3407.27 189.598 3412.73 193.353 3417.51 197.449C3422.63 201.204 3426.38 205.129 3428.77 209.225C3431.16 212.98 3430.65 216.052 3427.24 218.441H3427.75C3422.97 222.878 3419.21 226.804 3416.48 230.217C3414.09 233.63 3411.02 238.068 3407.27 243.529L3401.12 252.745C3393.96 264.009 3389.01 276.127 3386.28 289.097C3383.89 302.068 3382.69 315.209 3382.69 328.521C3382.69 335.348 3382.86 342.174 3383.2 349.001C3383.55 355.828 3384.06 362.655 3384.74 369.481L3386.28 397.129C3386.62 409.417 3384.74 420.852 3380.64 431.433C3376.55 441.673 3370.57 450.377 3362.72 457.545C3354.87 464.713 3345.49 470.175 3334.56 473.929C3323.64 477.343 3311.87 478.708 3299.24 478.025C3272.95 475.977 3253.67 468.98 3241.38 457.033C3229.09 444.745 3222.95 430.921 3222.95 415.561ZM3322.28 329.033C3322.28 322.889 3322.62 316.745 3323.3 310.601C3323.98 304.116 3325.18 297.46 3326.88 290.633C3322.11 297.46 3317.33 304.628 3312.55 312.137C3307.77 319.647 3303.16 326.985 3298.72 334.153L3290.53 346.953C3296.33 347.977 3301.8 349.684 3306.92 352.073C3307.94 353.097 3309.31 355.657 3311.01 359.753C3312.72 363.849 3314.25 368.286 3315.62 373.065C3317.33 377.844 3318.35 382.452 3318.69 386.889C3319.37 390.985 3318.86 393.887 3317.16 395.593C3308.96 388.767 3301.8 385.353 3295.65 385.353C3291.21 385.353 3286.61 386.206 3281.83 387.913C3277.39 389.62 3273.29 392.009 3269.54 395.081C3266.13 397.812 3263.23 401.225 3260.84 405.321C3258.79 409.417 3257.76 414.025 3257.76 419.145C3257.76 422.217 3258.11 425.289 3258.79 428.361C3259.81 431.433 3261.01 434.164 3262.37 436.553C3266.47 443.38 3271.42 448.5 3277.22 451.913C3283.02 454.985 3288.31 456.692 3293.09 457.033C3299.24 457.716 3304.53 456.692 3308.96 453.961C3313.4 451.23 3316.99 447.647 3319.72 443.209C3322.45 438.431 3324.49 432.969 3325.86 426.825C3327.23 420.34 3327.91 413.684 3327.91 406.857C3327.91 401.055 3327.57 395.081 3326.88 388.937C3326.54 382.793 3326.03 376.649 3325.35 370.505C3324.67 364.02 3323.98 357.193 3323.3 350.025C3322.62 342.857 3322.28 335.86 3322.28 329.033Z" fill="white"/>
</g>
<defs>
<clipPath id="clip0_147_51">
<rect width="3431" height="587" fill="white"/>
</clipPath>
</defs>
</svg>
